{"glyphs":{"0":{"ha":919,"x_min":72,"x_max":849,"o":"m 460 -8 q 259 51 347 -8 q 122 223 171 111 q 72 486 72 335 q 122 749 72 638 q 259 921 171 861 q 460 981 347 981 q 660 921 572 981 q 799 749 749 861 q 849 486 849 638 q 799 223 849 335 q 660 51 749 111 q 460 -8 572 -8 m 460 83 q 609 131 544 83 q 710 268 674 178 q 746 486 746 358 q 710 704 746 614 q 609 842 674 794 q 460 889 544 889 q 310 842 375 889 q 210 704 246 794 q 174 486 174 614 q 210 268 174 358 q 310 131 246 178 q 460 83 375 83 z "},"1":{"ha":501,"x_min":13,"x_max":342,"o":"m 342 972 l 342 0 l 242 0 l 242 883 l 13 883 l 13 972 l 342 972 z "},"2":{"ha":789,"x_min":25,"x_max":736,"o":"m 736 89 l 736 0 l 54 0 l 54 71 l 458 467 q 562 597 535 542 q 589 707 589 651 q 530 841 589 793 q 361 889 471 889 q 96 781 190 889 l 25 842 q 170 944 82 908 q 369 981 258 981 q 605 910 518 981 q 692 718 692 840 q 658 574 692 643 q 532 414 625 504 l 201 89 l 736 89 z "},"3":{"ha":783,"x_min":13,"x_max":715,"o":"m 403 556 q 635 473 556 547 q 715 279 715 399 q 675 131 715 196 q 556 29 635 67 q 363 -8 476 -8 q 163 26 257 -8 q 13 117 69 60 l 61 196 q 190 115 110 146 q 363 83 271 83 q 547 135 482 83 q 613 279 613 188 q 547 421 613 369 q 350 472 482 472 l 281 472 l 281 546 l 550 883 l 53 883 l 53 972 l 678 972 l 678 901 l 403 556 z "},"4":{"ha":918,"x_min":56,"x_max":899,"o":"m 899 256 l 704 256 l 704 0 l 604 0 l 604 256 l 56 256 l 56 328 l 571 972 l 682 972 l 185 344 l 607 344 l 607 569 l 704 569 l 704 344 l 899 344 l 899 256 z "},"5":{"ha":786,"x_min":31,"x_max":732,"o":"m 328 574 q 635 498 539 574 q 732 286 732 422 q 692 135 732 201 q 574 30 653 68 q 379 -8 494 -8 q 181 26 275 -8 q 31 117 88 60 l 79 196 q 207 115 128 146 q 378 83 286 83 q 565 138 499 83 q 631 282 631 192 q 556 433 631 382 q 306 485 482 485 l 99 485 l 149 972 l 681 972 l 681 883 l 236 883 l 203 574 l 328 574 z "},"6":{"ha":846,"x_min":72,"x_max":803,"o":"m 475 582 q 645 546 571 582 q 761 444 719 510 q 803 290 803 378 q 760 133 803 201 q 641 28 717 65 q 471 -8 565 -8 q 175 119 278 -8 q 72 478 72 246 q 128 753 72 640 q 283 923 183 865 q 517 981 383 981 q 747 928 661 981 l 707 847 q 518 893 638 893 q 265 791 357 893 q 174 494 174 689 q 178 415 174 460 q 293 538 214 494 q 475 582 372 582 m 467 76 q 638 134 572 76 q 704 288 704 192 q 638 440 704 383 q 460 497 572 497 q 330 469 386 497 q 242 393 274 442 q 210 285 210 344 q 240 182 210 229 q 328 106 269 135 q 467 76 386 76 z "},"7":{"ha":818,"x_min":44,"x_max":758,"o":"m 758 972 l 758 901 l 351 0 l 243 0 l 643 883 l 143 883 l 143 701 l 44 701 l 44 972 l 758 972 z "},"8":{"ha":886,"x_min":67,"x_max":819,"o":"m 629 510 q 770 418 721 479 q 819 271 819 357 q 774 123 819 186 q 642 26 728 60 q 442 -8 557 -8 q 167 67 267 -8 q 67 271 67 142 q 115 419 67 358 q 254 510 163 479 q 140 594 179 539 q 101 724 101 649 q 194 911 101 842 q 442 981 286 981 q 622 949 544 981 q 742 860 699 918 q 785 724 785 801 q 744 594 785 649 q 629 510 704 539 m 201 721 q 265 593 201 640 q 442 546 329 546 q 619 593 554 546 q 683 719 683 640 q 617 849 683 801 q 442 896 551 896 q 266 849 331 896 q 201 721 201 801 m 442 76 q 644 129 571 76 q 717 272 717 182 q 644 415 717 363 q 442 467 571 467 q 241 415 314 467 q 168 272 168 363 q 240 128 168 181 q 442 76 313 76 z "},"9":{"ha":846,"x_min":43,"x_max":774,"o":"m 375 981 q 671 853 568 981 q 774 494 774 726 q 718 219 774 332 q 563 49 663 107 q 329 -8 463 -8 q 99 44 185 -8 l 139 125 q 328 79 208 79 q 581 181 489 79 q 672 478 672 283 q 668 557 672 514 q 553 434 632 478 q 371 390 474 390 q 201 426 275 390 q 85 528 126 463 q 43 682 43 594 q 86 839 43 771 q 205 944 129 907 q 375 981 281 981 m 386 475 q 516 503 460 475 q 604 579 572 531 q 636 688 636 628 q 606 790 636 743 q 518 867 576 838 q 379 896 460 896 q 208 838 274 896 q 142 685 142 781 q 208 532 142 589 q 386 475 274 475 z "},"\u0000":{"ha":0,"x_min":0,"x_max":0,"o":""},"\r":{"ha":364,"x_min":0,"x_max":0,"o":""}," ":{"ha":364,"x_min":0,"x_max":0,"o":""},"A":{"ha":996,"x_min":3,"x_max":993,"o":"m 768 260 l 226 260 l 110 0 l 3 0 l 447 972 l 549 972 l 993 0 l 885 0 l 768 260 m 731 343 l 497 865 l 264 343 l 731 343 z "},"Á":{"ha":996,"x_min":3,"x_max":993,"o":"m 768 260 l 226 260 l 110 0 l 3 0 l 447 972 l 549 972 l 993 0 l 885 0 l 768 260 m 731 343 l 497 865 l 264 343 l 731 343 z "},"Ă":{"ha":996,"x_min":3,"x_max":993,"o":"m 768 260 l 226 260 l 110 0 l 3 0 l 447 972 l 549 972 l 993 0 l 885 0 l 768 260 m 731 343 l 497 865 l 264 343 l 731 343 z "},"Ắ":{"ha":996,"x_min":3,"x_max":993,"o":"m 768 260 l 226 260 l 110 0 l 3 0 l 447 972 l 549 972 l 993 0 l 885 0 l 768 260 m 731 343 l 497 865 l 264 343 l 731 343 z "},"Ặ":{"ha":996,"x_min":3,"x_max":993,"o":"m 768 260 l 226 260 l 110 0 l 3 0 l 447 972 l 549 972 l 993 0 l 885 0 l 768 260 m 731 343 l 497 865 l 264 343 l 731 343 m 499 -264 q 456 -247 474 -264 q 439 -204 439 -231 q 456 -161 439 -178 q 499 -144 474 -144 q 541 -161 524 -144 q 558 -204 558 -178 q 541 -247 558 -231 q 499 -264 524 -264 z "},"Ằ":{"ha":996,"x_min":3,"x_max":993,"o":"m 768 260 l 226 260 l 110 0 l 3 0 l 447 972 l 549 972 l 993 0 l 885 0 l 768 260 m 731 343 l 497 865 l 264 343 l 731 343 z "},"Ẳ":{"ha":996,"x_min":3,"x_max":993,"o":"m 768 260 l 226 260 l 110 0 l 3 0 l 447 972 l 549 972 l 993 0 l 885 0 l 768 260 m 731 343 l 497 865 l 264 343 l 731 343 z "},"Ẵ":{"ha":996,"x_min":3,"x_max":993,"o":"m 768 260 l 226 260 l 110 0 l 3 0 l 447 972 l 549 972 l 993 0 l 885 0 l 768 260 m 731 343 l 497 865 l 264 343 l 731 343 z "},"Ǎ":{"ha":996,"x_min":3,"x_max":993,"o":"m 768 260 l 226 260 l 110 0 l 3 0 l 447 972 l 549 972 l 993 0 l 885 0 l 768 260 m 731 343 l 497 865 l 264 343 l 731 343 z "},"Â":{"ha":996,"x_min":3,"x_max":993,"o":"m 768 260 l 226 260 l 110 0 l 3 0 l 447 972 l 549 972 l 993 0 l 885 0 l 768 260 m 731 343 l 497 865 l 264 343 l 731 343 z "},"Ấ":{"ha":996,"x_min":3,"x_max":993,"o":"m 768 260 l 226 260 l 110 0 l 3 0 l 447 972 l 549 972 l 993 0 l 885 0 l 768 260 m 731 343 l 497 865 l 264 343 l 731 343 z "},"Ậ":{"ha":996,"x_min":3,"x_max":993,"o":"m 768 260 l 226 260 l 110 0 l 3 0 l 447 972 l 549 972 l 993 0 l 885 0 l 768 260 m 731 343 l 497 865 l 264 343 l 731 343 m 499 -264 q 456 -247 474 -264 q 439 -204 439 -231 q 456 -161 439 -178 q 499 -144 474 -144 q 541 -161 524 -144 q 558 -204 558 -178 q 541 -247 558 -231 q 499 -264 524 -264 z "},"Ầ":{"ha":996,"x_min":3,"x_max":993,"o":"m 768 260 l 226 260 l 110 0 l 3 0 l 447 972 l 549 972 l 993 0 l 885 0 l 768 260 m 731 343 l 497 865 l 264 343 l 731 343 z "},"Ẩ":{"ha":996,"x_min":3,"x_max":993,"o":"m 768 260 l 226 260 l 110 0 l 3 0 l 447 972 l 549 972 l 993 0 l 885 0 l 768 260 m 731 343 l 497 865 l 264 343 l 731 343 z "},"Ẫ":{"ha":996,"x_min":3,"x_max":993,"o":"m 768 260 l 226 260 l 110 0 l 3 0 l 447 972 l 549 972 l 993 0 l 885 0 l 768 260 m 731 343 l 497 865 l 264 343 l 731 343 z "},"Ȁ":{"ha":996,"x_min":3,"x_max":993,"o":"m 768 260 l 226 260 l 110 0 l 3 0 l 447 972 l 549 972 l 993 0 l 885 0 l 768 260 m 731 343 l 497 865 l 264 343 l 731 343 z "},"Ä":{"ha":996,"x_min":3,"x_max":993,"o":"m 768 260 l 226 260 l 110 0 l 3 0 l 447 972 l 549 972 l 993 0 l 885 0 l 768 260 m 731 343 l 497 865 l 264 343 l 731 343 z "},"Ạ":{"ha":996,"x_min":3,"x_max":993,"o":"m 768 260 l 226 260 l 110 0 l 3 0 l 447 972 l 549 972 l 993 0 l 885 0 l 768 260 m 731 343 l 497 865 l 264 343 l 731 343 m 499 -264 q 456 -247 474 -264 q 439 -204 439 -231 q 456 -161 439 -178 q 499 -144 474 -144 q 541 -161 524 -144 q 558 -204 558 -178 q 541 -247 558 -231 q 499 -264 524 -264 z "},"À":{"ha":996,"x_min":3,"x_max":993,"o":"m 768 260 l 226 260 l 110 0 l 3 0 l 447 972 l 549 972 l 993 0 l 885 0 l 768 260 m 731 343 l 497 865 l 264 343 l 731 343 z "},"Ả":{"ha":996,"x_min":3,"x_max":993,"o":"m 768 260 l 226 260 l 110 0 l 3 0 l 447 972 l 549 972 l 993 0 l 885 0 l 768 260 m 731 343 l 497 865 l 264 343 l 731 343 z "},"Ȃ":{"ha":996,"x_min":3,"x_max":993,"o":"m 768 260 l 226 260 l 110 0 l 3 0 l 447 972 l 549 972 l 993 0 l 885 0 l 768 260 m 731 343 l 497 865 l 264 343 l 731 343 z "},"Ā":{"ha":996,"x_min":3,"x_max":993,"o":"m 768 260 l 226 260 l 110 0 l 3 0 l 447 972 l 549 972 l 993 0 l 885 0 l 768 260 m 731 343 l 497 865 l 264 343 l 731 343 z "},"Ą":{"ha":996,"x_min":3,"x_max":1022,"o":"m 1022 -272 q 904 -306 972 -306 q 793 -269 835 -306 q 751 -174 751 -233 q 882 6 751 -69 l 768 260 l 226 260 l 110 0 l 3 0 l 447 972 l 549 972 l 993 0 q 824 -167 824 -75 q 849 -224 824 -204 q 914 -244 874 -244 q 1000 -218 968 -244 l 1022 -272 m 731 343 l 497 865 l 264 343 l 731 343 z "},"Å":{"ha":996,"x_min":3,"x_max":993,"o":"m 768 260 l 226 260 l 110 0 l 3 0 l 447 972 l 549 972 l 993 0 l 885 0 l 768 260 m 731 343 l 497 865 l 264 343 l 731 343 m 497 1069 q 394 1111 435 1069 q 353 1211 353 1153 q 394 1314 353 1271 q 497 1357 436 1357 q 601 1314 558 1357 q 643 1211 643 1271 q 601 1111 643 1153 q 497 1069 560 1069 m 497 1118 q 565 1144 539 1118 q 592 1211 592 1171 q 565 1280 592 1251 q 497 1308 538 1308 q 431 1281 457 1308 q 404 1211 404 1253 q 430 1144 404 1171 q 497 1118 456 1118 z "},"Ǻ":{"ha":996,"x_min":3,"x_max":993,"o":"m 768 260 l 226 260 l 110 0 l 3 0 l 447 972 l 549 972 l 993 0 l 885 0 l 768 260 m 731 343 l 497 865 l 264 343 l 731 343 m 615 1297 q 643 1211 643 1258 q 601 1111 643 1153 q 497 1069 560 1069 q 394 1111 435 1069 q 353 1211 353 1153 q 394 1314 353 1271 q 497 1357 436 1357 q 574 1336 536 1357 l 688 1449 l 743 1404 l 615 1297 m 497 1118 q 565 1144 539 1118 q 592 1211 592 1171 q 565 1280 592 1251 q 497 1308 538 1308 q 431 1281 457 1308 q 404 1211 404 1253 q 430 1144 404 1171 q 497 1118 456 1118 z "},"Ã":{"ha":996,"x_min":3,"x_max":993,"o":"m 768 260 l 226 260 l 110 0 l 3 0 l 447 972 l 549 972 l 993 0 l 885 0 l 768 260 m 731 343 l 497 865 l 264 343 l 731 343 z "},"Æ":{"ha":1435,"x_min":3,"x_max":1351,"o":"m 1351 89 l 1351 0 l 665 0 l 665 260 l 267 260 l 110 0 l 3 0 l 596 972 l 1331 972 l 1331 883 l 767 883 l 767 538 l 1271 538 l 1271 450 l 767 450 l 767 89 l 1351 89 m 665 343 l 665 883 l 644 883 l 317 343 l 665 343 z "},"Ǽ":{"ha":1435,"x_min":3,"x_max":1351,"o":"m 1351 89 l 1351 0 l 665 0 l 665 260 l 267 260 l 110 0 l 3 0 l 596 972 l 1331 972 l 1331 883 l 767 883 l 767 538 l 1271 538 l 1271 450 l 767 450 l 767 89 l 1351 89 m 665 343 l 665 883 l 644 883 l 317 343 l 665 343 z "},"B":{"ha":1047,"x_min":158,"x_max":971,"o":"m 771 501 q 919 419 867 481 q 971 260 971 357 q 878 67 971 135 q 606 0 786 0 l 158 0 l 158 972 l 578 972 q 830 907 740 972 q 919 722 919 842 q 880 585 919 642 q 771 501 840 529 m 261 888 l 261 535 l 571 535 q 753 580 689 535 q 817 711 817 625 q 753 842 817 797 q 571 888 689 888 l 261 888 m 604 85 q 801 129 735 85 q 868 268 868 174 q 604 450 868 450 l 261 450 l 261 85 l 604 85 z "},"C":{"ha":999,"x_min":72,"x_max":938,"o":"m 581 -8 q 320 56 436 -8 q 138 233 204 119 q 72 486 72 346 q 138 740 72 626 q 321 917 204 853 q 582 981 438 981 q 782 944 690 981 q 938 839 874 908 l 872 774 q 585 889 758 889 q 375 836 469 889 q 227 692 281 783 q 174 486 174 600 q 227 281 174 372 q 375 136 281 189 q 585 83 469 83 q 872 200 760 83 l 938 135 q 781 28 874 65 q 581 -8 689 -8 z "},"Ć":{"ha":999,"x_min":72,"x_max":938,"o":"m 581 -8 q 320 56 436 -8 q 138 233 204 119 q 72 486 72 346 q 138 740 72 626 q 321 917 204 853 q 582 981 438 981 q 782 944 690 981 q 938 839 874 908 l 872 774 q 585 889 758 889 q 375 836 469 889 q 227 692 281 783 q 174 486 174 600 q 227 281 174 372 q 375 136 281 189 q 585 83 469 83 q 872 200 760 83 l 938 135 q 781 28 874 65 q 581 -8 689 -8 z "},"Č":{"ha":999,"x_min":72,"x_max":938,"o":"m 581 -8 q 320 56 436 -8 q 138 233 204 119 q 72 486 72 346 q 138 740 72 626 q 321 917 204 853 q 582 981 438 981 q 782 944 690 981 q 938 839 874 908 l 872 774 q 585 889 758 889 q 375 836 469 889 q 227 692 281 783 q 174 486 174 600 q 227 281 174 372 q 375 136 281 189 q 585 83 469 83 q 872 200 760 83 l 938 135 q 781 28 874 65 q 581 -8 689 -8 z "},"Ç":{"ha":999,"x_min":72,"x_max":938,"o":"m 585 83 q 872 200 760 83 l 938 135 q 784 29 875 65 q 586 -8 693 -7 l 569 -72 q 657 -108 626 -78 q 688 -185 688 -137 q 644 -273 688 -240 q 531 -306 601 -306 q 414 -274 463 -306 l 438 -221 q 529 -247 478 -247 q 593 -231 571 -247 q 615 -182 615 -214 q 594 -135 615 -153 q 529 -118 572 -118 l 497 -118 l 526 -6 q 292 72 396 6 q 131 247 189 139 q 72 486 72 354 q 138 740 72 626 q 321 917 204 853 q 582 981 438 981 q 782 944 690 981 q 938 839 874 908 l 872 774 q 585 889 758 889 q 375 836 469 889 q 227 692 281 783 q 174 486 174 600 q 227 281 174 372 q 375 136 281 189 q 585 83 469 83 z "},"Ḉ":{"ha":999,"x_min":72,"x_max":938,"o":"m 576 1051 l 479 1051 l 669 1224 l 801 1224 l 576 1051 m 585 83 q 872 200 760 83 l 938 135 q 784 29 875 65 q 586 -8 693 -7 l 569 -72 q 657 -108 626 -78 q 688 -185 688 -137 q 644 -273 688 -240 q 531 -306 601 -306 q 414 -274 463 -306 l 438 -221 q 529 -247 478 -247 q 593 -231 571 -247 q 615 -182 615 -214 q 594 -135 615 -153 q 529 -118 572 -118 l 497 -118 l 526 -6 q 292 72 396 6 q 131 247 189 139 q 72 486 72 354 q 138 740 72 626 q 321 917 204 853 q 582 981 438 981 q 782 944 690 981 q 938 839 874 908 l 872 774 q 585 889 758 889 q 375 836 469 889 q 227 692 281 783 q 174 486 174 600 q 227 281 174 372 q 375 136 281 189 q 585 83 469 83 z "},"Ĉ":{"ha":999,"x_min":72,"x_max":938,"o":"m 581 -8 q 320 56 436 -8 q 138 233 204 119 q 72 486 72 346 q 138 740 72 626 q 321 917 204 853 q 582 981 438 981 q 782 944 690 981 q 938 839 874 908 l 872 774 q 585 889 758 889 q 375 836 469 889 q 227 692 281 783 q 174 486 174 600 q 227 281 174 372 q 375 136 281 189 q 585 83 469 83 q 872 200 760 83 l 938 135 q 781 28 874 65 q 581 -8 689 -8 z "},"Ċ":{"ha":999,"x_min":72,"x_max":938,"o":"m 581 -8 q 320 56 436 -8 q 138 233 204 119 q 72 486 72 346 q 138 740 72 626 q 321 917 204 853 q 582 981 438 981 q 782 944 690 981 q 938 839 874 908 l 872 774 q 585 889 758 889 q 375 836 469 889 q 227 692 281 783 q 174 486 174 600 q 227 281 174 372 q 375 136 281 189 q 585 83 469 83 q 872 200 760 83 l 938 135 q 781 28 874 65 q 581 -8 689 -8 z "},"D":{"ha":1147,"x_min":158,"x_max":1075,"o":"m 158 972 l 554 972 q 826 910 708 972 q 1010 738 944 849 q 1075 486 1075 628 q 1010 234 1075 344 q 826 62 944 124 q 554 0 708 0 l 158 0 l 158 972 m 549 89 q 772 140 676 89 q 921 280 868 190 q 974 486 974 369 q 921 692 974 603 q 772 833 868 782 q 549 883 676 883 l 261 883 l 261 89 l 549 89 z "},"Ǆ":{"ha":2022,"x_min":158,"x_max":1968,"o":"m 158 972 l 554 972 q 826 910 708 972 q 1010 738 944 849 q 1075 486 1075 628 q 1010 234 1075 344 q 826 62 944 124 q 554 0 708 0 l 158 0 l 158 972 m 549 89 q 772 140 676 89 q 921 280 868 190 q 974 486 974 369 q 921 692 974 603 q 772 833 868 782 q 549 883 676 883 l 261 883 l 261 89 l 549 89 z "},"Ð":{"ha":1154,"x_min":18,"x_max":1082,"o":"m 561 972 q 833 910 715 972 q 1017 738 951 849 q 1082 486 1082 628 q 1017 234 1082 344 q 833 62 951 124 q 561 0 715 0 l 165 0 l 165 454 l 18 454 l 18 536 l 165 536 l 165 972 l 561 972 m 556 89 q 779 140 683 89 q 928 280 875 190 q 981 486 981 369 q 928 692 981 603 q 779 833 875 782 q 556 883 683 883 l 268 883 l 268 536 l 557 536 l 557 454 l 268 454 l 268 89 l 556 89 z "},"Ď":{"ha":1147,"x_min":158,"x_max":1075,"o":"m 158 972 l 554 972 q 826 910 708 972 q 1010 738 944 849 q 1075 486 1075 628 q 1010 234 1075 344 q 826 62 944 124 q 554 0 708 0 l 158 0 l 158 972 m 549 89 q 772 140 676 89 q 921 280 868 190 q 974 486 974 369 q 921 692 974 603 q 772 833 868 782 q 549 883 676 883 l 261 883 l 261 89 l 549 89 z "},"Đ":{"ha":1154,"x_min":18,"x_max":1082,"o":"m 561 972 q 833 910 715 972 q 1017 738 951 849 q 1082 486 1082 628 q 1017 234 1082 344 q 833 62 951 124 q 561 0 715 0 l 165 0 l 165 454 l 18 454 l 18 536 l 165 536 l 165 972 l 561 972 m 556 89 q 779 140 683 89 q 928 280 875 190 q 981 486 981 369 q 928 692 981 603 q 779 833 875 782 q 556 883 683 883 l 268 883 l 268 536 l 557 536 l 557 454 l 268 454 l 268 89 l 556 89 z "},"Ḍ":{"ha":1147,"x_min":158,"x_max":1075,"o":"m 158 972 l 554 972 q 826 910 708 972 q 1010 738 944 849 q 1075 486 1075 628 q 1010 234 1075 344 q 826 62 944 124 q 554 0 708 0 l 158 0 l 158 972 m 549 89 q 772 140 676 89 q 921 280 868 190 q 974 486 974 369 q 921 692 974 603 q 772 833 868 782 q 549 883 676 883 l 261 883 l 261 89 l 549 89 m 539 -264 q 497 -247 514 -264 q 479 -204 479 -231 q 497 -161 479 -178 q 539 -144 514 -144 q 581 -161 564 -144 q 599 -204 599 -178 q 581 -247 599 -231 q 539 -264 564 -264 z "},"Ḏ":{"ha":1147,"x_min":158,"x_max":1075,"o":"m 158 972 l 554 972 q 826 910 708 972 q 1010 738 944 849 q 1075 486 1075 628 q 1010 234 1075 344 q 826 62 944 124 q 554 0 708 0 l 158 0 l 158 972 m 549 89 q 772 140 676 89 q 921 280 868 190 q 974 486 974 369 q 921 692 974 603 q 772 833 868 782 q 549 883 676 883 l 261 883 l 261 89 l 549 89 m 325 -169 l 753 -169 l 753 -235 l 325 -235 l 325 -169 z "},"ǅ":{"ha":1857,"x_min":158,"x_max":1800,"o":"m 158 972 l 554 972 q 826 910 708 972 q 1010 738 944 849 q 1075 486 1075 628 q 1010 234 1075 344 q 826 62 944 124 q 554 0 708 0 l 158 0 l 158 972 m 549 89 q 772 140 676 89 q 921 280 868 190 q 974 486 974 369 q 921 692 974 603 q 772 833 868 782 q 549 883 676 883 l 261 883 l 261 89 l 549 89 z "},"E":{"ha":929,"x_min":158,"x_max":846,"o":"m 846 89 l 846 0 l 158 0 l 158 972 l 825 972 l 825 883 l 261 883 l 261 538 l 764 538 l 764 450 l 261 450 l 261 89 l 846 89 z "},"É":{"ha":929,"x_min":158,"x_max":846,"o":"m 846 89 l 846 0 l 158 0 l 158 972 l 825 972 l 825 883 l 261 883 l 261 538 l 764 538 l 764 450 l 261 450 l 261 89 l 846 89 z "},"Ĕ":{"ha":929,"x_min":158,"x_max":846,"o":"m 846 89 l 846 0 l 158 0 l 158 972 l 825 972 l 825 883 l 261 883 l 261 538 l 764 538 l 764 450 l 261 450 l 261 89 l 846 89 z "},"Ě":{"ha":929,"x_min":158,"x_max":846,"o":"m 846 89 l 846 0 l 158 0 l 158 972 l 825 972 l 825 883 l 261 883 l 261 538 l 764 538 l 764 450 l 261 450 l 261 89 l 846 89 z "},"Ḝ":{"ha":929,"x_min":158,"x_max":846,"o":"m 493 1044 q 344 1093 404 1044 q 282 1224 285 1142 l 351 1224 q 393 1138 353 1169 q 493 1106 433 1106 q 593 1138 553 1106 q 635 1224 633 1169 l 704 1224 q 642 1093 701 1142 q 493 1044 582 1044 m 538 0 l 519 -72 q 607 -108 576 -78 q 638 -185 638 -137 q 594 -273 638 -240 q 481 -306 551 -306 q 364 -274 413 -306 l 388 -221 q 479 -247 428 -247 q 543 -231 521 -247 q 565 -182 565 -214 q 544 -135 565 -153 q 479 -118 522 -118 l 447 -118 l 478 0 l 158 0 l 158 972 l 825 972 l 825 883 l 261 883 l 261 538 l 764 538 l 764 450 l 261 450 l 261 89 l 846 89 l 846 0 l 538 0 z "},"Ê":{"ha":929,"x_min":158,"x_max":846,"o":"m 846 89 l 846 0 l 158 0 l 158 972 l 825 972 l 825 883 l 261 883 l 261 538 l 764 538 l 764 450 l 261 450 l 261 89 l 846 89 z "},"Ế":{"ha":929,"x_min":158,"x_max":907,"o":"m 846 89 l 846 0 l 158 0 l 158 972 l 825 972 l 825 883 l 261 883 l 261 538 l 764 538 l 764 450 l 261 450 l 261 89 l 846 89 z "},"Ệ":{"ha":929,"x_min":158,"x_max":846,"o":"m 846 89 l 846 0 l 158 0 l 158 972 l 825 972 l 825 883 l 261 883 l 261 538 l 764 538 l 764 450 l 261 450 l 261 89 l 846 89 m 511 -264 q 469 -247 486 -264 q 451 -204 451 -231 q 469 -161 451 -178 q 511 -144 486 -144 q 553 -161 536 -144 q 571 -204 571 -178 q 553 -247 571 -231 q 511 -264 536 -264 z "},"Ề":{"ha":929,"x_min":158,"x_max":846,"o":"m 846 89 l 846 0 l 158 0 l 158 972 l 825 972 l 825 883 l 261 883 l 261 538 l 764 538 l 764 450 l 261 450 l 261 89 l 846 89 z "},"Ể":{"ha":929,"x_min":158,"x_max":846,"o":"m 846 89 l 846 0 l 158 0 l 158 972 l 825 972 l 825 883 l 261 883 l 261 538 l 764 538 l 764 450 l 261 450 l 261 89 l 846 89 z "},"Ễ":{"ha":929,"x_min":158,"x_max":846,"o":"m 846 89 l 846 0 l 158 0 l 158 972 l 825 972 l 825 883 l 261 883 l 261 538 l 764 538 l 764 450 l 261 450 l 261 89 l 846 89 z "},"Ȅ":{"ha":929,"x_min":158,"x_max":846,"o":"m 846 89 l 846 0 l 158 0 l 158 972 l 825 972 l 825 883 l 261 883 l 261 538 l 764 538 l 764 450 l 261 450 l 261 89 l 846 89 z "},"Ë":{"ha":929,"x_min":158,"x_max":846,"o":"m 846 89 l 846 0 l 158 0 l 158 972 l 825 972 l 825 883 l 261 883 l 261 538 l 764 538 l 764 450 l 261 450 l 261 89 l 846 89 z "},"Ė":{"ha":929,"x_min":158,"x_max":846,"o":"m 846 89 l 846 0 l 158 0 l 158 972 l 825 972 l 825 883 l 261 883 l 261 538 l 764 538 l 764 450 l 261 450 l 261 89 l 846 89 z "},"Ẹ":{"ha":929,"x_min":158,"x_max":846,"o":"m 846 89 l 846 0 l 158 0 l 158 972 l 825 972 l 825 883 l 261 883 l 261 538 l 764 538 l 764 450 l 261 450 l 261 89 l 846 89 m 511 -264 q 469 -247 486 -264 q 451 -204 451 -231 q 469 -161 451 -178 q 511 -144 486 -144 q 553 -161 536 -144 q 571 -204 571 -178 q 553 -247 571 -231 q 511 -264 536 -264 z "},"È":{"ha":929,"x_min":158,"x_max":846,"o":"m 846 89 l 846 0 l 158 0 l 158 972 l 825 972 l 825 883 l 261 883 l 261 538 l 764 538 l 764 450 l 261 450 l 261 89 l 846 89 z "},"Ẻ":{"ha":929,"x_min":158,"x_max":846,"o":"m 846 89 l 846 0 l 158 0 l 158 972 l 825 972 l 825 883 l 261 883 l 261 538 l 764 538 l 764 450 l 261 450 l 261 89 l 846 89 z "},"Ȇ":{"ha":929,"x_min":158,"x_max":846,"o":"m 846 89 l 846 0 l 158 0 l 158 972 l 825 972 l 825 883 l 261 883 l 261 538 l 764 538 l 764 450 l 261 450 l 261 89 l 846 89 z "},"Ē":{"ha":929,"x_min":158,"x_max":846,"o":"m 846 89 l 846 0 l 158 0 l 158 972 l 825 972 l 825 883 l 261 883 l 261 538 l 764 538 l 764 450 l 261 450 l 261 89 l 846 89 z "},"Ḗ":{"ha":929,"x_min":158,"x_max":846,"o":"m 846 89 l 846 0 l 158 0 l 158 972 l 825 972 l 825 883 l 261 883 l 261 538 l 764 538 l 764 450 l 261 450 l 261 89 l 846 89 z "},"Ḕ":{"ha":929,"x_min":158,"x_max":846,"o":"m 846 89 l 846 0 l 158 0 l 158 972 l 825 972 l 825 883 l 261 883 l 261 538 l 764 538 l 764 450 l 261 450 l 261 89 l 846 89 z "},"Ę":{"ha":929,"x_min":158,"x_max":875,"o":"m 875 -272 q 757 -306 825 -306 q 646 -269 688 -306 q 604 -174 604 -233 q 725 0 604 -72 l 158 0 l 158 972 l 825 972 l 825 883 l 261 883 l 261 538 l 764 538 l 764 450 l 261 450 l 261 89 l 846 89 l 846 0 q 676 -167 676 -75 q 701 -224 676 -204 q 767 -244 726 -244 q 853 -218 821 -244 l 875 -272 z "},"Ẽ":{"ha":929,"x_min":158,"x_max":846,"o":"m 846 89 l 846 0 l 158 0 l 158 972 l 825 972 l 825 883 l 261 883 l 261 538 l 764 538 l 764 450 l 261 450 l 261 89 l 846 89 z "},"Ʒ":{"ha":854,"x_min":44,"x_max":778,"o":"m 439 556 q 691 475 604 550 q 778 279 778 400 q 736 131 778 196 q 612 28 694 65 q 410 -8 529 -8 q 197 25 296 -8 q 44 114 99 58 l 85 194 q 221 113 135 144 q 407 82 307 82 q 605 134 535 82 q 675 279 675 186 q 605 422 675 371 q 394 474 535 474 l 322 474 l 322 546 l 614 885 l 81 885 l 81 972 l 735 972 l 735 901 l 439 556 z "},"Ǯ":{"ha":854,"x_min":44,"x_max":778,"o":"m 439 556 q 691 475 604 550 q 778 279 778 400 q 736 131 778 196 q 612 28 694 65 q 410 -8 529 -8 q 197 25 296 -8 q 44 114 99 58 l 85 194 q 221 113 135 144 q 407 82 307 82 q 605 134 535 82 q 675 279 675 186 q 605 422 675 371 q 394 474 535 474 l 322 474 l 322 546 l 614 885 l 81 885 l 81 972 l 735 972 l 735 901 l 439 556 z "},"F":{"ha":879,"x_min":158,"x_max":825,"o":"m 261 883 l 261 501 l 764 501 l 764 413 l 261 413 l 261 0 l 158 0 l 158 972 l 825 972 l 825 883 l 261 883 z "},"G":{"ha":1074,"x_min":72,"x_max":947,"o":"m 843 486 l 942 486 l 942 115 q 781 24 874 56 q 585 -8 688 -8 q 322 56 439 -8 q 139 233 206 119 q 72 486 72 346 q 139 740 72 626 q 322 917 206 853 q 586 981 439 981 q 790 945 697 981 q 947 840 883 910 l 883 775 q 590 889 768 889 q 377 837 472 889 q 228 692 282 785 q 174 486 174 600 q 228 281 174 372 q 376 136 282 189 q 589 83 471 83 q 843 158 739 83 l 843 486 z "},"Ğ":{"ha":1074,"x_min":72,"x_max":947,"o":"m 843 486 l 942 486 l 942 115 q 781 24 874 56 q 585 -8 688 -8 q 322 56 439 -8 q 139 233 206 119 q 72 486 72 346 q 139 740 72 626 q 322 917 206 853 q 586 981 439 981 q 790 945 697 981 q 947 840 883 910 l 883 775 q 590 889 768 889 q 377 837 472 889 q 228 692 282 785 q 174 486 174 600 q 228 281 174 372 q 376 136 282 189 q 589 83 471 83 q 843 158 739 83 l 843 486 z "},"Ǧ":{"ha":1074,"x_min":72,"x_max":947,"o":"m 843 486 l 942 486 l 942 115 q 781 24 874 56 q 585 -8 688 -8 q 322 56 439 -8 q 139 233 206 119 q 72 486 72 346 q 139 740 72 626 q 322 917 206 853 q 586 981 439 981 q 790 945 697 981 q 947 840 883 910 l 883 775 q 590 889 768 889 q 377 837 472 889 q 228 692 282 785 q 174 486 174 600 q 228 281 174 372 q 376 136 282 189 q 589 83 471 83 q 843 158 739 83 l 843 486 z "},"Ĝ":{"ha":1074,"x_min":72,"x_max":947,"o":"m 843 486 l 942 486 l 942 115 q 781 24 874 56 q 585 -8 688 -8 q 322 56 439 -8 q 139 233 206 119 q 72 486 72 346 q 139 740 72 626 q 322 917 206 853 q 586 981 439 981 q 790 945 697 981 q 947 840 883 910 l 883 775 q 590 889 768 889 q 377 837 472 889 q 228 692 282 785 q 174 486 174 600 q 228 281 174 372 q 376 136 282 189 q 589 83 471 83 q 843 158 739 83 l 843 486 z "},"Ģ":{"ha":1074,"x_min":72,"x_max":947,"o":"m 843 486 l 942 486 l 942 115 q 781 24 874 56 q 585 -8 688 -8 q 322 56 439 -8 q 139 233 206 119 q 72 486 72 346 q 139 740 72 626 q 322 917 206 853 q 586 981 439 981 q 790 945 697 981 q 947 840 883 910 l 883 775 q 590 889 768 889 q 377 837 472 889 q 228 692 282 785 q 174 486 174 600 q 228 281 174 372 q 376 136 282 189 q 589 83 471 83 q 843 158 739 83 l 843 486 m 561 -144 q 604 -160 588 -144 q 621 -199 621 -176 q 606 -261 621 -226 l 567 -364 l 513 -364 l 542 -250 q 512 -232 522 -246 q 501 -199 501 -218 q 518 -160 501 -175 q 561 -144 535 -144 z "},"Ġ":{"ha":1074,"x_min":72,"x_max":947,"o":"m 843 486 l 942 486 l 942 115 q 781 24 874 56 q 585 -8 688 -8 q 322 56 439 -8 q 139 233 206 119 q 72 486 72 346 q 139 740 72 626 q 322 917 206 853 q 586 981 439 981 q 790 945 697 981 q 947 840 883 910 l 883 775 q 590 889 768 889 q 377 837 472 889 q 228 692 282 785 q 174 486 174 600 q 228 281 174 372 q 376 136 282 189 q 589 83 471 83 q 843 158 739 83 l 843 486 z "},"Ḡ":{"ha":1074,"x_min":72,"x_max":947,"o":"m 843 486 l 942 486 l 942 115 q 781 24 874 56 q 585 -8 688 -8 q 322 56 439 -8 q 139 233 206 119 q 72 486 72 346 q 139 740 72 626 q 322 917 206 853 q 586 981 439 981 q 790 945 697 981 q 947 840 883 910 l 883 775 q 590 889 768 889 q 377 837 472 889 q 228 692 282 785 q 174 486 174 600 q 228 281 174 372 q 376 136 282 189 q 589 83 471 83 q 843 158 739 83 l 843 486 z "},"Ǥ":{"ha":1119,"x_min":72,"x_max":1088,"o":"m 1088 286 l 942 286 l 942 115 q 781 24 874 56 q 585 -8 688 -8 q 322 56 439 -8 q 139 233 206 119 q 72 486 72 346 q 139 740 72 626 q 322 917 206 853 q 586 981 439 981 q 790 945 697 981 q 947 840 883 910 l 883 775 q 590 889 768 889 q 377 837 472 889 q 228 692 282 785 q 174 486 174 600 q 228 281 174 372 q 376 136 282 189 q 589 83 471 83 q 843 158 739 83 l 843 286 l 565 286 l 565 369 l 843 369 l 843 486 l 942 486 l 942 369 l 1088 369 l 1088 286 z "},"H":{"ha":1129,"x_min":158,"x_max":971,"o":"m 971 972 l 971 0 l 869 0 l 869 449 l 261 449 l 261 0 l 158 0 l 158 972 l 261 972 l 261 539 l 869 539 l 869 972 l 971 972 z "},"Ħ":{"ha":1143,"x_min":17,"x_max":1124,"o":"m 1124 719 l 978 719 l 978 0 l 876 0 l 876 449 l 268 449 l 268 0 l 165 0 l 165 719 l 17 719 l 17 803 l 165 803 l 165 972 l 268 972 l 268 803 l 876 803 l 876 972 l 978 972 l 978 803 l 1124 803 l 1124 719 m 876 719 l 268 719 l 268 539 l 876 539 l 876 719 z "},"Ḫ":{"ha":1129,"x_min":158,"x_max":971,"o":"m 971 972 l 971 0 l 869 0 l 869 449 l 261 449 l 261 0 l 158 0 l 158 972 l 261 972 l 261 539 l 869 539 l 869 972 l 971 972 m 564 -285 q 415 -239 475 -285 q 353 -117 356 -193 l 419 -117 q 462 -197 421 -167 q 564 -228 503 -228 q 666 -197 625 -228 q 708 -117 707 -167 l 775 -117 q 713 -239 772 -193 q 564 -285 653 -285 z "},"Ȟ":{"ha":1129,"x_min":158,"x_max":971,"o":"m 971 972 l 971 0 l 869 0 l 869 449 l 261 449 l 261 0 l 158 0 l 158 972 l 261 972 l 261 539 l 869 539 l 869 972 l 971 972 z "},"Ĥ":{"ha":1129,"x_min":158,"x_max":971,"o":"m 971 972 l 971 0 l 869 0 l 869 449 l 261 449 l 261 0 l 158 0 l 158 972 l 261 972 l 261 539 l 869 539 l 869 972 l 971 972 z "},"Ḥ":{"ha":1129,"x_min":158,"x_max":971,"o":"m 971 972 l 971 0 l 869 0 l 869 449 l 261 449 l 261 0 l 158 0 l 158 972 l 261 972 l 261 539 l 869 539 l 869 972 l 971 972 m 564 -264 q 522 -247 539 -264 q 504 -204 504 -231 q 522 -161 504 -178 q 564 -144 539 -144 q 606 -161 589 -144 q 624 -204 624 -178 q 606 -247 624 -231 q 564 -264 589 -264 z "},"I":{"ha":419,"x_min":158,"x_max":261,"o":"m 158 972 l 261 972 l 261 0 l 158 0 l 158 972 z "},"Ĳ":{"ha":997,"x_min":136,"x_max":847,"o":"m 454 -8 q 281 17 364 -8 q 136 88 199 43 l 178 169 q 308 106 236 128 q 457 83 379 83 q 670 166 596 83 q 744 415 744 249 l 744 972 l 847 972 l 847 419 q 742 101 847 211 q 454 -8 636 -8 m 150 972 l 253 972 l 253 419 l 150 419 l 150 972 z "},"Í":{"ha":419,"x_min":119,"x_max":442,"o":"m 158 972 l 261 972 l 261 0 l 158 0 l 158 972 z "},"Ĭ":{"ha":419,"x_min":-1,"x_max":421,"o":"m 158 972 l 261 972 l 261 0 l 158 0 l 158 972 z "},"Î":{"ha":419,"x_min":-19,"x_max":439,"o":"m 158 972 l 261 972 l 261 0 l 158 0 l 158 972 z "},"Ȉ":{"ha":419,"x_min":-103,"x_max":367,"o":"m 158 972 l 261 972 l 261 0 l 158 0 l 158 972 z "},"Ï":{"ha":419,"x_min":26,"x_max":393,"o":"m 158 972 l 261 972 l 261 0 l 158 0 l 158 972 z "},"Ḯ":{"ha":419,"x_min":29,"x_max":413,"o":"m 158 972 l 261 972 l 261 0 l 158 0 l 158 972 z "},"İ":{"ha":419,"x_min":143,"x_max":276,"o":"m 158 972 l 261 972 l 261 0 l 158 0 l 158 972 z "},"Ị":{"ha":419,"x_min":150,"x_max":269,"o":"m 158 972 l 261 972 l 261 0 l 158 0 l 158 972 m 210 -264 q 167 -247 185 -264 q 150 -204 150 -231 q 167 -161 150 -178 q 210 -144 185 -144 q 252 -161 235 -144 q 269 -204 269 -178 q 252 -247 269 -231 q 210 -264 235 -264 z "},"Ì":{"ha":419,"x_min":-22,"x_max":300,"o":"m 158 972 l 261 972 l 261 0 l 158 0 l 158 972 z "},"Ỉ":{"ha":419,"x_min":92,"x_max":339,"o":"m 158 972 l 261 972 l 261 0 l 158 0 l 158 972 z "},"Ȋ":{"ha":419,"x_min":-1,"x_max":421,"o":"m 158 972 l 261 972 l 261 0 l 158 0 l 158 972 z "},"Ī":{"ha":419,"x_min":35,"x_max":385,"o":"m 158 972 l 261 972 l 261 0 l 158 0 l 158 972 z "},"Į":{"ha":419,"x_min":108,"x_max":314,"o":"m 314 -276 q 232 -306 285 -306 q 142 -271 176 -306 q 108 -179 108 -236 q 186 0 108 -85 l 158 0 l 158 972 l 261 972 l 261 0 q 197 -89 214 -49 q 181 -169 181 -129 q 199 -225 181 -204 q 243 -246 217 -246 q 294 -226 271 -246 l 314 -276 z "},"Ĩ":{"ha":419,"x_min":-10,"x_max":429,"o":"m 158 972 l 261 972 l 261 0 l 158 0 l 158 972 z "},"J":{"ha":696,"x_min":-7,"x_max":546,"o":"m 263 -8 q 108 28 179 -8 q -7 131 38 64 l 54 200 q 264 81 135 81 q 444 294 444 81 l 444 883 l 89 883 l 89 972 l 546 972 l 546 299 q 474 69 546 146 q 263 -8 403 -8 z "},"Ĵ":{"ha":696,"x_min":-7,"x_max":547,"o":"m 263 -8 q 108 28 179 -8 q -7 131 38 64 l 54 200 q 264 81 135 81 q 444 294 444 81 l 444 883 l 89 883 l 89 972 l 546 972 l 546 299 q 474 69 546 146 q 263 -8 403 -8 z "},"K":{"ha":988,"x_min":158,"x_max":979,"o":"m 460 457 l 261 256 l 261 0 l 158 0 l 158 972 l 261 972 l 261 385 l 832 972 l 950 972 l 529 532 l 979 0 l 857 0 l 460 457 z "},"Ǩ":{"ha":988,"x_min":158,"x_max":979,"o":"m 460 457 l 261 256 l 261 0 l 158 0 l 158 972 l 261 972 l 261 385 l 832 972 l 950 972 l 529 532 l 979 0 l 857 0 l 460 457 z "},"Ķ":{"ha":988,"x_min":158,"x_max":979,"o":"m 460 457 l 261 256 l 261 0 l 158 0 l 158 972 l 261 972 l 261 385 l 832 972 l 950 972 l 529 532 l 979 0 l 857 0 l 460 457 m 518 -144 q 561 -160 544 -144 q 578 -199 578 -176 q 563 -261 578 -226 l 524 -364 l 469 -364 l 499 -250 q 469 -232 479 -246 q 458 -199 458 -218 q 475 -160 458 -175 q 518 -144 492 -144 z "},"L":{"ha":818,"x_min":158,"x_max":806,"o":"m 158 972 l 261 972 l 261 89 l 806 89 l 806 0 l 158 0 l 158 972 z "},"Ǉ":{"ha":1514,"x_min":158,"x_max":1364,"o":"m 158 972 l 261 972 l 261 89 l 806 89 l 806 0 l 158 0 l 158 972 m 1081 -8 q 926 28 997 -8 q 811 131 856 64 l 872 200 q 1082 81 953 81 q 1263 294 1263 81 l 1263 883 l 907 883 l 907 972 l 1364 972 l 1364 299 q 1292 69 1364 146 q 1081 -8 1221 -8 z "},"Ĺ":{"ha":818,"x_min":119,"x_max":806,"o":"m 158 972 l 261 972 l 261 89 l 806 89 l 806 0 l 158 0 l 158 972 z "},"Ľ":{"ha":818,"x_min":158,"x_max":806,"o":"m 158 972 l 261 972 l 261 89 l 806 89 l 806 0 l 158 0 l 158 972 m 611 1013 l 694 1013 l 682 750 l 611 750 l 611 1013 z "},"Ļ":{"ha":818,"x_min":158,"x_max":806,"o":"m 158 972 l 261 972 l 261 89 l 806 89 l 806 0 l 158 0 l 158 972 m 497 -144 q 540 -160 524 -144 q 557 -199 557 -176 q 542 -261 557 -226 l 503 -364 l 449 -364 l 478 -250 q 448 -232 458 -246 q 438 -199 438 -218 q 454 -160 438 -175 q 497 -144 471 -144 z "},"Ŀ":{"ha":818,"x_min":158,"x_max":806,"o":"m 158 972 l 261 972 l 261 89 l 806 89 l 806 0 l 158 0 l 158 972 m 618 461 q 570 481 590 461 q 550 531 550 501 q 570 581 550 561 q 618 600 590 600 q 667 581 647 600 q 686 531 686 561 q 667 481 686 501 q 618 461 647 461 z "},"Ḷ":{"ha":818,"x_min":158,"x_max":806,"o":"m 158 972 l 261 972 l 261 89 l 806 89 l 806 0 l 158 0 l 158 972 m 497 -264 q 455 -247 472 -264 q 438 -204 438 -231 q 455 -161 438 -178 q 497 -144 472 -144 q 540 -161 522 -144 q 557 -204 557 -178 q 540 -247 557 -231 q 497 -264 522 -264 z "},"ǈ":{"ha":1199,"x_min":158,"x_max":1085,"o":"m 158 972 l 261 972 l 261 89 l 806 89 l 806 0 l 158 0 l 158 972 z "},"Ḻ":{"ha":818,"x_min":158,"x_max":806,"o":"m 158 972 l 261 972 l 261 89 l 806 89 l 806 0 l 158 0 l 158 972 m 283 -169 l 711 -169 l 711 -235 l 283 -235 l 283 -169 z "},"Ł":{"ha":825,"x_min":26,"x_max":813,"o":"m 813 89 l 813 0 l 165 0 l 165 429 l 72 360 l 26 418 l 165 522 l 165 972 l 268 972 l 268 600 l 432 724 l 479 664 l 268 506 l 268 89 l 813 89 z "},"M":{"ha":1326,"x_min":158,"x_max":1168,"o":"m 1168 972 l 1168 0 l 1069 0 l 1069 778 l 688 124 l 639 124 l 257 774 l 257 0 l 158 0 l 158 972 l 243 972 l 665 251 l 1083 972 l 1168 972 z "},"Ṃ":{"ha":1326,"x_min":158,"x_max":1168,"o":"m 1168 972 l 1168 0 l 1069 0 l 1069 778 l 688 124 l 639 124 l 257 774 l 257 0 l 158 0 l 158 972 l 243 972 l 665 251 l 1083 972 l 1168 972 m 663 -264 q 620 -247 638 -264 q 603 -204 603 -231 q 620 -161 603 -178 q 663 -144 638 -144 q 705 -161 688 -144 q 722 -204 722 -178 q 705 -247 722 -231 q 663 -264 688 -264 z "},"N":{"ha":1129,"x_min":158,"x_max":971,"o":"m 971 972 l 971 0 l 886 0 l 261 789 l 261 0 l 158 0 l 158 972 l 243 972 l 869 183 l 869 972 l 971 972 z "},"Ǌ":{"ha":1826,"x_min":158,"x_max":1675,"o":"m 971 972 l 971 0 l 886 0 l 261 789 l 261 0 l 158 0 l 158 972 l 243 972 l 869 183 l 869 972 l 971 972 m 1392 -8 q 1238 28 1308 -8 q 1122 131 1167 64 l 1183 200 q 1393 81 1264 81 q 1574 294 1574 81 l 1574 883 l 1218 883 l 1218 972 l 1675 972 l 1675 299 q 1603 69 1675 146 q 1392 -8 1532 -8 z "},"Ń":{"ha":1129,"x_min":158,"x_max":971,"o":"m 971 972 l 971 0 l 886 0 l 261 789 l 261 0 l 158 0 l 158 972 l 243 972 l 869 183 l 869 972 l 971 972 z "},"Ň":{"ha":1129,"x_min":158,"x_max":971,"o":"m 971 972 l 971 0 l 886 0 l 261 789 l 261 0 l 158 0 l 158 972 l 243 972 l 869 183 l 869 972 l 971 972 z "},"Ņ":{"ha":1129,"x_min":158,"x_max":971,"o":"m 971 972 l 971 0 l 886 0 l 261 789 l 261 0 l 158 0 l 158 972 l 243 972 l 869 183 l 869 972 l 971 972 m 564 -144 q 607 -160 590 -144 q 624 -199 624 -176 q 608 -261 624 -226 l 569 -364 l 515 -364 l 544 -250 q 515 -232 525 -246 q 504 -199 504 -218 q 521 -160 504 -175 q 564 -144 538 -144 z "},"Ṅ":{"ha":1129,"x_min":158,"x_max":971,"o":"m 971 972 l 971 0 l 886 0 l 261 789 l 261 0 l 158 0 l 158 972 l 243 972 l 869 183 l 869 972 l 971 972 z "},"Ṇ":{"ha":1129,"x_min":158,"x_max":971,"o":"m 971 972 l 971 0 l 886 0 l 261 789 l 261 0 l 158 0 l 158 972 l 243 972 l 869 183 l 869 972 l 971 972 m 564 -264 q 522 -247 539 -264 q 504 -204 504 -231 q 522 -161 504 -178 q 564 -144 539 -144 q 606 -161 589 -144 q 624 -204 624 -178 q 606 -247 624 -231 q 564 -264 589 -264 z "},"Ŋ":{"ha":1129,"x_min":158,"x_max":971,"o":"m 971 972 l 971 39 q 690 -276 971 -276 q 551 -245 615 -276 q 443 -157 486 -214 l 494 -85 q 690 -187 571 -187 q 824 -136 779 -187 q 869 21 868 -85 l 261 789 l 261 0 l 158 0 l 158 972 l 243 972 l 869 183 l 869 972 l 971 972 z "},"ǋ":{"ha":1510,"x_min":158,"x_max":1396,"o":"m 971 972 l 971 0 l 886 0 l 261 789 l 261 0 l 158 0 l 158 972 l 243 972 l 869 183 l 869 972 l 971 972 z "},"Ṉ":{"ha":1129,"x_min":158,"x_max":971,"o":"m 971 972 l 971 0 l 886 0 l 261 789 l 261 0 l 158 0 l 158 972 l 243 972 l 869 183 l 869 972 l 971 972 m 350 -169 l 778 -169 l 778 -235 l 350 -235 l 350 -169 z "},"Ñ":{"ha":1129,"x_min":158,"x_max":971,"o":"m 971 972 l 971 0 l 886 0 l 261 789 l 261 0 l 158 0 l 158 972 l 243 972 l 869 183 l 869 972 l 971 972 z "},"O":{"ha":1165,"x_min":72,"x_max":1093,"o":"m 583 -8 q 322 56 439 -8 q 138 233 204 121 q 72 486 72 346 q 138 739 72 626 q 322 916 204 851 q 583 981 439 981 q 844 917 728 981 q 1026 740 960 853 q 1093 486 1093 626 q 1026 233 1093 346 q 844 56 960 119 q 583 -8 728 -8 m 583 83 q 792 135 699 83 q 938 280 885 188 q 990 486 990 372 q 938 692 990 600 q 792 837 885 785 q 583 889 699 889 q 374 837 468 889 q 227 692 281 785 q 174 486 174 600 q 227 280 174 372 q 374 135 281 188 q 583 83 468 83 z "},"Ó":{"ha":1165,"x_min":72,"x_max":1093,"o":"m 583 -8 q 322 56 439 -8 q 138 233 204 121 q 72 486 72 346 q 138 739 72 626 q 322 916 204 851 q 583 981 439 981 q 844 917 728 981 q 1026 740 960 853 q 1093 486 1093 626 q 1026 233 1093 346 q 844 56 960 119 q 583 -8 728 -8 m 583 83 q 792 135 699 83 q 938 280 885 188 q 990 486 990 372 q 938 692 990 600 q 792 837 885 785 q 583 889 699 889 q 374 837 468 889 q 227 692 281 785 q 174 486 174 600 q 227 280 174 372 q 374 135 281 188 q 583 83 468 83 z "},"Ŏ":{"ha":1165,"x_min":72,"x_max":1093,"o":"m 583 -8 q 322 56 439 -8 q 138 233 204 121 q 72 486 72 346 q 138 739 72 626 q 322 916 204 851 q 583 981 439 981 q 844 917 728 981 q 1026 740 960 853 q 1093 486 1093 626 q 1026 233 1093 346 q 844 56 960 119 q 583 -8 728 -8 m 583 83 q 792 135 699 83 q 938 280 885 188 q 990 486 990 372 q 938 692 990 600 q 792 837 885 785 q 583 889 699 889 q 374 837 468 889 q 227 692 281 785 q 174 486 174 600 q 227 280 174 372 q 374 135 281 188 q 583 83 468 83 z "},"Ô":{"ha":1165,"x_min":72,"x_max":1093,"o":"m 583 -8 q 322 56 439 -8 q 138 233 204 121 q 72 486 72 346 q 138 739 72 626 q 322 916 204 851 q 583 981 439 981 q 844 917 728 981 q 1026 740 960 853 q 1093 486 1093 626 q 1026 233 1093 346 q 844 56 960 119 q 583 -8 728 -8 m 583 83 q 792 135 699 83 q 938 280 885 188 q 990 486 990 372 q 938 692 990 600 q 792 837 885 785 q 583 889 699 889 q 374 837 468 889 q 227 692 281 785 q 174 486 174 600 q 227 280 174 372 q 374 135 281 188 q 583 83 468 83 z "},"Ố":{"ha":1165,"x_min":72,"x_max":1093,"o":"m 583 -8 q 322 56 439 -8 q 138 233 204 121 q 72 486 72 346 q 138 739 72 626 q 322 916 204 851 q 583 981 439 981 q 844 917 728 981 q 1026 740 960 853 q 1093 486 1093 626 q 1026 233 1093 346 q 844 56 960 119 q 583 -8 728 -8 m 583 83 q 792 135 699 83 q 938 280 885 188 q 990 486 990 372 q 938 692 990 600 q 792 837 885 785 q 583 889 699 889 q 374 837 468 889 q 227 692 281 785 q 174 486 174 600 q 227 280 174 372 q 374 135 281 188 q 583 83 468 83 z "},"Ộ":{"ha":1165,"x_min":72,"x_max":1093,"o":"m 583 -8 q 322 56 439 -8 q 138 233 204 121 q 72 486 72 346 q 138 739 72 626 q 322 916 204 851 q 583 981 439 981 q 844 917 728 981 q 1026 740 960 853 q 1093 486 1093 626 q 1026 233 1093 346 q 844 56 960 119 q 583 -8 728 -8 m 583 83 q 792 135 699 83 q 938 280 885 188 q 990 486 990 372 q 938 692 990 600 q 792 837 885 785 q 583 889 699 889 q 374 837 468 889 q 227 692 281 785 q 174 486 174 600 q 227 280 174 372 q 374 135 281 188 q 583 83 468 83 m 583 -264 q 541 -247 558 -264 q 524 -204 524 -231 q 541 -161 524 -178 q 583 -144 558 -144 q 626 -161 608 -144 q 643 -204 643 -178 q 626 -247 643 -231 q 583 -264 608 -264 z "},"Ồ":{"ha":1165,"x_min":72,"x_max":1093,"o":"m 583 -8 q 322 56 439 -8 q 138 233 204 121 q 72 486 72 346 q 138 739 72 626 q 322 916 204 851 q 583 981 439 981 q 844 917 728 981 q 1026 740 960 853 q 1093 486 1093 626 q 1026 233 1093 346 q 844 56 960 119 q 583 -8 728 -8 m 583 83 q 792 135 699 83 q 938 280 885 188 q 990 486 990 372 q 938 692 990 600 q 792 837 885 785 q 583 889 699 889 q 374 837 468 889 q 227 692 281 785 q 174 486 174 600 q 227 280 174 372 q 374 135 281 188 q 583 83 468 83 z "},"Ổ":{"ha":1165,"x_min":72,"x_max":1093,"o":"m 583 -8 q 322 56 439 -8 q 138 233 204 121 q 72 486 72 346 q 138 739 72 626 q 322 916 204 851 q 583 981 439 981 q 844 917 728 981 q 1026 740 960 853 q 1093 486 1093 626 q 1026 233 1093 346 q 844 56 960 119 q 583 -8 728 -8 m 583 83 q 792 135 699 83 q 938 280 885 188 q 990 486 990 372 q 938 692 990 600 q 792 837 885 785 q 583 889 699 889 q 374 837 468 889 q 227 692 281 785 q 174 486 174 600 q 227 280 174 372 q 374 135 281 188 q 583 83 468 83 z "},"Ỗ":{"ha":1165,"x_min":72,"x_max":1093,"o":"m 583 -8 q 322 56 439 -8 q 138 233 204 121 q 72 486 72 346 q 138 739 72 626 q 322 916 204 851 q 583 981 439 981 q 844 917 728 981 q 1026 740 960 853 q 1093 486 1093 626 q 1026 233 1093 346 q 844 56 960 119 q 583 -8 728 -8 m 583 83 q 792 135 699 83 q 938 280 885 188 q 990 486 990 372 q 938 692 990 600 q 792 837 885 785 q 583 889 699 889 q 374 837 468 889 q 227 692 281 785 q 174 486 174 600 q 227 280 174 372 q 374 135 281 188 q 583 83 468 83 z "},"Ȍ":{"ha":1165,"x_min":72,"x_max":1093,"o":"m 583 -8 q 322 56 439 -8 q 138 233 204 121 q 72 486 72 346 q 138 739 72 626 q 322 916 204 851 q 583 981 439 981 q 844 917 728 981 q 1026 740 960 853 q 1093 486 1093 626 q 1026 233 1093 346 q 844 56 960 119 q 583 -8 728 -8 m 583 83 q 792 135 699 83 q 938 280 885 188 q 990 486 990 372 q 938 692 990 600 q 792 837 885 785 q 583 889 699 889 q 374 837 468 889 q 227 692 281 785 q 174 486 174 600 q 227 280 174 372 q 374 135 281 188 q 583 83 468 83 z "},"Ö":{"ha":1165,"x_min":72,"x_max":1093,"o":"m 583 -8 q 322 56 439 -8 q 138 233 204 121 q 72 486 72 346 q 138 739 72 626 q 322 916 204 851 q 583 981 439 981 q 844 917 728 981 q 1026 740 960 853 q 1093 486 1093 626 q 1026 233 1093 346 q 844 56 960 119 q 583 -8 728 -8 m 583 83 q 792 135 699 83 q 938 280 885 188 q 990 486 990 372 q 938 692 990 600 q 792 837 885 785 q 583 889 699 889 q 374 837 468 889 q 227 692 281 785 q 174 486 174 600 q 227 280 174 372 q 374 135 281 188 q 583 83 468 83 z "},"Ȫ":{"ha":1165,"x_min":72,"x_max":1093,"o":"m 583 -8 q 322 56 439 -8 q 138 233 204 121 q 72 486 72 346 q 138 739 72 626 q 322 916 204 851 q 583 981 439 981 q 844 917 728 981 q 1026 740 960 853 q 1093 486 1093 626 q 1026 233 1093 346 q 844 56 960 119 q 583 -8 728 -8 m 583 83 q 792 135 699 83 q 938 280 885 188 q 990 486 990 372 q 938 692 990 600 q 792 837 885 785 q 583 889 699 889 q 374 837 468 889 q 227 692 281 785 q 174 486 174 600 q 227 280 174 372 q 374 135 281 188 q 583 83 468 83 z "},"Ȱ":{"ha":1165,"x_min":72,"x_max":1093,"o":"m 583 -8 q 322 56 439 -8 q 138 233 204 121 q 72 486 72 346 q 138 739 72 626 q 322 916 204 851 q 583 981 439 981 q 844 917 728 981 q 1026 740 960 853 q 1093 486 1093 626 q 1026 233 1093 346 q 844 56 960 119 q 583 -8 728 -8 m 583 83 q 792 135 699 83 q 938 280 885 188 q 990 486 990 372 q 938 692 990 600 q 792 837 885 785 q 583 889 699 889 q 374 837 468 889 q 227 692 281 785 q 174 486 174 600 q 227 280 174 372 q 374 135 281 188 q 583 83 468 83 z "},"Ọ":{"ha":1165,"x_min":72,"x_max":1093,"o":"m 583 -8 q 322 56 439 -8 q 138 233 204 121 q 72 486 72 346 q 138 739 72 626 q 322 916 204 851 q 583 981 439 981 q 844 917 728 981 q 1026 740 960 853 q 1093 486 1093 626 q 1026 233 1093 346 q 844 56 960 119 q 583 -8 728 -8 m 583 83 q 792 135 699 83 q 938 280 885 188 q 990 486 990 372 q 938 692 990 600 q 792 837 885 785 q 583 889 699 889 q 374 837 468 889 q 227 692 281 785 q 174 486 174 600 q 227 280 174 372 q 374 135 281 188 q 583 83 468 83 m 583 -264 q 541 -247 558 -264 q 524 -204 524 -231 q 541 -161 524 -178 q 583 -144 558 -144 q 626 -161 608 -144 q 643 -204 643 -178 q 626 -247 643 -231 q 583 -264 608 -264 z "},"Ò":{"ha":1165,"x_min":72,"x_max":1093,"o":"m 583 -8 q 322 56 439 -8 q 138 233 204 121 q 72 486 72 346 q 138 739 72 626 q 322 916 204 851 q 583 981 439 981 q 844 917 728 981 q 1026 740 960 853 q 1093 486 1093 626 q 1026 233 1093 346 q 844 56 960 119 q 583 -8 728 -8 m 583 83 q 792 135 699 83 q 938 280 885 188 q 990 486 990 372 q 938 692 990 600 q 792 837 885 785 q 583 889 699 889 q 374 837 468 889 q 227 692 281 785 q 174 486 174 600 q 227 280 174 372 q 374 135 281 188 q 583 83 468 83 z "},"Ỏ":{"ha":1165,"x_min":72,"x_max":1093,"o":"m 583 -8 q 322 56 439 -8 q 138 233 204 121 q 72 486 72 346 q 138 739 72 626 q 322 916 204 851 q 583 981 439 981 q 844 917 728 981 q 1026 740 960 853 q 1093 486 1093 626 q 1026 233 1093 346 q 844 56 960 119 q 583 -8 728 -8 m 583 83 q 792 135 699 83 q 938 280 885 188 q 990 486 990 372 q 938 692 990 600 q 792 837 885 785 q 583 889 699 889 q 374 837 468 889 q 227 692 281 785 q 174 486 174 600 q 227 280 174 372 q 374 135 281 188 q 583 83 468 83 z "},"Ơ":{"ha":1165,"x_min":72,"x_max":1093,"o":"m 876 894 q 1035 724 978 832 q 1093 486 1093 615 q 1026 233 1093 346 q 844 56 960 119 q 583 -8 728 -8 q 322 56 439 -8 q 138 233 204 121 q 72 486 72 346 q 139 740 72 626 q 323 917 206 853 q 586 981 440 981 q 746 969 651 981 q 861 961 826 961 q 999 1067 999 961 q 971 1156 999 1110 l 1036 1181 q 1072 1064 1072 1129 q 1022 942 1072 986 q 876 894 971 899 m 583 83 q 792 136 699 83 q 938 281 885 189 q 990 486 990 374 q 938 691 990 599 q 792 836 885 783 q 583 889 699 889 q 374 836 468 889 q 227 692 281 783 q 174 486 174 600 q 227 281 174 372 q 374 136 281 189 q 583 83 468 83 z "},"Ớ":{"ha":1165,"x_min":72,"x_max":1093,"o":"m 876 894 q 1035 724 978 832 q 1093 486 1093 615 q 1026 233 1093 346 q 844 56 960 119 q 583 -8 728 -8 q 322 56 439 -8 q 138 233 204 121 q 72 486 72 346 q 139 740 72 626 q 323 917 206 853 q 586 981 440 981 q 746 969 651 981 q 861 961 826 961 q 999 1067 999 961 q 971 1156 999 1110 l 1036 1181 q 1072 1064 1072 1129 q 1022 942 1072 986 q 876 894 971 899 m 583 83 q 792 136 699 83 q 938 281 885 189 q 990 486 990 374 q 938 691 990 599 q 792 836 885 783 q 583 889 699 889 q 374 836 468 889 q 227 692 281 783 q 174 486 174 600 q 227 281 174 372 q 374 136 281 189 q 583 83 468 83 z "},"Ợ":{"ha":1165,"x_min":72,"x_max":1093,"o":"m 876 894 q 1035 724 978 832 q 1093 486 1093 615 q 1026 233 1093 346 q 844 56 960 119 q 583 -8 728 -8 q 322 56 439 -8 q 138 233 204 121 q 72 486 72 346 q 139 740 72 626 q 323 917 206 853 q 586 981 440 981 q 746 969 651 981 q 861 961 826 961 q 999 1067 999 961 q 971 1156 999 1110 l 1036 1181 q 1072 1064 1072 1129 q 1022 942 1072 986 q 876 894 971 899 m 583 83 q 792 136 699 83 q 938 281 885 189 q 990 486 990 374 q 938 691 990 599 q 792 836 885 783 q 583 889 699 889 q 374 836 468 889 q 227 692 281 783 q 174 486 174 600 q 227 281 174 372 q 374 136 281 189 q 583 83 468 83 m 583 -264 q 541 -247 558 -264 q 524 -204 524 -231 q 541 -161 524 -178 q 583 -144 558 -144 q 626 -161 608 -144 q 643 -204 643 -178 q 626 -247 643 -231 q 583 -264 608 -264 z "},"Ờ":{"ha":1165,"x_min":72,"x_max":1093,"o":"m 876 894 q 1035 724 978 832 q 1093 486 1093 615 q 1026 233 1093 346 q 844 56 960 119 q 583 -8 728 -8 q 322 56 439 -8 q 138 233 204 121 q 72 486 72 346 q 139 740 72 626 q 323 917 206 853 q 586 981 440 981 q 746 969 651 981 q 861 961 826 961 q 999 1067 999 961 q 971 1156 999 1110 l 1036 1181 q 1072 1064 1072 1129 q 1022 942 1072 986 q 876 894 971 899 m 583 83 q 792 136 699 83 q 938 281 885 189 q 990 486 990 374 q 938 691 990 599 q 792 836 885 783 q 583 889 699 889 q 374 836 468 889 q 227 692 281 783 q 174 486 174 600 q 227 281 174 372 q 374 136 281 189 q 583 83 468 83 z "},"Ở":{"ha":1165,"x_min":72,"x_max":1093,"o":"m 876 894 q 1035 724 978 832 q 1093 486 1093 615 q 1026 233 1093 346 q 844 56 960 119 q 583 -8 728 -8 q 322 56 439 -8 q 138 233 204 121 q 72 486 72 346 q 139 740 72 626 q 323 917 206 853 q 586 981 440 981 q 746 969 651 981 q 861 961 826 961 q 999 1067 999 961 q 971 1156 999 1110 l 1036 1181 q 1072 1064 1072 1129 q 1022 942 1072 986 q 876 894 971 899 m 583 83 q 792 136 699 83 q 938 281 885 189 q 990 486 990 374 q 938 691 990 599 q 792 836 885 783 q 583 889 699 889 q 374 836 468 889 q 227 692 281 783 q 174 486 174 600 q 227 281 174 372 q 374 136 281 189 q 583 83 468 83 z "},"Ỡ":{"ha":1165,"x_min":72,"x_max":1093,"o":"m 876 894 q 1035 724 978 832 q 1093 486 1093 615 q 1026 233 1093 346 q 844 56 960 119 q 583 -8 728 -8 q 322 56 439 -8 q 138 233 204 121 q 72 486 72 346 q 139 740 72 626 q 323 917 206 853 q 586 981 440 981 q 746 969 651 981 q 861 961 826 961 q 999 1067 999 961 q 971 1156 999 1110 l 1036 1181 q 1072 1064 1072 1129 q 1022 942 1072 986 q 876 894 971 899 m 583 83 q 792 136 699 83 q 938 281 885 189 q 990 486 990 374 q 938 691 990 599 q 792 836 885 783 q 583 889 699 889 q 374 836 468 889 q 227 692 281 783 q 174 486 174 600 q 227 281 174 372 q 374 136 281 189 q 583 83 468 83 z "},"Ő":{"ha":1165,"x_min":72,"x_max":1093,"o":"m 583 -8 q 322 56 439 -8 q 138 233 204 121 q 72 486 72 346 q 138 739 72 626 q 322 916 204 851 q 583 981 439 981 q 844 917 728 981 q 1026 740 960 853 q 1093 486 1093 626 q 1026 233 1093 346 q 844 56 960 119 q 583 -8 728 -8 m 583 83 q 792 135 699 83 q 938 280 885 188 q 990 486 990 372 q 938 692 990 600 q 792 837 885 785 q 583 889 699 889 q 374 837 468 889 q 227 692 281 785 q 174 486 174 600 q 227 280 174 372 q 374 135 281 188 q 583 83 468 83 z "},"Ȏ":{"ha":1165,"x_min":72,"x_max":1093,"o":"m 583 -8 q 322 56 439 -8 q 138 233 204 121 q 72 486 72 346 q 138 739 72 626 q 322 916 204 851 q 583 981 439 981 q 844 917 728 981 q 1026 740 960 853 q 1093 486 1093 626 q 1026 233 1093 346 q 844 56 960 119 q 583 -8 728 -8 m 583 83 q 792 135 699 83 q 938 280 885 188 q 990 486 990 372 q 938 692 990 600 q 792 837 885 785 q 583 889 699 889 q 374 837 468 889 q 227 692 281 785 q 174 486 174 600 q 227 280 174 372 q 374 135 281 188 q 583 83 468 83 z "},"Ō":{"ha":1165,"x_min":72,"x_max":1093,"o":"m 583 -8 q 322 56 439 -8 q 138 233 204 121 q 72 486 72 346 q 138 739 72 626 q 322 916 204 851 q 583 981 439 981 q 844 917 728 981 q 1026 740 960 853 q 1093 486 1093 626 q 1026 233 1093 346 q 844 56 960 119 q 583 -8 728 -8 m 583 83 q 792 135 699 83 q 938 280 885 188 q 990 486 990 372 q 938 692 990 600 q 792 837 885 785 q 583 889 699 889 q 374 837 468 889 q 227 692 281 785 q 174 486 174 600 q 227 280 174 372 q 374 135 281 188 q 583 83 468 83 z "},"Ṓ":{"ha":1165,"x_min":72,"x_max":1093,"o":"m 583 -8 q 322 56 439 -8 q 138 233 204 121 q 72 486 72 346 q 138 739 72 626 q 322 916 204 851 q 583 981 439 981 q 844 917 728 981 q 1026 740 960 853 q 1093 486 1093 626 q 1026 233 1093 346 q 844 56 960 119 q 583 -8 728 -8 m 583 83 q 792 135 699 83 q 938 280 885 188 q 990 486 990 372 q 938 692 990 600 q 792 837 885 785 q 583 889 699 889 q 374 837 468 889 q 227 692 281 785 q 174 486 174 600 q 227 280 174 372 q 374 135 281 188 q 583 83 468 83 z "},"Ṑ":{"ha":1165,"x_min":72,"x_max":1093,"o":"m 583 -8 q 322 56 439 -8 q 138 233 204 121 q 72 486 72 346 q 138 739 72 626 q 322 916 204 851 q 583 981 439 981 q 844 917 728 981 q 1026 740 960 853 q 1093 486 1093 626 q 1026 233 1093 346 q 844 56 960 119 q 583 -8 728 -8 m 583 83 q 792 135 699 83 q 938 280 885 188 q 990 486 990 372 q 938 692 990 600 q 792 837 885 785 q 583 889 699 889 q 374 837 468 889 q 227 692 281 785 q 174 486 174 600 q 227 280 174 372 q 374 135 281 188 q 583 83 468 83 z "},"Ǫ":{"ha":1165,"x_min":72,"x_max":1093,"o":"m 583 981 q 844 917 728 981 q 1026 740 960 853 q 1093 486 1093 626 q 1043 264 1093 364 q 908 99 993 164 q 717 8 822 33 q 567 -62 625 -14 q 508 -167 508 -110 q 533 -224 508 -204 q 599 -244 558 -244 q 683 -218 651 -244 l 707 -272 q 589 -306 657 -306 q 477 -270 518 -306 q 436 -174 436 -235 q 544 -7 436 -76 q 301 67 408 1 q 133 242 194 133 q 72 486 72 351 q 139 740 72 626 q 322 917 206 853 q 583 981 439 981 m 583 83 q 792 135 699 83 q 938 280 885 188 q 990 486 990 372 q 938 692 990 600 q 792 837 885 785 q 583 889 699 889 q 374 837 468 889 q 227 692 281 785 q 174 486 174 600 q 227 280 174 372 q 374 135 281 188 q 583 83 468 83 z "},"Ø":{"ha":1165,"x_min":72,"x_max":1093,"o":"m 906 876 q 1044 708 994 808 q 1093 486 1093 607 q 1026 233 1093 346 q 844 56 960 119 q 583 -8 728 -8 q 317 58 435 -8 l 204 -97 l 121 -97 l 260 96 q 122 265 171 164 q 72 486 72 365 q 138 739 72 626 q 322 916 204 851 q 583 981 439 981 q 850 913 729 981 l 964 1069 l 1046 1069 l 906 876 m 174 486 q 211 310 174 390 q 317 174 249 229 l 794 835 q 583 889 699 889 q 374 837 468 889 q 227 692 281 785 q 174 486 174 600 m 583 83 q 792 135 699 83 q 938 280 885 188 q 990 486 990 372 q 953 661 990 581 q 850 797 917 742 l 372 136 q 583 83 469 83 z "},"Ǿ":{"ha":1165,"x_min":72,"x_max":1093,"o":"m 906 876 q 1044 708 994 808 q 1093 486 1093 607 q 1026 233 1093 346 q 844 56 960 119 q 583 -8 728 -8 q 317 58 435 -8 l 204 -97 l 121 -97 l 260 96 q 122 265 171 164 q 72 486 72 365 q 138 739 72 626 q 322 916 204 851 q 583 981 439 981 q 850 913 729 981 l 964 1069 l 1046 1069 l 906 876 m 174 486 q 211 310 174 390 q 317 174 249 229 l 794 835 q 583 889 699 889 q 374 837 468 889 q 227 692 281 785 q 174 486 174 600 m 583 83 q 792 135 699 83 q 938 280 885 188 q 990 486 990 372 q 953 661 990 581 q 850 797 917 742 l 372 136 q 583 83 469 83 z "},"Õ":{"ha":1165,"x_min":72,"x_max":1093,"o":"m 583 -8 q 322 56 439 -8 q 138 233 204 121 q 72 486 72 346 q 138 739 72 626 q 322 916 204 851 q 583 981 439 981 q 844 917 728 981 q 1026 740 960 853 q 1093 486 1093 626 q 1026 233 1093 346 q 844 56 960 119 q 583 -8 728 -8 m 583 83 q 792 135 699 83 q 938 280 885 188 q 990 486 990 372 q 938 692 990 600 q 792 837 885 785 q 583 889 699 889 q 374 837 468 889 q 227 692 281 785 q 174 486 174 600 q 227 280 174 372 q 374 135 281 188 q 583 83 468 83 z "},"Ṍ":{"ha":1165,"x_min":72,"x_max":1093,"o":"m 583 -8 q 322 56 439 -8 q 138 233 204 121 q 72 486 72 346 q 138 739 72 626 q 322 916 204 851 q 583 981 439 981 q 844 917 728 981 q 1026 740 960 853 q 1093 486 1093 626 q 1026 233 1093 346 q 844 56 960 119 q 583 -8 728 -8 m 583 83 q 792 135 699 83 q 938 280 885 188 q 990 486 990 372 q 938 692 990 600 q 792 837 885 785 q 583 889 699 889 q 374 837 468 889 q 227 692 281 785 q 174 486 174 600 q 227 280 174 372 q 374 135 281 188 q 583 83 468 83 z "},"Ṏ":{"ha":1165,"x_min":72,"x_max":1093,"o":"m 583 -8 q 322 56 439 -8 q 138 233 204 121 q 72 486 72 346 q 138 739 72 626 q 322 916 204 851 q 583 981 439 981 q 844 917 728 981 q 1026 740 960 853 q 1093 486 1093 626 q 1026 233 1093 346 q 844 56 960 119 q 583 -8 728 -8 m 583 83 q 792 135 699 83 q 938 280 885 188 q 990 486 990 372 q 938 692 990 600 q 792 837 885 785 q 583 889 699 889 q 374 837 468 889 q 227 692 281 785 q 174 486 174 600 q 227 280 174 372 q 374 135 281 188 q 583 83 468 83 z "},"Ȭ":{"ha":1165,"x_min":72,"x_max":1093,"o":"m 583 -8 q 322 56 439 -8 q 138 233 204 121 q 72 486 72 346 q 138 739 72 626 q 322 916 204 851 q 583 981 439 981 q 844 917 728 981 q 1026 740 960 853 q 1093 486 1093 626 q 1026 233 1093 346 q 844 56 960 119 q 583 -8 728 -8 m 583 83 q 792 135 699 83 q 938 280 885 188 q 990 486 990 372 q 938 692 990 600 q 792 837 885 785 q 583 889 699 889 q 374 837 468 889 q 227 692 281 785 q 174 486 174 600 q 227 280 174 372 q 374 135 281 188 q 583 83 468 83 z "},"Œ":{"ha":1557,"x_min":72,"x_max":1474,"o":"m 1474 89 l 1474 0 l 593 0 q 322 62 440 0 q 138 233 203 124 q 72 485 72 343 q 138 738 72 628 q 321 910 203 849 q 593 972 439 972 l 1453 972 l 1453 883 l 889 883 l 889 538 l 1392 538 l 1392 450 l 889 450 l 889 89 l 1474 89 m 786 89 l 786 883 l 597 883 q 374 833 471 883 q 226 692 278 782 q 174 485 174 601 q 226 279 174 369 q 374 139 278 189 q 597 89 471 89 l 786 89 z "},"P":{"ha":997,"x_min":158,"x_max":919,"o":"m 522 972 q 814 883 708 972 q 919 639 919 794 q 814 395 919 483 q 522 307 708 307 l 261 307 l 261 0 l 158 0 l 158 972 l 522 972 m 519 397 q 740 460 664 397 q 817 639 817 524 q 740 820 817 757 q 519 883 664 883 l 261 883 l 261 397 l 519 397 z "},"Þ":{"ha":997,"x_min":158,"x_max":919,"o":"m 522 846 q 814 757 708 846 q 919 513 919 668 q 814 268 919 357 q 522 179 708 179 l 261 179 l 261 0 l 158 0 l 158 972 l 261 972 l 261 846 l 522 846 m 519 269 q 740 333 664 269 q 817 513 817 396 q 740 694 817 631 q 519 757 664 757 l 261 757 l 261 269 l 519 269 z "},"Q":{"ha":1165,"x_min":72,"x_max":1138,"o":"m 1138 -82 q 1033 -165 1093 -136 q 901 -193 972 -193 q 738 -151 815 -193 q 565 -8 661 -108 q 313 61 425 -4 q 136 238 200 126 q 72 486 72 349 q 138 739 72 626 q 322 916 204 851 q 583 981 439 981 q 844 917 728 981 q 1026 740 960 853 q 1093 486 1093 626 q 1042 262 1093 364 q 901 92 992 160 q 692 1 810 24 q 903 -111 799 -111 q 1088 -22 1011 -111 l 1138 -82 m 174 486 q 227 281 174 372 q 374 136 281 189 q 583 83 468 83 q 792 136 699 83 q 938 281 885 189 q 990 486 990 372 q 938 692 990 600 q 792 836 885 783 q 583 889 699 889 q 374 836 468 889 q 227 692 281 783 q 174 486 174 600 z "},"R":{"ha":1004,"x_min":158,"x_max":935,"o":"m 822 0 l 600 313 q 522 308 563 308 l 261 308 l 261 0 l 158 0 l 158 972 l 522 972 q 814 883 708 972 q 919 639 919 794 q 862 447 919 525 q 697 333 804 368 l 935 0 l 822 0 m 519 396 q 740 460 664 396 q 817 639 817 524 q 740 820 817 757 q 519 883 664 883 l 261 883 l 261 396 l 519 396 z "},"Ŕ":{"ha":1004,"x_min":158,"x_max":935,"o":"m 822 0 l 600 313 q 522 308 563 308 l 261 308 l 261 0 l 158 0 l 158 972 l 522 972 q 814 883 708 972 q 919 639 919 794 q 862 447 919 525 q 697 333 804 368 l 935 0 l 822 0 m 519 396 q 740 460 664 396 q 817 639 817 524 q 740 820 817 757 q 519 883 664 883 l 261 883 l 261 396 l 519 396 z "},"Ř":{"ha":1004,"x_min":158,"x_max":935,"o":"m 822 0 l 600 313 q 522 308 563 308 l 261 308 l 261 0 l 158 0 l 158 972 l 522 972 q 814 883 708 972 q 919 639 919 794 q 862 447 919 525 q 697 333 804 368 l 935 0 l 822 0 m 519 396 q 740 460 664 396 q 817 639 817 524 q 740 820 817 757 q 519 883 664 883 l 261 883 l 261 396 l 519 396 z "},"Ŗ":{"ha":1004,"x_min":158,"x_max":935,"o":"m 822 0 l 600 313 q 522 308 563 308 l 261 308 l 261 0 l 158 0 l 158 972 l 522 972 q 814 883 708 972 q 919 639 919 794 q 862 447 919 525 q 697 333 804 368 l 935 0 l 822 0 m 519 396 q 740 460 664 396 q 817 639 817 524 q 740 820 817 757 q 519 883 664 883 l 261 883 l 261 396 l 519 396 m 513 -144 q 556 -160 539 -144 q 572 -199 572 -176 q 557 -261 572 -226 l 518 -364 l 464 -364 l 493 -250 q 463 -232 474 -246 q 453 -199 453 -218 q 469 -160 453 -175 q 513 -144 486 -144 z "},"Ȑ":{"ha":1004,"x_min":158,"x_max":935,"o":"m 822 0 l 600 313 q 522 308 563 308 l 261 308 l 261 0 l 158 0 l 158 972 l 522 972 q 814 883 708 972 q 919 639 919 794 q 862 447 919 525 q 697 333 804 368 l 935 0 l 822 0 m 519 396 q 740 460 664 396 q 817 639 817 524 q 740 820 817 757 q 519 883 664 883 l 261 883 l 261 396 l 519 396 z "},"Ṛ":{"ha":1004,"x_min":158,"x_max":935,"o":"m 822 0 l 600 313 q 522 308 563 308 l 261 308 l 261 0 l 158 0 l 158 972 l 522 972 q 814 883 708 972 q 919 639 919 794 q 862 447 919 525 q 697 333 804 368 l 935 0 l 822 0 m 519 396 q 740 460 664 396 q 817 639 817 524 q 740 820 817 757 q 519 883 664 883 l 261 883 l 261 396 l 519 396 m 513 -264 q 470 -247 488 -264 q 453 -204 453 -231 q 470 -161 453 -178 q 513 -144 488 -144 q 555 -161 538 -144 q 572 -204 572 -178 q 555 -247 572 -231 q 513 -264 538 -264 z "},"Ȓ":{"ha":1004,"x_min":158,"x_max":935,"o":"m 822 0 l 600 313 q 522 308 563 308 l 261 308 l 261 0 l 158 0 l 158 972 l 522 972 q 814 883 708 972 q 919 639 919 794 q 862 447 919 525 q 697 333 804 368 l 935 0 l 822 0 m 519 396 q 740 460 664 396 q 817 639 817 524 q 740 820 817 757 q 519 883 664 883 l 261 883 l 261 396 l 519 396 z "},"Ṟ":{"ha":1004,"x_min":158,"x_max":935,"o":"m 822 0 l 600 313 q 522 308 563 308 l 261 308 l 261 0 l 158 0 l 158 972 l 522 972 q 814 883 708 972 q 919 639 919 794 q 862 447 919 525 q 697 333 804 368 l 935 0 l 822 0 m 519 396 q 740 460 664 396 q 817 639 817 524 q 740 820 817 757 q 519 883 664 883 l 261 883 l 261 396 l 519 396 m 299 -169 l 726 -169 l 726 -235 l 299 -235 l 299 -169 z "},"S":{"ha":854,"x_min":65,"x_max":789,"o":"m 426 -8 q 219 26 318 -8 q 65 118 119 61 l 106 197 q 246 112 158 144 q 426 79 333 79 q 622 127 557 79 q 688 251 688 175 q 652 344 688 310 q 565 398 617 379 q 422 439 514 417 q 247 492 313 467 q 135 571 182 518 q 89 714 89 624 q 128 848 89 788 q 247 944 167 908 q 447 981 328 981 q 610 958 531 981 q 749 894 690 935 l 714 813 q 583 873 653 853 q 447 893 514 893 q 255 844 319 893 q 190 717 190 794 q 226 623 190 658 q 315 569 261 588 q 458 528 368 550 q 631 476 565 501 q 743 398 697 450 q 789 257 789 346 q 749 123 789 183 q 628 27 710 63 q 426 -8 546 -8 z "},"Ś":{"ha":854,"x_min":65,"x_max":789,"o":"m 426 -8 q 219 26 318 -8 q 65 118 119 61 l 106 197 q 246 112 158 144 q 426 79 333 79 q 622 127 557 79 q 688 251 688 175 q 652 344 688 310 q 565 398 617 379 q 422 439 514 417 q 247 492 313 467 q 135 571 182 518 q 89 714 89 624 q 128 848 89 788 q 247 944 167 908 q 447 981 328 981 q 610 958 531 981 q 749 894 690 935 l 714 813 q 583 873 653 853 q 447 893 514 893 q 255 844 319 893 q 190 717 190 794 q 226 623 190 658 q 315 569 261 588 q 458 528 368 550 q 631 476 565 501 q 743 398 697 450 q 789 257 789 346 q 749 123 789 183 q 628 27 710 63 q 426 -8 546 -8 z "},"Ṥ":{"ha":854,"x_min":65,"x_max":789,"o":"m 426 -8 q 219 26 318 -8 q 65 118 119 61 l 106 197 q 246 112 158 144 q 426 79 333 79 q 622 127 557 79 q 688 251 688 175 q 652 344 688 310 q 565 398 617 379 q 422 439 514 417 q 247 492 313 467 q 135 571 182 518 q 89 714 89 624 q 128 848 89 788 q 247 944 167 908 q 447 981 328 981 q 610 958 531 981 q 749 894 690 935 l 714 813 q 583 873 653 853 q 447 893 514 893 q 255 844 319 893 q 190 717 190 794 q 226 623 190 658 q 315 569 261 588 q 458 528 368 550 q 631 476 565 501 q 743 398 697 450 q 789 257 789 346 q 749 123 789 183 q 628 27 710 63 q 426 -8 546 -8 z "},"Ꞌ":{"ha":335,"x_min":117,"x_max":218,"o":"m 117 972 l 218 972 l 207 414 l 117 414 l 117 972 z "},"Š":{"ha":854,"x_min":65,"x_max":789,"o":"m 426 -8 q 219 26 318 -8 q 65 118 119 61 l 106 197 q 246 112 158 144 q 426 79 333 79 q 622 127 557 79 q 688 251 688 175 q 652 344 688 310 q 565 398 617 379 q 422 439 514 417 q 247 492 313 467 q 135 571 182 518 q 89 714 89 624 q 128 848 89 788 q 247 944 167 908 q 447 981 328 981 q 610 958 531 981 q 749 894 690 935 l 714 813 q 583 873 653 853 q 447 893 514 893 q 255 844 319 893 q 190 717 190 794 q 226 623 190 658 q 315 569 261 588 q 458 528 368 550 q 631 476 565 501 q 743 398 697 450 q 789 257 789 346 q 749 123 789 183 q 628 27 710 63 q 426 -8 546 -8 z "},"Ṧ":{"ha":854,"x_min":65,"x_max":789,"o":"m 426 -8 q 219 26 318 -8 q 65 118 119 61 l 106 197 q 246 112 158 144 q 426 79 333 79 q 622 127 557 79 q 688 251 688 175 q 652 344 688 310 q 565 398 617 379 q 422 439 514 417 q 247 492 313 467 q 135 571 182 518 q 89 714 89 624 q 128 848 89 788 q 247 944 167 908 q 447 981 328 981 q 610 958 531 981 q 749 894 690 935 l 714 813 q 583 873 653 853 q 447 893 514 893 q 255 844 319 893 q 190 717 190 794 q 226 623 190 658 q 315 569 261 588 q 458 528 368 550 q 631 476 565 501 q 743 398 697 450 q 789 257 789 346 q 749 123 789 183 q 628 27 710 63 q 426 -8 546 -8 z "},"Ş":{"ha":854,"x_min":65,"x_max":789,"o":"m 789 257 q 708 76 789 150 q 471 -7 628 3 l 454 -72 q 542 -108 511 -78 q 572 -185 572 -137 q 529 -273 572 -240 q 415 -306 486 -306 q 299 -274 346 -306 l 322 -221 q 414 -247 363 -247 q 478 -231 456 -247 q 500 -182 500 -214 q 478 -135 500 -153 q 414 -118 457 -118 l 382 -118 l 411 -8 q 212 29 306 -6 q 65 118 118 64 l 106 197 q 246 112 158 144 q 426 79 333 79 q 622 127 557 79 q 688 251 688 175 q 652 344 688 310 q 565 398 617 379 q 422 439 514 417 q 247 492 313 467 q 135 571 182 518 q 89 714 89 624 q 128 848 89 788 q 247 944 167 908 q 447 981 328 981 q 610 958 531 981 q 749 894 690 935 l 714 813 q 583 873 653 853 q 447 893 514 893 q 255 844 319 893 q 190 717 190 794 q 226 623 190 658 q 315 569 261 588 q 458 528 368 550 q 631 476 565 501 q 743 398 697 450 q 789 257 789 346 z "},"Ŝ":{"ha":854,"x_min":65,"x_max":789,"o":"m 426 -8 q 219 26 318 -8 q 65 118 119 61 l 106 197 q 246 112 158 144 q 426 79 333 79 q 622 127 557 79 q 688 251 688 175 q 652 344 688 310 q 565 398 617 379 q 422 439 514 417 q 247 492 313 467 q 135 571 182 518 q 89 714 89 624 q 128 848 89 788 q 247 944 167 908 q 447 981 328 981 q 610 958 531 981 q 749 894 690 935 l 714 813 q 583 873 653 853 q 447 893 514 893 q 255 844 319 893 q 190 717 190 794 q 226 623 190 658 q 315 569 261 588 q 458 528 368 550 q 631 476 565 501 q 743 398 697 450 q 789 257 789 346 q 749 123 789 183 q 628 27 710 63 q 426 -8 546 -8 z "},"Ș":{"ha":854,"x_min":65,"x_max":789,"o":"m 426 -8 q 219 26 318 -8 q 65 118 119 61 l 106 197 q 246 112 158 144 q 426 79 333 79 q 622 127 557 79 q 688 251 688 175 q 652 344 688 310 q 565 398 617 379 q 422 439 514 417 q 247 492 313 467 q 135 571 182 518 q 89 714 89 624 q 128 848 89 788 q 247 944 167 908 q 447 981 328 981 q 610 958 531 981 q 749 894 690 935 l 714 813 q 583 873 653 853 q 447 893 514 893 q 255 844 319 893 q 190 717 190 794 q 226 623 190 658 q 315 569 261 588 q 458 528 368 550 q 631 476 565 501 q 743 398 697 450 q 789 257 789 346 q 749 123 789 183 q 628 27 710 63 q 426 -8 546 -8 m 446 -144 q 489 -160 472 -144 q 506 -199 506 -176 q 490 -261 506 -226 l 451 -364 l 397 -364 l 426 -250 q 397 -232 407 -246 q 386 -199 386 -218 q 403 -160 386 -175 q 446 -144 419 -144 z "},"Ṡ":{"ha":854,"x_min":65,"x_max":789,"o":"m 426 -8 q 219 26 318 -8 q 65 118 119 61 l 106 197 q 246 112 158 144 q 426 79 333 79 q 622 127 557 79 q 688 251 688 175 q 652 344 688 310 q 565 398 617 379 q 422 439 514 417 q 247 492 313 467 q 135 571 182 518 q 89 714 89 624 q 128 848 89 788 q 247 944 167 908 q 447 981 328 981 q 610 958 531 981 q 749 894 690 935 l 714 813 q 583 873 653 853 q 447 893 514 893 q 255 844 319 893 q 190 717 190 794 q 226 623 190 658 q 315 569 261 588 q 458 528 368 550 q 631 476 565 501 q 743 398 697 450 q 789 257 789 346 q 749 123 789 183 q 628 27 710 63 q 426 -8 546 -8 z "},"Ṣ":{"ha":854,"x_min":65,"x_max":789,"o":"m 426 -8 q 219 26 318 -8 q 65 118 119 61 l 106 197 q 246 112 158 144 q 426 79 333 79 q 622 127 557 79 q 688 251 688 175 q 652 344 688 310 q 565 398 617 379 q 422 439 514 417 q 247 492 313 467 q 135 571 182 518 q 89 714 89 624 q 128 848 89 788 q 247 944 167 908 q 447 981 328 981 q 610 958 531 981 q 749 894 690 935 l 714 813 q 583 873 653 853 q 447 893 514 893 q 255 844 319 893 q 190 717 190 794 q 226 623 190 658 q 315 569 261 588 q 458 528 368 550 q 631 476 565 501 q 743 398 697 450 q 789 257 789 346 q 749 123 789 183 q 628 27 710 63 q 426 -8 546 -8 m 446 -264 q 403 -247 421 -264 q 386 -204 386 -231 q 403 -161 386 -178 q 446 -144 421 -144 q 488 -161 471 -144 q 506 -204 506 -178 q 488 -247 506 -231 q 446 -264 471 -264 z "},"Ṩ":{"ha":854,"x_min":65,"x_max":789,"o":"m 426 -8 q 219 26 318 -8 q 65 118 119 61 l 106 197 q 246 112 158 144 q 426 79 333 79 q 622 127 557 79 q 688 251 688 175 q 652 344 688 310 q 565 398 617 379 q 422 439 514 417 q 247 492 313 467 q 135 571 182 518 q 89 714 89 624 q 128 848 89 788 q 247 944 167 908 q 447 981 328 981 q 610 958 531 981 q 749 894 690 935 l 714 813 q 583 873 653 853 q 447 893 514 893 q 255 844 319 893 q 190 717 190 794 q 226 623 190 658 q 315 569 261 588 q 458 528 368 550 q 631 476 565 501 q 743 398 697 450 q 789 257 789 346 q 749 123 789 183 q 628 27 710 63 q 426 -8 546 -8 m 446 -264 q 403 -247 421 -264 q 386 -204 386 -231 q 403 -161 386 -178 q 446 -144 421 -144 q 488 -161 471 -144 q 506 -204 506 -178 q 488 -247 506 -231 q 446 -264 471 -264 z "},"ẞ":{"ha":1050,"x_min":150,"x_max":974,"o":"m 649 560 q 884 485 794 560 q 974 275 974 411 q 883 66 974 140 q 639 -8 792 -8 q 450 28 532 -8 l 468 114 q 638 79 539 79 q 808 131 746 79 q 869 279 869 182 q 807 428 869 376 q 633 479 744 479 q 515 463 565 479 l 494 515 l 792 839 q 574 893 700 893 q 335 809 417 893 q 253 567 253 725 l 253 0 l 150 0 l 150 571 q 260 872 150 763 q 567 981 369 981 q 740 956 657 981 q 883 885 824 932 l 883 817 l 646 560 l 649 560 z "},"Ə":{"ha":1135,"x_min":72,"x_max":1063,"o":"m 557 981 q 817 917 701 981 q 997 740 932 853 q 1063 488 1063 628 q 997 235 1063 349 q 819 57 932 122 q 568 -8 706 -8 q 313 56 426 -8 q 136 235 200 121 q 72 490 72 349 l 72 521 l 958 521 q 897 709 951 625 q 753 841 842 793 q 557 889 664 889 q 246 776 368 889 l 185 847 q 349 946 253 911 q 557 981 446 981 m 568 81 q 757 126 672 81 q 894 251 842 171 q 957 433 947 331 l 176 433 q 240 249 188 329 q 377 125 292 169 q 568 81 463 81 z "},"T":{"ha":797,"x_min":6,"x_max":792,"o":"m 347 883 l 6 883 l 6 972 l 792 972 l 792 883 l 450 883 l 450 0 l 347 0 l 347 883 z "},"Ŧ":{"ha":797,"x_min":6,"x_max":792,"o":"m 450 883 l 450 519 l 668 519 l 668 438 l 450 438 l 450 0 l 347 0 l 347 438 l 129 438 l 129 519 l 347 519 l 347 883 l 6 883 l 6 972 l 792 972 l 792 883 l 450 883 z "},"Ť":{"ha":797,"x_min":6,"x_max":792,"o":"m 347 883 l 6 883 l 6 972 l 792 972 l 792 883 l 450 883 l 450 0 l 347 0 l 347 883 z "},"Ţ":{"ha":797,"x_min":6,"x_max":792,"o":"m 425 0 l 407 -72 q 494 -108 464 -78 q 525 -185 525 -137 q 482 -273 525 -240 q 368 -306 439 -306 q 251 -274 300 -306 l 275 -221 q 367 -247 315 -247 q 431 -231 408 -247 q 453 -182 453 -214 q 431 -135 453 -153 q 367 -118 410 -118 l 335 -118 l 365 0 l 347 0 l 347 883 l 6 883 l 6 972 l 792 972 l 792 883 l 450 883 l 450 0 l 425 0 z "},"Ț":{"ha":797,"x_min":6,"x_max":792,"o":"m 347 883 l 6 883 l 6 972 l 792 972 l 792 883 l 450 883 l 450 0 l 347 0 l 347 883 m 399 -144 q 442 -160 425 -144 q 458 -199 458 -176 q 443 -261 458 -226 l 404 -364 l 350 -364 l 379 -250 q 349 -232 360 -246 q 339 -199 339 -218 q 356 -160 339 -175 q 399 -144 372 -144 z "},"Ṭ":{"ha":797,"x_min":6,"x_max":792,"o":"m 347 883 l 6 883 l 6 972 l 792 972 l 792 883 l 450 883 l 450 0 l 347 0 l 347 883 m 399 -264 q 356 -247 374 -264 q 339 -204 339 -231 q 356 -161 339 -178 q 399 -144 374 -144 q 441 -161 424 -144 q 458 -204 458 -178 q 441 -247 458 -231 q 399 -264 424 -264 z "},"Ṯ":{"ha":797,"x_min":6,"x_max":792,"o":"m 347 883 l 6 883 l 6 972 l 792 972 l 792 883 l 450 883 l 450 0 l 347 0 l 347 883 m 185 -169 l 613 -169 l 613 -235 l 185 -235 l 185 -169 z "},"U":{"ha":1100,"x_min":150,"x_max":949,"o":"m 550 -8 q 256 100 361 -8 q 150 415 150 208 l 150 972 l 253 972 l 253 419 q 329 167 253 250 q 550 83 406 83 q 772 167 696 83 q 849 419 849 250 l 849 972 l 949 972 l 949 415 q 844 100 949 208 q 550 -8 739 -8 z "},"Ú":{"ha":1100,"x_min":150,"x_max":949,"o":"m 550 -8 q 256 100 361 -8 q 150 415 150 208 l 150 972 l 253 972 l 253 419 q 329 167 253 250 q 550 83 406 83 q 772 167 696 83 q 849 419 849 250 l 849 972 l 949 972 l 949 415 q 844 100 949 208 q 550 -8 739 -8 z "},"Ŭ":{"ha":1100,"x_min":150,"x_max":949,"o":"m 550 -8 q 256 100 361 -8 q 150 415 150 208 l 150 972 l 253 972 l 253 419 q 329 167 253 250 q 550 83 406 83 q 772 167 696 83 q 849 419 849 250 l 849 972 l 949 972 l 949 415 q 844 100 949 208 q 550 -8 739 -8 z "},"Ǔ":{"ha":1100,"x_min":150,"x_max":949,"o":"m 550 -8 q 256 100 361 -8 q 150 415 150 208 l 150 972 l 253 972 l 253 419 q 329 167 253 250 q 550 83 406 83 q 772 167 696 83 q 849 419 849 250 l 849 972 l 949 972 l 949 415 q 844 100 949 208 q 550 -8 739 -8 z "},"Û":{"ha":1100,"x_min":150,"x_max":949,"o":"m 550 -8 q 256 100 361 -8 q 150 415 150 208 l 150 972 l 253 972 l 253 419 q 329 167 253 250 q 550 83 406 83 q 772 167 696 83 q 849 419 849 250 l 849 972 l 949 972 l 949 415 q 844 100 949 208 q 550 -8 739 -8 z "},"Ȕ":{"ha":1100,"x_min":150,"x_max":949,"o":"m 550 -8 q 256 100 361 -8 q 150 415 150 208 l 150 972 l 253 972 l 253 419 q 329 167 253 250 q 550 83 406 83 q 772 167 696 83 q 849 419 849 250 l 849 972 l 949 972 l 949 415 q 844 100 949 208 q 550 -8 739 -8 z "},"Ü":{"ha":1100,"x_min":150,"x_max":949,"o":"m 550 -8 q 256 100 361 -8 q 150 415 150 208 l 150 972 l 253 972 l 253 419 q 329 167 253 250 q 550 83 406 83 q 772 167 696 83 q 849 419 849 250 l 849 972 l 949 972 l 949 415 q 844 100 949 208 q 550 -8 739 -8 z "},"Ụ":{"ha":1100,"x_min":150,"x_max":949,"o":"m 550 -8 q 256 100 361 -8 q 150 415 150 208 l 150 972 l 253 972 l 253 419 q 329 167 253 250 q 550 83 406 83 q 772 167 696 83 q 849 419 849 250 l 849 972 l 949 972 l 949 415 q 844 100 949 208 q 550 -8 739 -8 m 550 -264 q 508 -247 525 -264 q 490 -204 490 -231 q 508 -161 490 -178 q 550 -144 525 -144 q 592 -161 575 -144 q 610 -204 610 -178 q 592 -247 610 -231 q 550 -264 575 -264 z "},"Ù":{"ha":1100,"x_min":150,"x_max":949,"o":"m 550 -8 q 256 100 361 -8 q 150 415 150 208 l 150 972 l 253 972 l 253 419 q 329 167 253 250 q 550 83 406 83 q 772 167 696 83 q 849 419 849 250 l 849 972 l 949 972 l 949 415 q 844 100 949 208 q 550 -8 739 -8 z "},"Ủ":{"ha":1100,"x_min":150,"x_max":949,"o":"m 550 -8 q 256 100 361 -8 q 150 415 150 208 l 150 972 l 253 972 l 253 419 q 329 167 253 250 q 550 83 406 83 q 772 167 696 83 q 849 419 849 250 l 849 972 l 949 972 l 949 415 q 844 100 949 208 q 550 -8 739 -8 z "},"Ư":{"ha":1107,"x_min":150,"x_max":1088,"o":"m 1088 1064 q 1051 950 1088 994 q 949 899 1015 906 l 949 415 q 844 100 949 208 q 550 -8 739 -8 q 256 100 361 -8 q 150 415 150 208 l 150 972 l 253 972 l 253 419 q 329 167 253 250 q 550 83 406 83 q 772 167 696 83 q 849 419 849 250 l 849 972 l 901 972 l 901 974 l 922 974 q 991 999 968 974 q 1014 1067 1014 1025 q 986 1156 1014 1117 l 1051 1181 q 1088 1064 1088 1131 z "},"Ứ":{"ha":1107,"x_min":150,"x_max":1088,"o":"m 1088 1064 q 1051 950 1088 994 q 949 899 1015 906 l 949 415 q 844 100 949 208 q 550 -8 739 -8 q 256 100 361 -8 q 150 415 150 208 l 150 972 l 253 972 l 253 419 q 329 167 253 250 q 550 83 406 83 q 772 167 696 83 q 849 419 849 250 l 849 972 l 901 972 l 901 974 l 922 974 q 991 999 968 974 q 1014 1067 1014 1025 q 986 1156 1014 1117 l 1051 1181 q 1088 1064 1088 1131 z "},"Ự":{"ha":1107,"x_min":150,"x_max":1088,"o":"m 1088 1064 q 1051 950 1088 994 q 949 899 1015 906 l 949 415 q 844 100 949 208 q 550 -8 739 -8 q 256 100 361 -8 q 150 415 150 208 l 150 972 l 253 972 l 253 419 q 329 167 253 250 q 550 83 406 83 q 772 167 696 83 q 849 419 849 250 l 849 972 l 901 972 l 901 974 l 922 974 q 991 999 968 974 q 1014 1067 1014 1025 q 986 1156 1014 1117 l 1051 1181 q 1088 1064 1088 1131 m 550 -264 q 508 -247 525 -264 q 490 -204 490 -231 q 508 -161 490 -178 q 550 -144 525 -144 q 592 -161 575 -144 q 610 -204 610 -178 q 592 -247 610 -231 q 550 -264 575 -264 z "},"Ừ":{"ha":1107,"x_min":150,"x_max":1088,"o":"m 1088 1064 q 1051 950 1088 994 q 949 899 1015 906 l 949 415 q 844 100 949 208 q 550 -8 739 -8 q 256 100 361 -8 q 150 415 150 208 l 150 972 l 253 972 l 253 419 q 329 167 253 250 q 550 83 406 83 q 772 167 696 83 q 849 419 849 250 l 849 972 l 901 972 l 901 974 l 922 974 q 991 999 968 974 q 1014 1067 1014 1025 q 986 1156 1014 1117 l 1051 1181 q 1088 1064 1088 1131 z "},"Ử":{"ha":1107,"x_min":150,"x_max":1088,"o":"m 1088 1064 q 1051 950 1088 994 q 949 899 1015 906 l 949 415 q 844 100 949 208 q 550 -8 739 -8 q 256 100 361 -8 q 150 415 150 208 l 150 972 l 253 972 l 253 419 q 329 167 253 250 q 550 83 406 83 q 772 167 696 83 q 849 419 849 250 l 849 972 l 901 972 l 901 974 l 922 974 q 991 999 968 974 q 1014 1067 1014 1025 q 986 1156 1014 1117 l 1051 1181 q 1088 1064 1088 1131 z "},"Ữ":{"ha":1107,"x_min":150,"x_max":1088,"o":"m 1088 1064 q 1051 950 1088 994 q 949 899 1015 906 l 949 415 q 844 100 949 208 q 550 -8 739 -8 q 256 100 361 -8 q 150 415 150 208 l 150 972 l 253 972 l 253 419 q 329 167 253 250 q 550 83 406 83 q 772 167 696 83 q 849 419 849 250 l 849 972 l 901 972 l 901 974 l 922 974 q 991 999 968 974 q 1014 1067 1014 1025 q 986 1156 1014 1117 l 1051 1181 q 1088 1064 1088 1131 z "},"Ű":{"ha":1100,"x_min":150,"x_max":949,"o":"m 550 -8 q 256 100 361 -8 q 150 415 150 208 l 150 972 l 253 972 l 253 419 q 329 167 253 250 q 550 83 406 83 q 772 167 696 83 q 849 419 849 250 l 849 972 l 949 972 l 949 415 q 844 100 949 208 q 550 -8 739 -8 z "},"Ȗ":{"ha":1100,"x_min":150,"x_max":949,"o":"m 550 -8 q 256 100 361 -8 q 150 415 150 208 l 150 972 l 253 972 l 253 419 q 329 167 253 250 q 550 83 406 83 q 772 167 696 83 q 849 419 849 250 l 849 972 l 949 972 l 949 415 q 844 100 949 208 q 550 -8 739 -8 z "},"Ū":{"ha":1100,"x_min":150,"x_max":949,"o":"m 550 -8 q 256 100 361 -8 q 150 415 150 208 l 150 972 l 253 972 l 253 419 q 329 167 253 250 q 550 83 406 83 q 772 167 696 83 q 849 419 849 250 l 849 972 l 949 972 l 949 415 q 844 100 949 208 q 550 -8 739 -8 z "},"Ṻ":{"ha":1100,"x_min":150,"x_max":949,"o":"m 550 -8 q 256 100 361 -8 q 150 415 150 208 l 150 972 l 253 972 l 253 419 q 329 167 253 250 q 550 83 406 83 q 772 167 696 83 q 849 419 849 250 l 849 972 l 949 972 l 949 415 q 844 100 949 208 q 550 -8 739 -8 z "},"Ų":{"ha":1100,"x_min":150,"x_max":949,"o":"m 949 972 l 949 415 q 700 11 949 96 q 494 -167 494 -60 q 519 -224 494 -204 q 585 -244 544 -244 q 669 -218 638 -244 l 692 -272 q 575 -306 644 -306 q 463 -270 504 -306 q 421 -174 421 -235 q 528 -8 421 -75 q 249 107 349 -1 q 150 415 150 215 l 150 972 l 253 972 l 253 419 q 329 167 253 250 q 550 83 406 83 q 772 167 696 83 q 849 419 849 250 l 849 972 l 949 972 z "},"Ů":{"ha":1100,"x_min":150,"x_max":949,"o":"m 550 -8 q 256 100 361 -8 q 150 415 150 208 l 150 972 l 253 972 l 253 419 q 329 167 253 250 q 550 83 406 83 q 772 167 696 83 q 849 419 849 250 l 849 972 l 949 972 l 949 415 q 844 100 949 208 q 550 -8 739 -8 m 549 1069 q 445 1111 486 1069 q 404 1211 404 1153 q 446 1314 404 1271 q 549 1357 488 1357 q 652 1314 610 1357 q 694 1211 694 1271 q 653 1111 694 1153 q 549 1069 611 1069 m 549 1118 q 617 1144 590 1118 q 643 1211 643 1171 q 616 1280 643 1251 q 549 1308 589 1308 q 482 1281 508 1308 q 456 1211 456 1253 q 481 1144 456 1171 q 549 1118 507 1118 z "},"Ũ":{"ha":1100,"x_min":150,"x_max":949,"o":"m 550 -8 q 256 100 361 -8 q 150 415 150 208 l 150 972 l 253 972 l 253 419 q 329 167 253 250 q 550 83 406 83 q 772 167 696 83 q 849 419 849 250 l 849 972 l 949 972 l 949 415 q 844 100 949 208 q 550 -8 739 -8 z "},"Ṹ":{"ha":1100,"x_min":150,"x_max":949,"o":"m 550 -8 q 256 100 361 -8 q 150 415 150 208 l 150 972 l 253 972 l 253 419 q 329 167 253 250 q 550 83 406 83 q 772 167 696 83 q 849 419 849 250 l 849 972 l 949 972 l 949 415 q 844 100 949 208 q 550 -8 739 -8 z "},"V":{"ha":969,"x_min":4,"x_max":967,"o":"m 967 972 l 536 0 l 435 0 l 4 972 l 115 972 l 488 128 l 863 972 l 967 972 z "},"W":{"ha":1543,"x_min":51,"x_max":1493,"o":"m 1493 972 l 1165 0 l 1057 0 l 772 829 l 486 0 l 379 0 l 51 972 l 157 972 l 438 136 l 728 972 l 824 972 l 1110 132 l 1394 972 l 1493 972 z "},"Ẃ":{"ha":1543,"x_min":51,"x_max":1493,"o":"m 1493 972 l 1165 0 l 1057 0 l 772 829 l 486 0 l 379 0 l 51 972 l 157 972 l 438 136 l 728 972 l 824 972 l 1110 132 l 1394 972 l 1493 972 z "},"Ŵ":{"ha":1543,"x_min":51,"x_max":1493,"o":"m 1493 972 l 1165 0 l 1057 0 l 772 829 l 486 0 l 379 0 l 51 972 l 157 972 l 438 136 l 728 972 l 824 972 l 1110 132 l 1394 972 l 1493 972 z "},"Ẅ":{"ha":1543,"x_min":51,"x_max":1493,"o":"m 1493 972 l 1165 0 l 1057 0 l 772 829 l 486 0 l 379 0 l 51 972 l 157 972 l 438 136 l 728 972 l 824 972 l 1110 132 l 1394 972 l 1493 972 z "},"Ẁ":{"ha":1543,"x_min":51,"x_max":1493,"o":"m 1493 972 l 1165 0 l 1057 0 l 772 829 l 486 0 l 379 0 l 51 972 l 157 972 l 438 136 l 728 972 l 824 972 l 1110 132 l 1394 972 l 1493 972 z "},"X":{"ha":911,"x_min":24,"x_max":888,"o":"m 768 0 l 454 428 l 142 0 l 24 0 l 393 500 l 47 972 l 165 972 l 458 575 l 750 972 l 861 972 l 517 503 l 888 0 l 768 0 z "},"Y":{"ha":882,"x_min":1,"x_max":881,"o":"m 492 336 l 492 0 l 390 0 l 390 336 l 1 972 l 111 972 l 444 426 l 778 972 l 881 972 l 492 336 z "},"Ý":{"ha":882,"x_min":1,"x_max":881,"o":"m 492 336 l 492 0 l 390 0 l 390 336 l 1 972 l 111 972 l 444 426 l 778 972 l 881 972 l 492 336 z "},"Ŷ":{"ha":882,"x_min":1,"x_max":881,"o":"m 492 336 l 492 0 l 390 0 l 390 336 l 1 972 l 111 972 l 444 426 l 778 972 l 881 972 l 492 336 z "},"Ÿ":{"ha":882,"x_min":1,"x_max":881,"o":"m 492 336 l 492 0 l 390 0 l 390 336 l 1 972 l 111 972 l 444 426 l 778 972 l 881 972 l 492 336 z "},"Ẏ":{"ha":882,"x_min":1,"x_max":881,"o":"m 492 336 l 492 0 l 390 0 l 390 336 l 1 972 l 111 972 l 444 426 l 778 972 l 881 972 l 492 336 z "},"Ỵ":{"ha":882,"x_min":1,"x_max":881,"o":"m 492 336 l 492 0 l 390 0 l 390 336 l 1 972 l 111 972 l 444 426 l 778 972 l 881 972 l 492 336 m 440 -264 q 398 -247 415 -264 q 381 -204 381 -231 q 398 -161 381 -178 q 440 -144 415 -144 q 483 -161 465 -144 q 500 -204 500 -178 q 483 -247 500 -231 q 440 -264 465 -264 z "},"Ỳ":{"ha":882,"x_min":1,"x_max":881,"o":"m 492 336 l 492 0 l 390 0 l 390 336 l 1 972 l 111 972 l 444 426 l 778 972 l 881 972 l 492 336 z "},"Ỷ":{"ha":882,"x_min":1,"x_max":881,"o":"m 492 336 l 492 0 l 390 0 l 390 336 l 1 972 l 111 972 l 444 426 l 778 972 l 881 972 l 492 336 z "},"Ȳ":{"ha":882,"x_min":1,"x_max":881,"o":"m 492 336 l 492 0 l 390 0 l 390 336 l 1 972 l 111 972 l 444 426 l 778 972 l 881 972 l 492 336 z "},"Ỹ":{"ha":882,"x_min":1,"x_max":881,"o":"m 492 336 l 492 0 l 390 0 l 390 336 l 1 972 l 111 972 l 444 426 l 778 972 l 881 972 l 492 336 z "},"Z":{"ha":904,"x_min":63,"x_max":860,"o":"m 860 89 l 860 0 l 63 0 l 63 71 l 707 883 l 72 883 l 72 972 l 843 972 l 843 901 l 200 89 l 860 89 z "},"Ź":{"ha":904,"x_min":63,"x_max":860,"o":"m 860 89 l 860 0 l 63 0 l 63 71 l 707 883 l 72 883 l 72 972 l 843 972 l 843 901 l 200 89 l 860 89 z "},"Ž":{"ha":904,"x_min":63,"x_max":860,"o":"m 860 89 l 860 0 l 63 0 l 63 71 l 707 883 l 72 883 l 72 972 l 843 972 l 843 901 l 200 89 l 860 89 z "},"Ż":{"ha":904,"x_min":63,"x_max":860,"o":"m 860 89 l 860 0 l 63 0 l 63 71 l 707 883 l 72 883 l 72 972 l 843 972 l 843 901 l 200 89 l 860 89 z "},"Ẓ":{"ha":904,"x_min":63,"x_max":860,"o":"m 860 89 l 860 0 l 63 0 l 63 71 l 707 883 l 72 883 l 72 972 l 843 972 l 843 901 l 200 89 l 860 89 m 472 -264 q 430 -247 447 -264 q 413 -204 413 -231 q 430 -161 413 -178 q 472 -144 447 -144 q 515 -161 497 -144 q 532 -204 532 -178 q 515 -247 532 -231 q 472 -264 497 -264 z "},"a":{"ha":819,"x_min":76,"x_max":689,"o":"m 393 736 q 613 665 536 736 q 689 453 689 593 l 689 0 l 594 0 l 594 114 q 497 25 561 57 q 343 -7 432 -7 q 149 51 221 -7 q 76 206 76 110 q 144 356 76 299 q 358 413 211 413 l 590 413 l 590 457 q 538 601 590 551 q 383 650 485 650 q 250 627 314 650 q 140 564 186 604 l 96 638 q 229 710 151 685 q 393 736 307 736 m 358 71 q 501 109 442 71 q 590 219 561 147 l 590 339 l 361 339 q 174 208 174 339 q 222 108 174 144 q 358 71 271 71 z "},"á":{"ha":819,"x_min":76,"x_max":689,"o":"m 393 736 q 613 665 536 736 q 689 453 689 593 l 689 0 l 594 0 l 594 114 q 497 25 561 57 q 343 -7 432 -7 q 149 51 221 -7 q 76 206 76 110 q 144 356 76 299 q 358 413 211 413 l 590 413 l 590 457 q 538 601 590 551 q 383 650 485 650 q 250 627 314 650 q 140 564 186 604 l 96 638 q 229 710 151 685 q 393 736 307 736 m 358 71 q 501 109 442 71 q 590 219 561 147 l 590 339 l 361 339 q 174 208 174 339 q 222 108 174 144 q 358 71 271 71 m 496 1015 l 628 1015 l 403 843 l 306 843 l 496 1015 z "},"ă":{"ha":819,"x_min":76,"x_max":689,"o":"m 393 736 q 613 665 536 736 q 689 453 689 593 l 689 0 l 594 0 l 594 114 q 497 25 561 57 q 343 -7 432 -7 q 149 51 221 -7 q 76 206 76 110 q 144 356 76 299 q 358 413 211 413 l 590 413 l 590 457 q 538 601 590 551 q 383 650 485 650 q 250 627 314 650 q 140 564 186 604 l 96 638 q 229 710 151 685 q 393 736 307 736 m 358 71 q 501 109 442 71 q 590 219 561 147 l 590 339 l 361 339 q 174 208 174 339 q 222 108 174 144 q 358 71 271 71 m 396 836 q 247 885 307 836 q 185 1015 188 933 l 254 1015 q 296 929 256 961 q 396 897 336 897 q 496 929 456 897 q 538 1015 536 961 l 607 1015 q 544 885 604 933 q 396 836 485 836 z "},"ắ":{"ha":819,"x_min":76,"x_max":689,"o":"m 393 736 q 613 665 536 736 q 689 453 689 593 l 689 0 l 594 0 l 594 114 q 497 25 561 57 q 343 -7 432 -7 q 149 51 221 -7 q 76 206 76 110 q 144 356 76 299 q 358 413 211 413 l 590 413 l 590 457 q 538 601 590 551 q 383 650 485 650 q 250 627 314 650 q 140 564 186 604 l 96 638 q 229 710 151 685 q 393 736 307 736 m 358 71 q 501 109 442 71 q 590 219 561 147 l 590 339 l 361 339 q 174 208 174 339 q 222 108 174 144 q 358 71 271 71 z "},"ặ":{"ha":819,"x_min":76,"x_max":689,"o":"m 393 736 q 613 665 536 736 q 689 453 689 593 l 689 0 l 594 0 l 594 114 q 497 25 561 57 q 343 -7 432 -7 q 149 51 221 -7 q 76 206 76 110 q 144 356 76 299 q 358 413 211 413 l 590 413 l 590 457 q 538 601 590 551 q 383 650 485 650 q 250 627 314 650 q 140 564 186 604 l 96 638 q 229 710 151 685 q 393 736 307 736 m 358 71 q 501 109 442 71 q 590 219 561 147 l 590 339 l 361 339 q 174 208 174 339 q 222 108 174 144 q 358 71 271 71 m 399 -264 q 356 -247 374 -264 q 339 -204 339 -231 q 356 -161 339 -178 q 399 -144 374 -144 q 441 -161 424 -144 q 458 -204 458 -178 q 441 -247 458 -231 q 399 -264 424 -264 m 396 836 q 247 885 307 836 q 185 1015 188 933 l 254 1015 q 296 929 256 961 q 396 897 336 897 q 496 929 456 897 q 538 1015 536 961 l 607 1015 q 544 885 604 933 q 396 836 485 836 z "},"ằ":{"ha":819,"x_min":76,"x_max":689,"o":"m 393 736 q 613 665 536 736 q 689 453 689 593 l 689 0 l 594 0 l 594 114 q 497 25 561 57 q 343 -7 432 -7 q 149 51 221 -7 q 76 206 76 110 q 144 356 76 299 q 358 413 211 413 l 590 413 l 590 457 q 538 601 590 551 q 383 650 485 650 q 250 627 314 650 q 140 564 186 604 l 96 638 q 229 710 151 685 q 393 736 307 736 m 358 71 q 501 109 442 71 q 590 219 561 147 l 590 339 l 361 339 q 174 208 174 339 q 222 108 174 144 q 358 71 271 71 z "},"ẳ":{"ha":819,"x_min":76,"x_max":689,"o":"m 393 736 q 613 665 536 736 q 689 453 689 593 l 689 0 l 594 0 l 594 114 q 497 25 561 57 q 343 -7 432 -7 q 149 51 221 -7 q 76 206 76 110 q 144 356 76 299 q 358 413 211 413 l 590 413 l 590 457 q 538 601 590 551 q 383 650 485 650 q 250 627 314 650 q 140 564 186 604 l 96 638 q 229 710 151 685 q 393 736 307 736 m 358 71 q 501 109 442 71 q 590 219 561 147 l 590 339 l 361 339 q 174 208 174 339 q 222 108 174 144 q 358 71 271 71 z "},"ẵ":{"ha":819,"x_min":76,"x_max":689,"o":"m 393 736 q 613 665 536 736 q 689 453 689 593 l 689 0 l 594 0 l 594 114 q 497 25 561 57 q 343 -7 432 -7 q 149 51 221 -7 q 76 206 76 110 q 144 356 76 299 q 358 413 211 413 l 590 413 l 590 457 q 538 601 590 551 q 383 650 485 650 q 250 627 314 650 q 140 564 186 604 l 96 638 q 229 710 151 685 q 393 736 307 736 m 358 71 q 501 109 442 71 q 590 219 561 147 l 590 339 l 361 339 q 174 208 174 339 q 222 108 174 144 q 358 71 271 71 z "},"ǎ":{"ha":819,"x_min":76,"x_max":689,"o":"m 393 736 q 613 665 536 736 q 689 453 689 593 l 689 0 l 594 0 l 594 114 q 497 25 561 57 q 343 -7 432 -7 q 149 51 221 -7 q 76 206 76 110 q 144 356 76 299 q 358 413 211 413 l 590 413 l 590 457 q 538 601 590 551 q 383 650 485 650 q 250 627 314 650 q 140 564 186 604 l 96 638 q 229 710 151 685 q 393 736 307 736 m 358 71 q 501 109 442 71 q 590 219 561 147 l 590 339 l 361 339 q 174 208 174 339 q 222 108 174 144 q 358 71 271 71 m 625 1015 l 446 843 l 346 843 l 167 1015 l 258 1015 l 396 901 l 533 1015 l 625 1015 z "},"â":{"ha":819,"x_min":76,"x_max":689,"o":"m 393 736 q 613 665 536 736 q 689 453 689 593 l 689 0 l 594 0 l 594 114 q 497 25 561 57 q 343 -7 432 -7 q 149 51 221 -7 q 76 206 76 110 q 144 356 76 299 q 358 413 211 413 l 590 413 l 590 457 q 538 601 590 551 q 383 650 485 650 q 250 627 314 650 q 140 564 186 604 l 96 638 q 229 710 151 685 q 393 736 307 736 m 358 71 q 501 109 442 71 q 590 219 561 147 l 590 339 l 361 339 q 174 208 174 339 q 222 108 174 144 q 358 71 271 71 m 533 843 l 396 958 l 258 843 l 167 843 l 346 1015 l 446 1015 l 625 843 l 533 843 z "},"ấ":{"ha":819,"x_min":76,"x_max":810,"o":"m 393 736 q 613 665 536 736 q 689 453 689 593 l 689 0 l 594 0 l 594 114 q 497 25 561 57 q 343 -7 432 -7 q 149 51 221 -7 q 76 206 76 110 q 144 356 76 299 q 358 413 211 413 l 590 413 l 590 457 q 538 601 590 551 q 383 650 485 650 q 250 627 314 650 q 140 564 186 604 l 96 638 q 229 710 151 685 q 393 736 307 736 m 358 71 q 501 109 442 71 q 590 219 561 147 l 590 339 l 361 339 q 174 208 174 339 q 222 108 174 144 q 358 71 271 71 z "},"ậ":{"ha":819,"x_min":76,"x_max":689,"o":"m 393 736 q 613 665 536 736 q 689 453 689 593 l 689 0 l 594 0 l 594 114 q 497 25 561 57 q 343 -7 432 -7 q 149 51 221 -7 q 76 206 76 110 q 144 356 76 299 q 358 413 211 413 l 590 413 l 590 457 q 538 601 590 551 q 383 650 485 650 q 250 627 314 650 q 140 564 186 604 l 96 638 q 229 710 151 685 q 393 736 307 736 m 358 71 q 501 109 442 71 q 590 219 561 147 l 590 339 l 361 339 q 174 208 174 339 q 222 108 174 144 q 358 71 271 71 m 399 -264 q 356 -247 374 -264 q 339 -204 339 -231 q 356 -161 339 -178 q 399 -144 374 -144 q 441 -161 424 -144 q 458 -204 458 -178 q 441 -247 458 -231 q 399 -264 424 -264 m 533 843 l 396 958 l 258 843 l 167 843 l 346 1015 l 446 1015 l 625 843 l 533 843 z "},"ầ":{"ha":819,"x_min":76,"x_max":692,"o":"m 393 736 q 613 665 536 736 q 689 453 689 593 l 689 0 l 594 0 l 594 114 q 497 25 561 57 q 343 -7 432 -7 q 149 51 221 -7 q 76 206 76 110 q 144 356 76 299 q 358 413 211 413 l 590 413 l 590 457 q 538 601 590 551 q 383 650 485 650 q 250 627 314 650 q 140 564 186 604 l 96 638 q 229 710 151 685 q 393 736 307 736 m 358 71 q 501 109 442 71 q 590 219 561 147 l 590 339 l 361 339 q 174 208 174 339 q 222 108 174 144 q 358 71 271 71 z "},"ẩ":{"ha":819,"x_min":76,"x_max":689,"o":"m 393 736 q 613 665 536 736 q 689 453 689 593 l 689 0 l 594 0 l 594 114 q 497 25 561 57 q 343 -7 432 -7 q 149 51 221 -7 q 76 206 76 110 q 144 356 76 299 q 358 413 211 413 l 590 413 l 590 457 q 538 601 590 551 q 383 650 485 650 q 250 627 314 650 q 140 564 186 604 l 96 638 q 229 710 151 685 q 393 736 307 736 m 358 71 q 501 109 442 71 q 590 219 561 147 l 590 339 l 361 339 q 174 208 174 339 q 222 108 174 144 q 358 71 271 71 z "},"ẫ":{"ha":819,"x_min":76,"x_max":689,"o":"m 393 736 q 613 665 536 736 q 689 453 689 593 l 689 0 l 594 0 l 594 114 q 497 25 561 57 q 343 -7 432 -7 q 149 51 221 -7 q 76 206 76 110 q 144 356 76 299 q 358 413 211 413 l 590 413 l 590 457 q 538 601 590 551 q 383 650 485 650 q 250 627 314 650 q 140 564 186 604 l 96 638 q 229 710 151 685 q 393 736 307 736 m 358 71 q 501 109 442 71 q 590 219 561 147 l 590 339 l 361 339 q 174 208 174 339 q 222 108 174 144 q 358 71 271 71 z "},"ȁ":{"ha":819,"x_min":76,"x_max":689,"o":"m 393 736 q 613 665 536 736 q 689 453 689 593 l 689 0 l 594 0 l 594 114 q 497 25 561 57 q 343 -7 432 -7 q 149 51 221 -7 q 76 206 76 110 q 144 356 76 299 q 358 413 211 413 l 590 413 l 590 457 q 538 601 590 551 q 383 650 485 650 q 250 627 314 650 q 140 564 186 604 l 96 638 q 229 710 151 685 q 393 736 307 736 m 358 71 q 501 109 442 71 q 590 219 561 147 l 590 339 l 361 339 q 174 208 174 339 q 222 108 174 144 q 358 71 271 71 m 83 1015 l 193 1015 l 326 843 l 239 843 l 83 1015 m 308 1015 l 418 1015 l 553 843 l 465 843 l 308 1015 z "},"ä":{"ha":819,"x_min":76,"x_max":689,"o":"m 393 736 q 613 665 536 736 q 689 453 689 593 l 689 0 l 594 0 l 594 114 q 497 25 561 57 q 343 -7 432 -7 q 149 51 221 -7 q 76 206 76 110 q 144 356 76 299 q 358 413 211 413 l 590 413 l 590 457 q 538 601 590 551 q 383 650 485 650 q 250 627 314 650 q 140 564 186 604 l 96 638 q 229 710 151 685 q 393 736 307 736 m 358 71 q 501 109 442 71 q 590 219 561 147 l 590 339 l 361 339 q 174 208 174 339 q 222 108 174 144 q 358 71 271 71 m 272 875 q 230 892 247 875 q 213 935 213 908 q 230 977 213 960 q 272 994 247 994 q 314 977 296 994 q 332 935 332 960 q 315 892 332 910 q 272 875 297 875 m 519 875 q 477 892 494 875 q 460 935 460 910 q 478 977 460 960 q 519 994 496 994 q 562 977 544 994 q 579 935 579 960 q 562 892 579 908 q 519 875 544 875 z "},"ạ":{"ha":819,"x_min":76,"x_max":689,"o":"m 393 736 q 613 665 536 736 q 689 453 689 593 l 689 0 l 594 0 l 594 114 q 497 25 561 57 q 343 -7 432 -7 q 149 51 221 -7 q 76 206 76 110 q 144 356 76 299 q 358 413 211 413 l 590 413 l 590 457 q 538 601 590 551 q 383 650 485 650 q 250 627 314 650 q 140 564 186 604 l 96 638 q 229 710 151 685 q 393 736 307 736 m 358 71 q 501 109 442 71 q 590 219 561 147 l 590 339 l 361 339 q 174 208 174 339 q 222 108 174 144 q 358 71 271 71 m 399 -264 q 356 -247 374 -264 q 339 -204 339 -231 q 356 -161 339 -178 q 399 -144 374 -144 q 441 -161 424 -144 q 458 -204 458 -178 q 441 -247 458 -231 q 399 -264 424 -264 z "},"à":{"ha":819,"x_min":76,"x_max":689,"o":"m 393 736 q 613 665 536 736 q 689 453 689 593 l 689 0 l 594 0 l 594 114 q 497 25 561 57 q 343 -7 432 -7 q 149 51 221 -7 q 76 206 76 110 q 144 356 76 299 q 358 413 211 413 l 590 413 l 590 457 q 538 601 590 551 q 383 650 485 650 q 250 627 314 650 q 140 564 186 604 l 96 638 q 229 710 151 685 q 393 736 307 736 m 358 71 q 501 109 442 71 q 590 219 561 147 l 590 339 l 361 339 q 174 208 174 339 q 222 108 174 144 q 358 71 271 71 m 164 1015 l 296 1015 l 486 843 l 389 843 l 164 1015 z "},"ả":{"ha":819,"x_min":76,"x_max":689,"o":"m 393 736 q 613 665 536 736 q 689 453 689 593 l 689 0 l 594 0 l 594 114 q 497 25 561 57 q 343 -7 432 -7 q 149 51 221 -7 q 76 206 76 110 q 144 356 76 299 q 358 413 211 413 l 590 413 l 590 457 q 538 601 590 551 q 383 650 485 650 q 250 627 314 650 q 140 564 186 604 l 96 638 q 229 710 151 685 q 393 736 307 736 m 358 71 q 501 109 442 71 q 590 219 561 147 l 590 339 l 361 339 q 174 208 174 339 q 222 108 174 144 q 358 71 271 71 m 379 876 q 461 975 461 914 q 440 1024 461 1004 q 385 1043 418 1043 q 301 1017 342 1043 l 278 1065 q 331 1092 300 1082 q 393 1101 363 1101 q 488 1069 451 1101 q 525 982 525 1036 q 414 833 525 885 l 379 876 z "},"ȃ":{"ha":819,"x_min":76,"x_max":689,"o":"m 393 736 q 613 665 536 736 q 689 453 689 593 l 689 0 l 594 0 l 594 114 q 497 25 561 57 q 343 -7 432 -7 q 149 51 221 -7 q 76 206 76 110 q 144 356 76 299 q 358 413 211 413 l 590 413 l 590 457 q 538 601 590 551 q 383 650 485 650 q 250 627 314 650 q 140 564 186 604 l 96 638 q 229 710 151 685 q 393 736 307 736 m 358 71 q 501 109 442 71 q 590 219 561 147 l 590 339 l 361 339 q 174 208 174 339 q 222 108 174 144 q 358 71 271 71 m 185 843 q 247 973 188 925 q 396 1021 307 1021 q 544 973 485 1021 q 607 843 604 925 l 538 843 q 496 928 536 896 q 396 961 456 961 q 296 928 336 961 q 254 843 256 896 l 185 843 z "},"ā":{"ha":819,"x_min":76,"x_max":689,"o":"m 393 736 q 613 665 536 736 q 689 453 689 593 l 689 0 l 594 0 l 594 114 q 497 25 561 57 q 343 -7 432 -7 q 149 51 221 -7 q 76 206 76 110 q 144 356 76 299 q 358 413 211 413 l 590 413 l 590 457 q 538 601 590 551 q 383 650 485 650 q 250 627 314 650 q 140 564 186 604 l 96 638 q 229 710 151 685 q 393 736 307 736 m 358 71 q 501 109 442 71 q 590 219 561 147 l 590 339 l 361 339 q 174 208 174 339 q 222 108 174 144 q 358 71 271 71 m 182 961 l 610 961 l 610 896 l 182 896 l 182 961 z "},"ą":{"ha":819,"x_min":76,"x_max":718,"o":"m 718 -272 q 600 -306 668 -306 q 489 -269 531 -306 q 447 -174 447 -233 q 594 15 447 -62 l 594 114 q 497 25 561 57 q 343 -7 432 -7 q 149 51 221 -7 q 76 206 76 110 q 144 356 76 299 q 358 413 211 413 l 590 413 l 590 457 q 538 601 590 551 q 383 650 485 650 q 250 627 314 650 q 140 564 186 604 l 96 638 q 229 710 151 685 q 393 736 307 736 q 613 665 536 736 q 689 453 689 593 l 689 0 q 519 -167 519 -75 q 544 -224 519 -204 q 610 -244 569 -244 q 696 -218 664 -244 l 718 -272 m 358 71 q 501 109 442 71 q 590 219 561 147 l 590 339 l 361 339 q 174 208 174 339 q 222 108 174 144 q 358 71 271 71 z "},"å":{"ha":819,"x_min":76,"x_max":689,"o":"m 393 736 q 613 665 536 736 q 689 453 689 593 l 689 0 l 594 0 l 594 114 q 497 25 561 57 q 343 -7 432 -7 q 149 51 221 -7 q 76 206 76 110 q 144 356 76 299 q 358 413 211 413 l 590 413 l 590 457 q 538 601 590 551 q 383 650 485 650 q 250 627 314 650 q 140 564 186 604 l 96 638 q 229 710 151 685 q 393 736 307 736 m 358 71 q 501 109 442 71 q 590 219 561 147 l 590 339 l 361 339 q 174 208 174 339 q 222 108 174 144 q 358 71 271 71 m 394 826 q 291 868 332 826 q 250 968 250 910 q 292 1071 250 1028 q 394 1114 333 1114 q 498 1071 456 1114 q 540 968 540 1028 q 499 868 540 910 q 394 826 457 826 m 394 875 q 463 901 436 875 q 489 968 489 928 q 462 1037 489 1008 q 394 1065 435 1065 q 328 1038 354 1065 q 301 968 301 1010 q 327 901 301 928 q 394 875 353 875 z "},"ǻ":{"ha":819,"x_min":76,"x_max":689,"o":"m 393 736 q 613 665 536 736 q 689 453 689 593 l 689 0 l 594 0 l 594 114 q 497 25 561 57 q 343 -7 432 -7 q 149 51 221 -7 q 76 206 76 110 q 144 356 76 299 q 358 413 211 413 l 590 413 l 590 457 q 538 601 590 551 q 383 650 485 650 q 250 627 314 650 q 140 564 186 604 l 96 638 q 229 710 151 685 q 393 736 307 736 m 358 71 q 501 109 442 71 q 590 219 561 147 l 590 339 l 361 339 q 174 208 174 339 q 222 108 174 144 q 358 71 271 71 m 513 1054 q 540 968 540 1015 q 499 868 540 910 q 394 826 457 826 q 291 868 332 826 q 250 968 250 910 q 292 1071 250 1028 q 394 1114 333 1114 q 471 1093 433 1114 l 585 1206 l 640 1161 l 513 1054 m 394 875 q 463 901 436 875 q 489 968 489 928 q 462 1037 489 1008 q 394 1065 435 1065 q 328 1038 354 1065 q 301 968 301 1010 q 327 901 301 928 q 394 875 353 875 z "},"ã":{"ha":819,"x_min":76,"x_max":689,"o":"m 393 736 q 613 665 536 736 q 689 453 689 593 l 689 0 l 594 0 l 594 114 q 497 25 561 57 q 343 -7 432 -7 q 149 51 221 -7 q 76 206 76 110 q 144 356 76 299 q 358 413 211 413 l 590 413 l 590 457 q 538 601 590 551 q 383 650 485 650 q 250 627 314 650 q 140 564 186 604 l 96 638 q 229 710 151 685 q 393 736 307 736 m 358 71 q 501 109 442 71 q 590 219 561 147 l 590 339 l 361 339 q 174 208 174 339 q 222 108 174 144 q 358 71 271 71 m 490 851 q 433 866 458 851 q 379 907 408 881 q 340 937 354 928 q 308 946 325 946 q 257 922 276 946 q 236 857 238 899 l 176 857 q 213 968 179 926 q 301 1010 246 1010 q 358 996 333 1010 q 414 954 382 982 q 451 925 436 935 q 483 915 467 915 q 533 938 514 915 q 556 1001 553 961 l 615 1001 q 579 892 613 933 q 490 851 546 851 z "},"æ":{"ha":1369,"x_min":76,"x_max":1306,"o":"m 1306 371 q 1303 338 1306 360 l 690 338 q 776 151 697 222 q 978 81 856 81 q 1201 176 1117 81 l 1257 113 q 1135 24 1207 54 q 975 -7 1063 -7 q 785 35 869 -7 q 649 161 700 78 q 531 34 610 75 q 353 -7 451 -7 q 150 52 224 -7 q 76 208 76 111 q 144 354 76 297 q 358 411 211 411 l 590 411 l 590 457 q 538 601 590 551 q 383 650 485 650 q 250 627 314 650 q 140 564 186 604 l 96 638 q 229 710 151 685 q 392 736 307 736 q 660 586 603 736 q 783 697 707 657 q 950 736 858 736 q 1133 689 1051 736 q 1260 558 1214 642 q 1306 371 1306 475 m 949 651 q 827 622 883 651 q 734 539 771 593 q 690 411 697 485 l 1208 411 q 1165 538 1201 483 q 1072 622 1129 593 q 949 651 1015 651 m 360 71 q 528 127 465 71 q 590 279 590 183 l 590 338 l 361 338 q 218 303 263 338 q 174 211 174 269 q 223 108 174 146 q 360 71 272 71 z "},"ǽ":{"ha":1369,"x_min":76,"x_max":1306,"o":"m 1306 371 q 1303 338 1306 360 l 690 338 q 776 151 697 222 q 978 81 856 81 q 1201 176 1117 81 l 1257 113 q 1135 24 1207 54 q 975 -7 1063 -7 q 785 35 869 -7 q 649 161 700 78 q 531 34 610 75 q 353 -7 451 -7 q 150 52 224 -7 q 76 208 76 111 q 144 354 76 297 q 358 411 211 411 l 590 411 l 590 457 q 538 601 590 551 q 383 650 485 650 q 250 627 314 650 q 140 564 186 604 l 96 638 q 229 710 151 685 q 392 736 307 736 q 660 586 603 736 q 783 697 707 657 q 950 736 858 736 q 1133 689 1051 736 q 1260 558 1214 642 q 1306 371 1306 475 m 949 651 q 827 622 883 651 q 734 539 771 593 q 690 411 697 485 l 1208 411 q 1165 538 1201 483 q 1072 622 1129 593 q 949 651 1015 651 m 360 71 q 528 127 465 71 q 590 279 590 183 l 590 338 l 361 338 q 218 303 263 338 q 174 211 174 269 q 223 108 174 146 q 360 71 272 71 m 740 1015 l 872 1015 l 647 843 l 550 843 l 740 1015 z "},"b":{"ha":942,"x_min":138,"x_max":878,"o":"m 514 736 q 700 690 617 736 q 831 558 783 643 q 878 365 878 474 q 831 172 878 257 q 700 40 783 88 q 514 -7 617 -7 q 349 32 422 -7 q 232 144 276 71 l 232 0 l 138 0 l 138 1031 l 236 1031 l 236 592 q 353 699 282 663 q 514 736 425 736 m 507 81 q 646 116 583 81 q 744 217 708 151 q 779 365 779 282 q 744 514 779 449 q 646 615 708 579 q 507 650 583 650 q 367 615 429 650 q 270 514 306 579 q 235 365 235 449 q 270 217 235 282 q 367 116 306 151 q 507 81 429 81 z "},"c":{"ha":782,"x_min":64,"x_max":726,"o":"m 440 -7 q 247 40 332 -7 q 113 173 161 88 q 64 365 64 258 q 113 557 64 472 q 247 689 161 642 q 440 736 332 736 q 609 699 535 736 q 726 592 683 663 l 653 542 q 561 623 617 596 q 440 650 506 650 q 298 615 361 650 q 199 514 235 579 q 164 365 164 449 q 199 216 164 281 q 298 116 235 151 q 440 81 361 81 q 561 107 506 81 q 653 188 617 133 l 726 138 q 608 30 683 67 q 440 -7 533 -7 z "},"ć":{"ha":782,"x_min":64,"x_max":726,"o":"m 440 -7 q 247 40 332 -7 q 113 173 161 88 q 64 365 64 258 q 113 557 64 472 q 247 689 161 642 q 440 736 332 736 q 609 699 535 736 q 726 592 683 663 l 653 542 q 561 623 617 596 q 440 650 506 650 q 298 615 361 650 q 199 514 235 579 q 164 365 164 449 q 199 216 164 281 q 298 116 235 151 q 440 81 361 81 q 561 107 506 81 q 653 188 617 133 l 726 138 q 608 30 683 67 q 440 -7 533 -7 m 515 1015 l 647 1015 l 422 843 l 325 843 l 515 1015 z "},"č":{"ha":782,"x_min":64,"x_max":726,"o":"m 440 -7 q 247 40 332 -7 q 113 173 161 88 q 64 365 64 258 q 113 557 64 472 q 247 689 161 642 q 440 736 332 736 q 609 699 535 736 q 726 592 683 663 l 653 542 q 561 623 617 596 q 440 650 506 650 q 298 615 361 650 q 199 514 235 579 q 164 365 164 449 q 199 216 164 281 q 298 116 235 151 q 440 81 361 81 q 561 107 506 81 q 653 188 617 133 l 726 138 q 608 30 683 67 q 440 -7 533 -7 m 644 1015 l 465 843 l 365 843 l 186 1015 l 278 1015 l 415 901 l 553 1015 l 644 1015 z "},"ç":{"ha":782,"x_min":64,"x_max":726,"o":"m 440 81 q 561 107 506 81 q 653 188 617 133 l 726 138 q 608 30 683 67 q 440 -7 533 -7 l 438 -7 l 421 -72 q 508 -108 478 -78 q 539 -185 539 -137 q 496 -273 539 -240 q 382 -306 453 -306 q 265 -274 313 -306 l 289 -221 q 381 -247 329 -247 q 444 -231 422 -247 q 467 -182 467 -214 q 445 -135 467 -153 q 381 -118 424 -118 l 349 -118 l 379 -3 q 215 60 286 10 q 103 189 143 110 q 64 365 64 268 q 113 557 64 472 q 247 689 161 642 q 440 736 332 736 q 609 699 535 736 q 726 592 683 663 l 653 542 q 561 623 617 596 q 440 650 506 650 q 298 615 361 650 q 199 514 235 579 q 164 365 164 449 q 199 216 164 281 q 298 116 235 151 q 440 81 361 81 z "},"ḉ":{"ha":782,"x_min":64,"x_max":726,"o":"m 422 843 l 325 843 l 515 1015 l 647 1015 l 422 843 m 440 81 q 561 107 506 81 q 653 188 617 133 l 726 138 q 608 30 683 67 q 440 -7 533 -7 l 438 -7 l 421 -72 q 508 -108 478 -78 q 539 -185 539 -137 q 496 -273 539 -240 q 382 -306 453 -306 q 265 -274 313 -306 l 289 -221 q 381 -247 329 -247 q 444 -231 422 -247 q 467 -182 467 -214 q 445 -135 467 -153 q 381 -118 424 -118 l 349 -118 l 379 -3 q 215 60 286 10 q 103 189 143 110 q 64 365 64 268 q 113 557 64 472 q 247 689 161 642 q 440 736 332 736 q 609 699 535 736 q 726 592 683 663 l 653 542 q 561 623 617 596 q 440 650 506 650 q 298 615 361 650 q 199 514 235 579 q 164 365 164 449 q 199 216 164 281 q 298 116 235 151 q 440 81 361 81 z "},"ĉ":{"ha":782,"x_min":64,"x_max":726,"o":"m 440 -7 q 247 40 332 -7 q 113 173 161 88 q 64 365 64 258 q 113 557 64 472 q 247 689 161 642 q 440 736 332 736 q 609 699 535 736 q 726 592 683 663 l 653 542 q 561 623 617 596 q 440 650 506 650 q 298 615 361 650 q 199 514 235 579 q 164 365 164 449 q 199 216 164 281 q 298 116 235 151 q 440 81 361 81 q 561 107 506 81 q 653 188 617 133 l 726 138 q 608 30 683 67 q 440 -7 533 -7 m 553 843 l 415 958 l 278 843 l 186 843 l 365 1015 l 465 1015 l 644 843 l 553 843 z "},"ċ":{"ha":782,"x_min":64,"x_max":726,"o":"m 440 -7 q 247 40 332 -7 q 113 173 161 88 q 64 365 64 258 q 113 557 64 472 q 247 689 161 642 q 440 736 332 736 q 609 699 535 736 q 726 592 683 663 l 653 542 q 561 623 617 596 q 440 650 506 650 q 298 615 361 650 q 199 514 235 579 q 164 365 164 449 q 199 216 164 281 q 298 116 235 151 q 440 81 361 81 q 561 107 506 81 q 653 188 617 133 l 726 138 q 608 30 683 67 q 440 -7 533 -7 m 415 875 q 368 894 388 875 q 349 942 349 914 q 368 989 349 969 q 415 1008 388 1008 q 463 989 443 1008 q 482 942 482 969 q 463 894 482 914 q 415 875 443 875 z "},"d":{"ha":942,"x_min":64,"x_max":804,"o":"m 804 1031 l 804 0 l 710 0 l 710 144 q 592 32 665 71 q 428 -7 519 -7 q 242 40 325 -7 q 111 172 158 88 q 64 365 64 257 q 111 558 64 474 q 242 690 158 643 q 428 736 325 736 q 588 699 517 736 q 706 592 660 663 l 706 1031 l 804 1031 m 436 81 q 574 116 513 81 q 672 217 636 151 q 707 365 707 282 q 672 514 707 449 q 574 615 636 579 q 436 650 513 650 q 297 615 358 650 q 199 514 235 579 q 164 365 164 449 q 199 217 164 282 q 297 116 235 151 q 436 81 358 81 z "},"ð":{"ha":879,"x_min":64,"x_max":815,"o":"m 676 879 q 815 482 815 743 q 708 123 815 254 q 406 -8 601 -8 q 231 30 308 -8 q 108 138 153 68 q 64 299 64 207 q 108 460 64 390 q 231 568 153 531 q 411 606 310 606 q 597 558 517 606 q 713 421 676 510 q 715 503 715 450 q 681 703 715 618 q 583 840 647 788 l 211 685 l 183 753 l 504 886 q 351 914 436 914 q 147 883 247 914 l 131 968 q 351 997 231 997 q 610 931 504 997 l 733 982 l 761 914 l 676 879 m 411 76 q 553 108 493 76 q 644 190 613 139 q 675 299 675 240 q 642 412 675 361 q 552 492 610 463 q 421 521 494 521 q 233 460 301 521 q 164 299 164 400 q 232 138 164 199 q 411 76 300 76 z "},"ď":{"ha":942,"x_min":64,"x_max":1017,"o":"m 804 1031 l 804 0 l 710 0 l 710 144 q 592 32 665 71 q 428 -7 519 -7 q 242 40 325 -7 q 111 172 158 88 q 64 365 64 257 q 111 558 64 474 q 242 690 158 643 q 428 736 325 736 q 588 699 517 736 q 706 592 660 663 l 706 1031 l 804 1031 m 436 81 q 574 116 513 81 q 672 217 636 151 q 707 365 707 282 q 672 514 707 449 q 574 615 636 579 q 436 650 513 650 q 297 615 358 650 q 199 514 235 579 q 164 365 164 449 q 199 217 164 282 q 297 116 235 151 q 436 81 358 81 m 933 1071 l 1017 1071 l 1004 808 l 933 808 l 933 1071 z "},"đ":{"ha":942,"x_min":64,"x_max":942,"o":"m 942 843 l 804 843 l 804 0 l 710 0 l 710 144 q 592 32 665 71 q 428 -7 519 -7 q 242 40 325 -7 q 111 172 158 88 q 64 365 64 257 q 111 558 64 474 q 242 690 158 643 q 428 736 325 736 q 588 699 517 736 q 706 592 660 663 l 706 843 l 400 843 l 400 915 l 706 915 l 706 1031 l 804 1031 l 804 915 l 942 915 l 942 843 m 436 81 q 574 116 513 81 q 672 217 636 151 q 707 365 707 282 q 672 514 707 449 q 574 615 636 579 q 436 650 513 650 q 297 615 358 650 q 199 514 235 579 q 164 365 164 449 q 199 217 164 282 q 297 116 235 151 q 436 81 358 81 z "},"ḍ":{"ha":942,"x_min":64,"x_max":804,"o":"m 804 1031 l 804 0 l 710 0 l 710 144 q 592 32 665 71 q 428 -7 519 -7 q 242 40 325 -7 q 111 172 158 88 q 64 365 64 257 q 111 558 64 474 q 242 690 158 643 q 428 736 325 736 q 588 699 517 736 q 706 592 660 663 l 706 1031 l 804 1031 m 436 81 q 574 116 513 81 q 672 217 636 151 q 707 365 707 282 q 672 514 707 449 q 574 615 636 579 q 436 650 513 650 q 297 615 358 650 q 199 514 235 579 q 164 365 164 449 q 199 217 164 282 q 297 116 235 151 q 436 81 358 81 m 472 -264 q 430 -247 447 -264 q 413 -204 413 -231 q 430 -161 413 -178 q 472 -144 447 -144 q 515 -161 497 -144 q 532 -204 532 -178 q 515 -247 532 -231 q 472 -264 497 -264 z "},"ḏ":{"ha":942,"x_min":64,"x_max":804,"o":"m 804 1031 l 804 0 l 710 0 l 710 144 q 592 32 665 71 q 428 -7 519 -7 q 242 40 325 -7 q 111 172 158 88 q 64 365 64 257 q 111 558 64 474 q 242 690 158 643 q 428 736 325 736 q 588 699 517 736 q 706 592 660 663 l 706 1031 l 804 1031 m 436 81 q 574 116 513 81 q 672 217 636 151 q 707 365 707 282 q 672 514 707 449 q 574 615 636 579 q 436 650 513 650 q 297 615 358 650 q 199 514 235 579 q 164 365 164 449 q 199 217 164 282 q 297 116 235 151 q 436 81 358 81 m 258 -169 l 686 -169 l 686 -235 l 258 -235 l 258 -169 z "},"ǆ":{"ha":1669,"x_min":64,"x_max":1593,"o":"m 804 1031 l 804 0 l 710 0 l 710 144 q 592 32 665 71 q 428 -7 519 -7 q 242 40 325 -7 q 111 172 158 88 q 64 365 64 257 q 111 558 64 474 q 242 690 158 643 q 428 736 325 736 q 588 699 517 736 q 706 592 660 663 l 706 1031 l 804 1031 m 436 81 q 574 116 513 81 q 672 217 636 151 q 707 365 707 282 q 672 514 707 449 q 574 615 636 579 q 436 650 513 650 q 297 615 358 650 q 199 514 235 579 q 164 365 164 449 q 199 217 164 282 q 297 116 235 151 q 436 81 358 81 z "},"e":{"ha":839,"x_min":64,"x_max":775,"o":"m 774 335 l 163 335 q 250 151 171 221 q 450 81 329 81 q 575 105 518 81 q 674 176 632 129 l 729 113 q 608 24 681 54 q 447 -7 535 -7 q 248 41 335 -7 q 113 174 161 89 q 64 365 64 258 q 110 557 64 472 q 238 689 157 642 q 421 736 319 736 q 603 689 522 736 q 729 558 683 642 q 775 365 775 474 l 774 335 m 421 651 q 244 584 315 651 q 163 408 172 517 l 681 408 q 599 584 671 517 q 421 651 528 651 z "},"é":{"ha":839,"x_min":64,"x_max":775,"o":"m 774 335 l 163 335 q 250 151 171 221 q 450 81 329 81 q 575 105 518 81 q 674 176 632 129 l 729 113 q 608 24 681 54 q 447 -7 535 -7 q 248 41 335 -7 q 113 174 161 89 q 64 365 64 258 q 110 557 64 472 q 238 689 157 642 q 421 736 319 736 q 603 689 522 736 q 729 558 683 642 q 775 365 775 474 l 774 335 m 421 651 q 244 584 315 651 q 163 408 172 517 l 681 408 q 599 584 671 517 q 421 651 528 651 m 521 1015 l 653 1015 l 428 843 l 331 843 l 521 1015 z "},"ĕ":{"ha":839,"x_min":64,"x_max":775,"o":"m 774 335 l 163 335 q 250 151 171 221 q 450 81 329 81 q 575 105 518 81 q 674 176 632 129 l 729 113 q 608 24 681 54 q 447 -7 535 -7 q 248 41 335 -7 q 113 174 161 89 q 64 365 64 258 q 110 557 64 472 q 238 689 157 642 q 421 736 319 736 q 603 689 522 736 q 729 558 683 642 q 775 365 775 474 l 774 335 m 421 651 q 244 584 315 651 q 163 408 172 517 l 681 408 q 599 584 671 517 q 421 651 528 651 m 421 836 q 272 885 332 836 q 210 1015 213 933 l 279 1015 q 321 929 281 961 q 421 897 361 897 q 521 929 481 897 q 563 1015 561 961 l 632 1015 q 569 885 629 933 q 421 836 510 836 z "},"ě":{"ha":839,"x_min":64,"x_max":775,"o":"m 774 335 l 163 335 q 250 151 171 221 q 450 81 329 81 q 575 105 518 81 q 674 176 632 129 l 729 113 q 608 24 681 54 q 447 -7 535 -7 q 248 41 335 -7 q 113 174 161 89 q 64 365 64 258 q 110 557 64 472 q 238 689 157 642 q 421 736 319 736 q 603 689 522 736 q 729 558 683 642 q 775 365 775 474 l 774 335 m 421 651 q 244 584 315 651 q 163 408 172 517 l 681 408 q 599 584 671 517 q 421 651 528 651 m 650 1015 l 471 843 l 371 843 l 192 1015 l 283 1015 l 421 901 l 558 1015 l 650 1015 z "},"ḝ":{"ha":839,"x_min":64,"x_max":775,"o":"m 421 836 q 272 885 332 836 q 210 1015 213 933 l 279 1015 q 321 929 281 961 q 421 897 361 897 q 521 929 481 897 q 563 1015 561 961 l 632 1015 q 569 885 629 933 q 421 836 510 836 m 774 335 l 163 335 q 250 151 171 221 q 450 81 329 81 q 575 105 518 81 q 674 176 632 129 l 729 113 q 608 24 681 54 q 447 -7 535 -7 l 446 -7 l 429 -72 q 517 -108 486 -78 q 547 -185 547 -137 q 504 -273 547 -240 q 390 -306 461 -306 q 274 -274 321 -306 l 297 -221 q 389 -247 338 -247 q 453 -231 431 -247 q 475 -182 475 -214 q 453 -135 475 -153 q 389 -118 432 -118 l 357 -118 l 388 -3 q 218 60 292 10 q 104 189 144 110 q 64 365 64 268 q 110 557 64 472 q 238 689 157 642 q 421 736 319 736 q 603 689 522 736 q 729 558 683 642 q 775 365 775 474 l 774 335 m 421 651 q 244 584 315 651 q 163 408 172 517 l 681 408 q 599 584 671 517 q 421 651 528 651 z "},"ê":{"ha":839,"x_min":64,"x_max":775,"o":"m 774 335 l 163 335 q 250 151 171 221 q 450 81 329 81 q 575 105 518 81 q 674 176 632 129 l 729 113 q 608 24 681 54 q 447 -7 535 -7 q 248 41 335 -7 q 113 174 161 89 q 64 365 64 258 q 110 557 64 472 q 238 689 157 642 q 421 736 319 736 q 603 689 522 736 q 729 558 683 642 q 775 365 775 474 l 774 335 m 421 651 q 244 584 315 651 q 163 408 172 517 l 681 408 q 599 584 671 517 q 421 651 528 651 m 558 843 l 421 958 l 283 843 l 192 843 l 371 1015 l 471 1015 l 650 843 l 558 843 z "},"ế":{"ha":839,"x_min":64,"x_max":835,"o":"m 774 335 l 163 335 q 250 151 171 221 q 450 81 329 81 q 575 105 518 81 q 674 176 632 129 l 729 113 q 608 24 681 54 q 447 -7 535 -7 q 248 41 335 -7 q 113 174 161 89 q 64 365 64 258 q 110 557 64 472 q 238 689 157 642 q 421 736 319 736 q 603 689 522 736 q 729 558 683 642 q 775 365 775 474 l 774 335 m 421 651 q 244 584 315 651 q 163 408 172 517 l 681 408 q 599 584 671 517 q 421 651 528 651 z "},"ệ":{"ha":839,"x_min":64,"x_max":775,"o":"m 774 335 l 163 335 q 250 151 171 221 q 450 81 329 81 q 575 105 518 81 q 674 176 632 129 l 729 113 q 608 24 681 54 q 447 -7 535 -7 q 248 41 335 -7 q 113 174 161 89 q 64 365 64 258 q 110 557 64 472 q 238 689 157 642 q 421 736 319 736 q 603 689 522 736 q 729 558 683 642 q 775 365 775 474 l 774 335 m 421 651 q 244 584 315 651 q 163 408 172 517 l 681 408 q 599 584 671 517 q 421 651 528 651 m 421 -264 q 378 -247 396 -264 q 361 -204 361 -231 q 378 -161 361 -178 q 421 -144 396 -144 q 463 -161 446 -144 q 481 -204 481 -178 q 463 -247 481 -231 q 421 -264 446 -264 m 558 843 l 421 958 l 283 843 l 192 843 l 371 1015 l 471 1015 l 650 843 l 558 843 z "},"ề":{"ha":839,"x_min":64,"x_max":775,"o":"m 774 335 l 163 335 q 250 151 171 221 q 450 81 329 81 q 575 105 518 81 q 674 176 632 129 l 729 113 q 608 24 681 54 q 447 -7 535 -7 q 248 41 335 -7 q 113 174 161 89 q 64 365 64 258 q 110 557 64 472 q 238 689 157 642 q 421 736 319 736 q 603 689 522 736 q 729 558 683 642 q 775 365 775 474 l 774 335 m 421 651 q 244 584 315 651 q 163 408 172 517 l 681 408 q 599 584 671 517 q 421 651 528 651 z "},"ể":{"ha":839,"x_min":64,"x_max":775,"o":"m 774 335 l 163 335 q 250 151 171 221 q 450 81 329 81 q 575 105 518 81 q 674 176 632 129 l 729 113 q 608 24 681 54 q 447 -7 535 -7 q 248 41 335 -7 q 113 174 161 89 q 64 365 64 258 q 110 557 64 472 q 238 689 157 642 q 421 736 319 736 q 603 689 522 736 q 729 558 683 642 q 775 365 775 474 l 774 335 m 421 651 q 244 584 315 651 q 163 408 172 517 l 681 408 q 599 584 671 517 q 421 651 528 651 z "},"ễ":{"ha":839,"x_min":64,"x_max":775,"o":"m 774 335 l 163 335 q 250 151 171 221 q 450 81 329 81 q 575 105 518 81 q 674 176 632 129 l 729 113 q 608 24 681 54 q 447 -7 535 -7 q 248 41 335 -7 q 113 174 161 89 q 64 365 64 258 q 110 557 64 472 q 238 689 157 642 q 421 736 319 736 q 603 689 522 736 q 729 558 683 642 q 775 365 775 474 l 774 335 m 421 651 q 244 584 315 651 q 163 408 172 517 l 681 408 q 599 584 671 517 q 421 651 528 651 z "},"ȅ":{"ha":839,"x_min":64,"x_max":775,"o":"m 774 335 l 163 335 q 250 151 171 221 q 450 81 329 81 q 575 105 518 81 q 674 176 632 129 l 729 113 q 608 24 681 54 q 447 -7 535 -7 q 248 41 335 -7 q 113 174 161 89 q 64 365 64 258 q 110 557 64 472 q 238 689 157 642 q 421 736 319 736 q 603 689 522 736 q 729 558 683 642 q 775 365 775 474 l 774 335 m 421 651 q 244 584 315 651 q 163 408 172 517 l 681 408 q 599 584 671 517 q 421 651 528 651 m 108 1015 l 218 1015 l 351 843 l 264 843 l 108 1015 m 333 1015 l 443 1015 l 578 843 l 490 843 l 333 1015 z "},"ë":{"ha":839,"x_min":64,"x_max":775,"o":"m 774 335 l 163 335 q 250 151 171 221 q 450 81 329 81 q 575 105 518 81 q 674 176 632 129 l 729 113 q 608 24 681 54 q 447 -7 535 -7 q 248 41 335 -7 q 113 174 161 89 q 64 365 64 258 q 110 557 64 472 q 238 689 157 642 q 421 736 319 736 q 603 689 522 736 q 729 558 683 642 q 775 365 775 474 l 774 335 m 421 651 q 244 584 315 651 q 163 408 172 517 l 681 408 q 599 584 671 517 q 421 651 528 651 m 297 875 q 255 892 272 875 q 238 935 238 908 q 255 977 238 960 q 297 994 272 994 q 339 977 321 994 q 357 935 357 960 q 340 892 357 910 q 297 875 322 875 m 544 875 q 502 892 519 875 q 485 935 485 910 q 503 977 485 960 q 544 994 521 994 q 587 977 569 994 q 604 935 604 960 q 587 892 604 908 q 544 875 569 875 z "},"ė":{"ha":839,"x_min":64,"x_max":775,"o":"m 774 335 l 163 335 q 250 151 171 221 q 450 81 329 81 q 575 105 518 81 q 674 176 632 129 l 729 113 q 608 24 681 54 q 447 -7 535 -7 q 248 41 335 -7 q 113 174 161 89 q 64 365 64 258 q 110 557 64 472 q 238 689 157 642 q 421 736 319 736 q 603 689 522 736 q 729 558 683 642 q 775 365 775 474 l 774 335 m 421 651 q 244 584 315 651 q 163 408 172 517 l 681 408 q 599 584 671 517 q 421 651 528 651 m 421 875 q 374 894 393 875 q 354 942 354 914 q 374 989 354 969 q 421 1008 393 1008 q 468 989 449 1008 q 488 942 488 969 q 468 894 488 914 q 421 875 449 875 z "},"ẹ":{"ha":839,"x_min":64,"x_max":775,"o":"m 774 335 l 163 335 q 250 151 171 221 q 450 81 329 81 q 575 105 518 81 q 674 176 632 129 l 729 113 q 608 24 681 54 q 447 -7 535 -7 q 248 41 335 -7 q 113 174 161 89 q 64 365 64 258 q 110 557 64 472 q 238 689 157 642 q 421 736 319 736 q 603 689 522 736 q 729 558 683 642 q 775 365 775 474 l 774 335 m 421 651 q 244 584 315 651 q 163 408 172 517 l 681 408 q 599 584 671 517 q 421 651 528 651 m 421 -264 q 378 -247 396 -264 q 361 -204 361 -231 q 378 -161 361 -178 q 421 -144 396 -144 q 463 -161 446 -144 q 481 -204 481 -178 q 463 -247 481 -231 q 421 -264 446 -264 z "},"è":{"ha":839,"x_min":64,"x_max":775,"o":"m 774 335 l 163 335 q 250 151 171 221 q 450 81 329 81 q 575 105 518 81 q 674 176 632 129 l 729 113 q 608 24 681 54 q 447 -7 535 -7 q 248 41 335 -7 q 113 174 161 89 q 64 365 64 258 q 110 557 64 472 q 238 689 157 642 q 421 736 319 736 q 603 689 522 736 q 729 558 683 642 q 775 365 775 474 l 774 335 m 421 651 q 244 584 315 651 q 163 408 172 517 l 681 408 q 599 584 671 517 q 421 651 528 651 m 189 1015 l 321 1015 l 511 843 l 414 843 l 189 1015 z "},"ẻ":{"ha":839,"x_min":64,"x_max":775,"o":"m 774 335 l 163 335 q 250 151 171 221 q 450 81 329 81 q 575 105 518 81 q 674 176 632 129 l 729 113 q 608 24 681 54 q 447 -7 535 -7 q 248 41 335 -7 q 113 174 161 89 q 64 365 64 258 q 110 557 64 472 q 238 689 157 642 q 421 736 319 736 q 603 689 522 736 q 729 558 683 642 q 775 365 775 474 l 774 335 m 421 651 q 244 584 315 651 q 163 408 172 517 l 681 408 q 599 584 671 517 q 421 651 528 651 m 404 876 q 486 975 486 914 q 465 1024 486 1004 q 410 1043 443 1043 q 326 1017 367 1043 l 303 1065 q 356 1092 325 1082 q 418 1101 388 1101 q 513 1069 476 1101 q 550 982 550 1036 q 439 833 550 885 l 404 876 z "},"ȇ":{"ha":839,"x_min":64,"x_max":775,"o":"m 774 335 l 163 335 q 250 151 171 221 q 450 81 329 81 q 575 105 518 81 q 674 176 632 129 l 729 113 q 608 24 681 54 q 447 -7 535 -7 q 248 41 335 -7 q 113 174 161 89 q 64 365 64 258 q 110 557 64 472 q 238 689 157 642 q 421 736 319 736 q 603 689 522 736 q 729 558 683 642 q 775 365 775 474 l 774 335 m 421 651 q 244 584 315 651 q 163 408 172 517 l 681 408 q 599 584 671 517 q 421 651 528 651 m 210 843 q 272 973 213 925 q 421 1021 332 1021 q 569 973 510 1021 q 632 843 629 925 l 563 843 q 521 928 561 896 q 421 961 481 961 q 321 928 361 961 q 279 843 281 896 l 210 843 z "},"ē":{"ha":839,"x_min":64,"x_max":775,"o":"m 774 335 l 163 335 q 250 151 171 221 q 450 81 329 81 q 575 105 518 81 q 674 176 632 129 l 729 113 q 608 24 681 54 q 447 -7 535 -7 q 248 41 335 -7 q 113 174 161 89 q 64 365 64 258 q 110 557 64 472 q 238 689 157 642 q 421 736 319 736 q 603 689 522 736 q 729 558 683 642 q 775 365 775 474 l 774 335 m 421 651 q 244 584 315 651 q 163 408 172 517 l 681 408 q 599 584 671 517 q 421 651 528 651 m 207 961 l 635 961 l 635 896 l 207 896 l 207 961 z "},"ḗ":{"ha":839,"x_min":64,"x_max":775,"o":"m 774 335 l 163 335 q 250 151 171 221 q 450 81 329 81 q 575 105 518 81 q 674 176 632 129 l 729 113 q 608 24 681 54 q 447 -7 535 -7 q 248 41 335 -7 q 113 174 161 89 q 64 365 64 258 q 110 557 64 472 q 238 689 157 642 q 421 736 319 736 q 603 689 522 736 q 729 558 683 642 q 775 365 775 474 l 774 335 m 421 651 q 244 584 315 651 q 163 408 172 517 l 681 408 q 599 584 671 517 q 421 651 528 651 z "},"ḕ":{"ha":839,"x_min":64,"x_max":775,"o":"m 774 335 l 163 335 q 250 151 171 221 q 450 81 329 81 q 575 105 518 81 q 674 176 632 129 l 729 113 q 608 24 681 54 q 447 -7 535 -7 q 248 41 335 -7 q 113 174 161 89 q 64 365 64 258 q 110 557 64 472 q 238 689 157 642 q 421 736 319 736 q 603 689 522 736 q 729 558 683 642 q 775 365 775 474 l 774 335 m 421 651 q 244 584 315 651 q 163 408 172 517 l 681 408 q 599 584 671 517 q 421 651 528 651 z "},"ę":{"ha":839,"x_min":64,"x_max":775,"o":"m 774 335 l 163 335 q 250 151 171 221 q 450 81 329 81 q 575 105 518 81 q 674 176 632 129 l 729 113 q 676 63 715 97 q 551 -67 585 -17 q 517 -164 517 -118 q 542 -224 517 -204 q 608 -244 567 -244 q 655 -237 632 -244 q 693 -218 678 -231 l 715 -272 q 597 -306 665 -306 q 486 -269 528 -306 q 444 -169 444 -232 q 524 0 444 -81 q 447 -7 482 -7 q 248 41 335 -7 q 113 174 161 89 q 64 365 64 258 q 110 557 64 472 q 238 689 157 642 q 421 736 319 736 q 603 689 522 736 q 729 558 683 642 q 775 365 775 474 l 774 335 m 421 651 q 244 584 315 651 q 163 408 172 517 l 681 408 q 599 584 671 517 q 421 651 528 651 z "},"ẽ":{"ha":839,"x_min":64,"x_max":775,"o":"m 774 335 l 163 335 q 250 151 171 221 q 450 81 329 81 q 575 105 518 81 q 674 176 632 129 l 729 113 q 608 24 681 54 q 447 -7 535 -7 q 248 41 335 -7 q 113 174 161 89 q 64 365 64 258 q 110 557 64 472 q 238 689 157 642 q 421 736 319 736 q 603 689 522 736 q 729 558 683 642 q 775 365 775 474 l 774 335 m 421 651 q 244 584 315 651 q 163 408 172 517 l 681 408 q 599 584 671 517 q 421 651 528 651 m 515 851 q 458 866 483 851 q 404 907 433 881 q 365 937 379 928 q 333 946 350 946 q 282 922 301 946 q 261 857 263 899 l 201 857 q 238 968 204 926 q 326 1010 271 1010 q 383 996 358 1010 q 439 954 407 982 q 476 925 461 935 q 508 915 492 915 q 558 938 539 915 q 581 1001 578 961 l 640 1001 q 604 892 638 933 q 515 851 571 851 z "},"ə":{"ha":839,"x_min":64,"x_max":775,"o":"m 392 736 q 591 689 504 736 q 726 557 678 642 q 775 365 775 472 q 728 174 775 258 q 601 41 682 89 q 418 -7 519 -7 q 236 40 317 -7 q 110 172 156 88 q 64 365 64 257 l 65 394 l 678 394 q 634 528 672 469 q 532 618 596 586 q 389 650 468 650 q 264 626 321 650 q 165 553 207 601 l 110 618 q 231 706 158 676 q 392 736 304 736 m 418 78 q 595 145 524 78 q 678 321 667 213 l 158 321 q 240 146 168 214 q 418 78 311 78 z "},"ʒ":{"ha":714,"x_min":-31,"x_max":664,"o":"m 346 301 q 583 218 501 294 q 664 17 664 142 q 624 -135 664 -68 q 506 -240 585 -201 q 314 -278 426 -278 q 115 -243 208 -278 q -31 -150 22 -208 l 10 -69 q 138 -154 57 -122 q 311 -186 218 -186 q 497 -132 432 -186 q 563 17 563 -78 q 497 166 563 113 q 300 219 432 219 l 231 219 l 231 290 l 506 642 l 3 642 l 3 731 l 624 731 l 624 658 l 346 301 z "},"ǯ":{"ha":714,"x_min":-31,"x_max":664,"o":"m 346 301 q 583 218 501 294 q 664 17 664 142 q 624 -135 664 -68 q 506 -240 585 -201 q 314 -278 426 -278 q 115 -243 208 -278 q -31 -150 22 -208 l 10 -69 q 138 -154 57 -122 q 311 -186 218 -186 q 497 -132 432 -186 q 563 17 563 -78 q 497 166 563 113 q 300 219 432 219 l 231 219 l 231 290 l 506 642 l 3 642 l 3 731 l 624 731 l 624 658 l 346 301 m 536 1015 l 357 843 l 257 843 l 78 1015 l 169 1015 l 307 901 l 444 1015 l 536 1015 z "},"f":{"ha":471,"x_min":24,"x_max":521,"o":"m 379 954 q 283 919 315 954 q 250 817 250 885 l 250 731 l 475 731 l 475 647 l 253 647 l 253 0 l 154 0 l 154 647 l 24 647 l 24 731 l 154 731 l 154 821 q 212 979 154 921 q 375 1038 269 1038 q 456 1026 417 1038 q 521 992 494 1014 l 488 918 q 379 954 444 954 z "},"g":{"ha":953,"x_min":64,"x_max":814,"o":"m 814 731 l 814 89 q 723 -187 814 -97 q 449 -276 632 -276 q 256 -247 347 -276 q 108 -164 165 -217 l 158 -89 q 287 -162 211 -136 q 446 -189 363 -189 q 650 -124 585 -189 q 715 76 715 -60 l 715 169 q 595 64 669 100 q 431 28 521 28 q 244 73 328 28 q 112 199 160 118 q 64 383 64 281 q 112 567 64 486 q 243 692 160 647 q 431 736 326 736 q 599 699 524 736 q 719 590 674 661 l 719 731 l 814 731 m 440 115 q 583 149 519 115 q 683 244 647 183 q 718 383 718 306 q 683 522 718 461 q 584 616 647 582 q 440 650 521 650 q 298 617 361 650 q 199 522 235 583 q 164 383 164 461 q 199 244 164 306 q 298 149 235 183 q 440 115 361 115 z "},"ğ":{"ha":953,"x_min":64,"x_max":814,"o":"m 814 731 l 814 89 q 723 -187 814 -97 q 449 -276 632 -276 q 256 -247 347 -276 q 108 -164 165 -217 l 158 -89 q 287 -162 211 -136 q 446 -189 363 -189 q 650 -124 585 -189 q 715 76 715 -60 l 715 169 q 595 64 669 100 q 431 28 521 28 q 244 73 328 28 q 112 199 160 118 q 64 383 64 281 q 112 567 64 486 q 243 692 160 647 q 431 736 326 736 q 599 699 524 736 q 719 590 674 661 l 719 731 l 814 731 m 440 115 q 583 149 519 115 q 683 244 647 183 q 718 383 718 306 q 683 522 718 461 q 584 616 647 582 q 440 650 521 650 q 298 617 361 650 q 199 522 235 583 q 164 383 164 461 q 199 244 164 306 q 298 149 235 183 q 440 115 361 115 m 451 836 q 303 885 363 836 q 240 1015 243 933 l 310 1015 q 351 929 311 961 q 451 897 392 897 q 551 929 511 897 q 593 1015 592 961 l 663 1015 q 600 885 660 933 q 451 836 540 836 z "},"ǧ":{"ha":953,"x_min":64,"x_max":814,"o":"m 814 731 l 814 89 q 723 -187 814 -97 q 449 -276 632 -276 q 256 -247 347 -276 q 108 -164 165 -217 l 158 -89 q 287 -162 211 -136 q 446 -189 363 -189 q 650 -124 585 -189 q 715 76 715 -60 l 715 169 q 595 64 669 100 q 431 28 521 28 q 244 73 328 28 q 112 199 160 118 q 64 383 64 281 q 112 567 64 486 q 243 692 160 647 q 431 736 326 736 q 599 699 524 736 q 719 590 674 661 l 719 731 l 814 731 m 440 115 q 583 149 519 115 q 683 244 647 183 q 718 383 718 306 q 683 522 718 461 q 584 616 647 582 q 440 650 521 650 q 298 617 361 650 q 199 522 235 583 q 164 383 164 461 q 199 244 164 306 q 298 149 235 183 q 440 115 361 115 m 681 1015 l 501 843 l 401 843 l 222 1015 l 314 1015 l 451 901 l 589 1015 l 681 1015 z "},"ĝ":{"ha":953,"x_min":64,"x_max":814,"o":"m 814 731 l 814 89 q 723 -187 814 -97 q 449 -276 632 -276 q 256 -247 347 -276 q 108 -164 165 -217 l 158 -89 q 287 -162 211 -136 q 446 -189 363 -189 q 650 -124 585 -189 q 715 76 715 -60 l 715 169 q 595 64 669 100 q 431 28 521 28 q 244 73 328 28 q 112 199 160 118 q 64 383 64 281 q 112 567 64 486 q 243 692 160 647 q 431 736 326 736 q 599 699 524 736 q 719 590 674 661 l 719 731 l 814 731 m 440 115 q 583 149 519 115 q 683 244 647 183 q 718 383 718 306 q 683 522 718 461 q 584 616 647 582 q 440 650 521 650 q 298 617 361 650 q 199 522 235 583 q 164 383 164 461 q 199 244 164 306 q 298 149 235 183 q 440 115 361 115 m 589 843 l 451 958 l 314 843 l 222 843 l 401 1015 l 501 1015 l 681 843 l 589 843 z "},"ģ":{"ha":953,"x_min":64,"x_max":814,"o":"m 814 731 l 814 89 q 723 -187 814 -97 q 449 -276 632 -276 q 256 -247 347 -276 q 108 -164 165 -217 l 158 -89 q 287 -162 211 -136 q 446 -189 363 -189 q 650 -124 585 -189 q 715 76 715 -60 l 715 169 q 595 64 669 100 q 431 28 521 28 q 244 73 328 28 q 112 199 160 118 q 64 383 64 281 q 112 567 64 486 q 243 692 160 647 q 431 736 326 736 q 599 699 524 736 q 719 590 674 661 l 719 731 l 814 731 m 440 115 q 583 149 519 115 q 683 244 647 183 q 718 383 718 306 q 683 522 718 461 q 584 616 647 582 q 440 650 521 650 q 298 617 361 650 q 199 522 235 583 q 164 383 164 461 q 199 244 164 306 q 298 149 235 183 q 440 115 361 115 m 472 942 q 503 924 492 938 q 515 890 515 910 q 498 851 515 867 q 451 836 481 836 q 404 851 421 836 q 388 890 388 867 q 392 919 388 904 q 403 951 396 933 l 451 1085 l 511 1085 l 472 942 z "},"ġ":{"ha":953,"x_min":64,"x_max":814,"o":"m 814 731 l 814 89 q 723 -187 814 -97 q 449 -276 632 -276 q 256 -247 347 -276 q 108 -164 165 -217 l 158 -89 q 287 -162 211 -136 q 446 -189 363 -189 q 650 -124 585 -189 q 715 76 715 -60 l 715 169 q 595 64 669 100 q 431 28 521 28 q 244 73 328 28 q 112 199 160 118 q 64 383 64 281 q 112 567 64 486 q 243 692 160 647 q 431 736 326 736 q 599 699 524 736 q 719 590 674 661 l 719 731 l 814 731 m 440 115 q 583 149 519 115 q 683 244 647 183 q 718 383 718 306 q 683 522 718 461 q 584 616 647 582 q 440 650 521 650 q 298 617 361 650 q 199 522 235 583 q 164 383 164 461 q 199 244 164 306 q 298 149 235 183 q 440 115 361 115 m 451 875 q 404 894 424 875 q 385 942 385 914 q 404 989 385 969 q 451 1008 424 1008 q 499 989 479 1008 q 518 942 518 969 q 499 894 518 914 q 451 875 479 875 z "},"ḡ":{"ha":953,"x_min":64,"x_max":814,"o":"m 814 731 l 814 89 q 723 -187 814 -97 q 449 -276 632 -276 q 256 -247 347 -276 q 108 -164 165 -217 l 158 -89 q 287 -162 211 -136 q 446 -189 363 -189 q 650 -124 585 -189 q 715 76 715 -60 l 715 169 q 595 64 669 100 q 431 28 521 28 q 244 73 328 28 q 112 199 160 118 q 64 383 64 281 q 112 567 64 486 q 243 692 160 647 q 431 736 326 736 q 599 699 524 736 q 719 590 674 661 l 719 731 l 814 731 m 440 115 q 583 149 519 115 q 683 244 647 183 q 718 383 718 306 q 683 522 718 461 q 584 616 647 582 q 440 650 521 650 q 298 617 361 650 q 199 522 235 583 q 164 383 164 461 q 199 244 164 306 q 298 149 235 183 q 440 115 361 115 m 238 961 l 665 961 l 665 896 l 238 896 l 238 961 z "},"ǥ":{"ha":960,"x_min":64,"x_max":903,"o":"m 903 -86 l 786 -86 q 666 -230 750 -183 q 449 -276 582 -276 q 256 -247 347 -276 q 108 -164 165 -217 l 158 -89 q 287 -162 211 -136 q 446 -189 363 -189 q 679 -86 619 -189 l 400 -86 l 400 -15 l 706 -15 q 715 76 715 24 l 715 185 q 595 84 669 119 q 431 49 521 49 q 244 92 328 49 q 112 215 160 136 q 64 393 64 293 q 112 572 64 493 q 243 693 160 650 q 431 736 326 736 q 599 700 524 736 q 719 594 674 664 l 719 731 l 814 731 l 814 89 q 806 -15 814 33 l 903 -15 l 903 -86 m 440 132 q 583 165 519 132 q 683 258 647 199 q 718 393 718 317 q 683 528 718 469 q 583 620 647 588 q 440 653 519 653 q 298 620 361 653 q 199 528 235 588 q 164 393 164 469 q 199 258 164 317 q 298 165 235 199 q 440 132 361 132 z "},"h":{"ha":940,"x_min":138,"x_max":810,"o":"m 510 736 q 728 656 647 736 q 810 424 810 576 l 810 0 l 711 0 l 711 414 q 654 588 711 528 q 492 647 597 647 q 305 577 374 647 q 236 383 236 507 l 236 0 l 138 0 l 138 1031 l 236 1031 l 236 603 q 347 701 276 667 q 510 736 418 736 z "},"ħ":{"ha":940,"x_min":0,"x_max":810,"o":"m 510 736 q 728 656 647 736 q 810 424 810 576 l 810 0 l 711 0 l 711 414 q 654 588 711 528 q 492 647 597 647 q 305 577 374 647 q 236 383 236 507 l 236 0 l 138 0 l 138 843 l 0 843 l 0 915 l 138 915 l 138 1031 l 236 1031 l 236 915 l 542 915 l 542 843 l 236 843 l 236 603 q 347 701 276 667 q 510 736 418 736 z "},"ḫ":{"ha":940,"x_min":138,"x_max":810,"o":"m 510 736 q 728 656 647 736 q 810 424 810 576 l 810 0 l 711 0 l 711 414 q 654 588 711 528 q 492 647 597 647 q 305 577 374 647 q 236 383 236 507 l 236 0 l 138 0 l 138 1031 l 236 1031 l 236 603 q 347 701 276 667 q 510 736 418 736 m 472 -285 q 324 -239 383 -285 q 261 -117 264 -193 l 328 -117 q 370 -197 329 -167 q 472 -228 411 -228 q 574 -197 533 -228 q 617 -117 615 -167 l 683 -117 q 621 -239 681 -193 q 472 -285 561 -285 z "},"ȟ":{"ha":940,"x_min":-42,"x_max":810,"o":"m 510 736 q 728 656 647 736 q 810 424 810 576 l 810 0 l 711 0 l 711 414 q 654 588 711 528 q 492 647 597 647 q 305 577 374 647 q 236 383 236 507 l 236 0 l 138 0 l 138 1031 l 236 1031 l 236 603 q 347 701 276 667 q 510 736 418 736 m 417 1317 l 238 1144 l 138 1144 l -42 1317 l 50 1317 l 188 1203 l 325 1317 l 417 1317 z "},"ĥ":{"ha":940,"x_min":-42,"x_max":810,"o":"m 510 736 q 728 656 647 736 q 810 424 810 576 l 810 0 l 711 0 l 711 414 q 654 588 711 528 q 492 647 597 647 q 305 577 374 647 q 236 383 236 507 l 236 0 l 138 0 l 138 1031 l 236 1031 l 236 603 q 347 701 276 667 q 510 736 418 736 z "},"ḥ":{"ha":940,"x_min":138,"x_max":810,"o":"m 510 736 q 728 656 647 736 q 810 424 810 576 l 810 0 l 711 0 l 711 414 q 654 588 711 528 q 492 647 597 647 q 305 577 374 647 q 236 383 236 507 l 236 0 l 138 0 l 138 1031 l 236 1031 l 236 603 q 347 701 276 667 q 510 736 418 736 m 472 -264 q 430 -247 447 -264 q 413 -204 413 -231 q 430 -161 413 -178 q 472 -144 447 -144 q 515 -161 497 -144 q 532 -204 532 -178 q 515 -247 532 -231 q 472 -264 497 -264 z "},"i":{"ha":374,"x_min":115,"x_max":260,"o":"m 138 731 l 236 731 l 236 0 l 138 0 l 138 731 m 188 890 q 136 911 157 890 q 115 961 115 932 q 136 1010 115 989 q 188 1031 157 1031 q 239 1010 218 1031 q 260 963 260 990 q 239 911 260 932 q 188 890 218 890 z "},"ı":{"ha":374,"x_min":138,"x_max":236,"o":"m 138 731 l 236 731 l 236 0 l 138 0 l 138 731 z "},"í":{"ha":374,"x_min":97,"x_max":419,"o":"m 138 731 l 236 731 l 236 0 l 138 0 l 138 731 m 288 1015 l 419 1015 l 194 843 l 97 843 l 288 1015 z "},"ĭ":{"ha":374,"x_min":11,"x_max":364,"o":"m 138 731 l 236 731 l 236 0 l 138 0 l 138 731 m 188 836 q 60 885 110 836 q 11 1015 11 933 l 78 1015 q 108 928 78 960 q 188 897 138 897 q 268 929 238 897 q 299 1015 299 961 l 364 1015 q 315 885 364 933 q 188 836 265 836 z "},"î":{"ha":374,"x_min":-7,"x_max":382,"o":"m 138 731 l 236 731 l 236 0 l 138 0 l 138 731 m 293 843 l 188 956 l 82 843 l -7 843 l 139 1015 l 236 1015 l 382 843 l 293 843 z "},"ȉ":{"ha":374,"x_min":-125,"x_max":344,"o":"m 138 731 l 236 731 l 236 0 l 138 0 l 138 731 m -125 1015 l -15 1015 l 118 843 l 31 843 l -125 1015 m 100 1015 l 210 1015 l 344 843 l 257 843 l 100 1015 z "},"ï":{"ha":374,"x_min":38,"x_max":338,"o":"m 138 731 l 236 731 l 236 0 l 138 0 l 138 731 m 96 875 q 54 892 71 875 q 38 935 38 910 q 54 976 38 958 q 96 993 71 993 q 136 976 119 993 q 153 935 153 960 q 136 892 153 908 q 96 875 119 875 m 279 875 q 239 892 256 875 q 222 935 222 910 q 239 976 222 958 q 279 993 256 993 q 321 976 304 993 q 338 935 338 960 q 321 892 338 908 q 279 875 304 875 z "},"ḯ":{"ha":374,"x_min":7,"x_max":390,"o":"m 138 731 l 236 731 l 236 0 l 138 0 l 138 731 z "},"ị":{"ha":374,"x_min":115,"x_max":260,"o":"m 138 731 l 236 731 l 236 0 l 138 0 l 138 731 m 188 890 q 136 911 157 890 q 115 961 115 932 q 136 1010 115 989 q 188 1031 157 1031 q 239 1010 218 1031 q 260 963 260 990 q 239 911 260 932 q 188 890 218 890 m 188 -264 q 145 -247 163 -264 q 128 -204 128 -231 q 145 -161 128 -178 q 188 -144 163 -144 q 230 -161 213 -144 q 247 -204 247 -178 q 230 -247 247 -231 q 188 -264 213 -264 z "},"ì":{"ha":374,"x_min":-44,"x_max":278,"o":"m 138 731 l 236 731 l 236 0 l 138 0 l 138 731 m -44 1015 l 88 1015 l 278 843 l 181 843 l -44 1015 z "},"ỉ":{"ha":374,"x_min":69,"x_max":317,"o":"m 138 731 l 236 731 l 236 0 l 138 0 l 138 731 m 171 876 q 253 975 253 914 q 231 1024 253 1004 q 176 1043 210 1043 q 93 1017 133 1043 l 69 1065 q 123 1092 92 1082 q 185 1101 154 1101 q 280 1069 243 1101 q 317 982 317 1036 q 206 833 317 885 l 171 876 z "},"ȋ":{"ha":374,"x_min":11,"x_max":364,"o":"m 138 731 l 236 731 l 236 0 l 138 0 l 138 731 m 11 843 q 60 973 11 925 q 188 1021 110 1021 q 315 973 265 1021 q 364 843 364 925 l 299 843 q 268 929 299 897 q 188 961 238 961 q 108 929 138 961 q 78 843 78 897 l 11 843 z "},"ĳ":{"ha":754,"x_min":115,"x_max":640,"o":"m 138 731 l 236 731 l 236 0 l 138 0 l 138 731 m 188 890 q 136 911 157 890 q 115 961 115 932 q 136 1010 115 989 q 188 1031 157 1031 q 239 1010 218 1031 q 260 963 260 990 q 239 911 260 932 q 188 890 218 890 z "},"ī":{"ha":374,"x_min":13,"x_max":363,"o":"m 138 731 l 236 731 l 236 0 l 138 0 l 138 731 m 13 961 l 363 961 l 363 896 l 13 896 l 13 961 z "},"į":{"ha":374,"x_min":83,"x_max":289,"o":"m 188 890 q 136 911 157 890 q 115 961 115 932 q 136 1010 115 989 q 188 1031 157 1031 q 239 1010 218 1031 q 260 963 260 990 q 239 911 260 932 q 188 890 218 890 m 289 -276 q 207 -306 260 -306 q 117 -271 151 -306 q 83 -179 83 -236 q 161 0 83 -85 l 138 0 l 138 731 l 236 731 l 236 0 q 172 -89 189 -49 q 156 -169 156 -129 q 174 -225 156 -204 q 218 -246 192 -246 q 269 -226 246 -246 l 289 -276 z "},"ĩ":{"ha":374,"x_min":3,"x_max":372,"o":"m 138 731 l 236 731 l 236 0 l 138 0 l 138 731 m 267 851 q 216 866 238 851 q 168 908 194 881 q 136 938 147 929 q 113 946 125 946 q 76 922 89 946 q 63 857 63 899 l 3 857 q 31 969 3 929 q 108 1010 58 1010 q 158 996 138 1010 q 207 954 179 982 q 239 925 228 933 q 263 917 250 917 q 299 939 286 917 q 313 1001 313 961 l 372 1001 q 344 892 372 932 q 267 851 317 851 z "},"j":{"ha":381,"x_min":-125,"x_max":267,"o":"m 29 -276 q -58 -265 -17 -276 q -125 -229 -99 -253 l -90 -154 q 24 -192 -47 -192 q 113 -157 82 -192 q 144 -54 144 -122 l 144 731 l 243 731 l 243 -54 q 188 -217 243 -157 q 29 -276 132 -276 m 194 890 q 143 911 164 890 q 122 961 122 932 q 143 1010 122 989 q 194 1031 164 1031 q 246 1010 225 1031 q 267 963 267 990 q 246 911 267 932 q 194 890 225 890 z "},"ȷ":{"ha":381,"x_min":-125,"x_max":243,"o":"m 29 -276 q -58 -265 -17 -276 q -125 -229 -99 -253 l -90 -154 q 24 -192 -47 -192 q 113 -157 82 -192 q 144 -54 144 -122 l 144 731 l 243 731 l 243 -54 q 188 -217 243 -157 q 29 -276 132 -276 z "},"ĵ":{"ha":381,"x_min":-125,"x_max":389,"o":"m 29 -276 q -58 -265 -17 -276 q -125 -229 -99 -253 l -90 -154 q 24 -192 -47 -192 q 113 -157 82 -192 q 144 -54 144 -122 l 144 731 l 243 731 l 243 -54 q 188 -217 243 -157 q 29 -276 132 -276 m 300 843 l 194 956 l 89 843 l 0 843 l 146 1015 l 243 1015 l 389 843 l 300 843 z "},"k":{"ha":835,"x_min":138,"x_max":824,"o":"m 408 367 l 236 208 l 236 0 l 138 0 l 138 1031 l 236 1031 l 236 332 l 672 731 l 794 731 l 482 432 l 824 0 l 703 0 l 408 367 z "},"ǩ":{"ha":835,"x_min":-42,"x_max":824,"o":"m 408 367 l 236 208 l 236 0 l 138 0 l 138 1031 l 236 1031 l 236 332 l 672 731 l 794 731 l 482 432 l 824 0 l 703 0 l 408 367 m 417 1317 l 238 1144 l 138 1144 l -42 1317 l 50 1317 l 188 1203 l 325 1317 l 417 1317 z "},"ķ":{"ha":835,"x_min":138,"x_max":824,"o":"m 408 367 l 236 208 l 236 0 l 138 0 l 138 1031 l 236 1031 l 236 332 l 672 731 l 794 731 l 482 432 l 824 0 l 703 0 l 408 367 m 432 -144 q 475 -160 458 -144 q 492 -199 492 -176 q 476 -261 492 -226 l 438 -364 l 383 -364 l 413 -250 q 383 -232 393 -246 q 372 -199 372 -218 q 389 -160 372 -175 q 432 -144 406 -144 z "},"ĸ":{"ha":819,"x_min":138,"x_max":824,"o":"m 408 367 l 236 208 l 236 0 l 138 0 l 138 731 l 236 731 l 236 332 l 672 731 l 794 731 l 482 432 l 824 0 l 703 0 l 408 367 z "},"l":{"ha":374,"x_min":138,"x_max":236,"o":"m 138 1031 l 236 1031 l 236 0 l 138 0 l 138 1031 z "},"ĺ":{"ha":374,"x_min":97,"x_max":419,"o":"m 138 1031 l 236 1031 l 236 0 l 138 0 l 138 1031 m 288 1317 l 419 1317 l 194 1144 l 97 1144 l 288 1317 z "},"ľ":{"ha":374,"x_min":138,"x_max":447,"o":"m 138 1031 l 236 1031 l 236 0 l 138 0 l 138 1031 m 364 1071 l 447 1071 l 435 808 l 364 808 l 364 1071 z "},"ļ":{"ha":374,"x_min":128,"x_max":247,"o":"m 138 1031 l 236 1031 l 236 0 l 138 0 l 138 1031 m 188 -144 q 231 -160 214 -144 q 247 -199 247 -176 q 232 -261 247 -226 l 193 -364 l 139 -364 l 168 -250 q 138 -232 149 -246 q 128 -199 128 -218 q 144 -160 128 -175 q 188 -144 161 -144 z "},"ŀ":{"ha":436,"x_min":138,"x_max":469,"o":"m 138 1031 l 236 1031 l 236 0 l 138 0 l 138 1031 m 404 428 q 358 447 376 428 q 339 493 339 465 q 358 540 339 521 q 404 558 376 558 q 451 540 432 558 q 469 493 469 521 q 451 447 469 467 q 404 428 432 428 z "},"ḷ":{"ha":374,"x_min":128,"x_max":247,"o":"m 138 1031 l 236 1031 l 236 0 l 138 0 l 138 1031 m 188 -264 q 145 -247 163 -264 q 128 -204 128 -231 q 145 -161 128 -178 q 188 -144 163 -144 q 230 -161 213 -144 q 247 -204 247 -178 q 230 -247 247 -231 q 188 -264 213 -264 z "},"ǉ":{"ha":754,"x_min":138,"x_max":640,"o":"m 138 1031 l 236 1031 l 236 0 l 138 0 l 138 1031 m 403 -276 q 316 -265 357 -276 q 249 -229 275 -253 l 283 -154 q 397 -192 326 -192 q 487 -157 456 -192 q 518 -54 518 -122 l 518 731 l 617 731 l 617 -54 q 561 -217 617 -157 q 403 -276 506 -276 m 568 890 q 517 911 538 890 q 496 961 496 932 q 517 1010 496 989 q 568 1031 538 1031 q 619 1010 599 1031 q 640 963 640 990 q 619 911 640 932 q 568 890 599 890 z "},"ḻ":{"ha":374,"x_min":-26,"x_max":401,"o":"m 138 1031 l 236 1031 l 236 0 l 138 0 l 138 1031 m -26 -169 l 401 -169 l 401 -235 l -26 -235 l -26 -169 z "},"ł":{"ha":388,"x_min":3,"x_max":383,"o":"m 243 483 l 243 0 l 144 0 l 144 410 l 49 338 l 3 397 l 144 504 l 144 1031 l 243 1031 l 243 578 l 339 650 l 383 589 l 243 483 z "},"m":{"ha":1474,"x_min":138,"x_max":1343,"o":"m 1049 736 q 1265 657 1186 736 q 1343 424 1343 578 l 1343 0 l 1244 0 l 1244 414 q 1190 588 1244 528 q 1035 647 1135 647 q 856 577 921 647 q 790 383 790 507 l 790 0 l 692 0 l 692 414 q 637 588 692 528 q 481 647 582 647 q 302 577 368 647 q 236 383 236 507 l 236 0 l 138 0 l 138 731 l 232 731 l 232 597 q 340 700 271 664 q 500 736 410 736 q 659 697 592 736 q 760 582 726 658 q 876 695 800 654 q 1049 736 951 736 z "},"ṃ":{"ha":1474,"x_min":138,"x_max":1343,"o":"m 1049 736 q 1265 657 1186 736 q 1343 424 1343 578 l 1343 0 l 1244 0 l 1244 414 q 1190 588 1244 528 q 1035 647 1135 647 q 856 577 921 647 q 790 383 790 507 l 790 0 l 692 0 l 692 414 q 637 588 692 528 q 481 647 582 647 q 302 577 368 647 q 236 383 236 507 l 236 0 l 138 0 l 138 731 l 232 731 l 232 597 q 340 700 271 664 q 500 736 410 736 q 659 697 592 736 q 760 582 726 658 q 876 695 800 654 q 1049 736 951 736 m 739 -264 q 697 -247 714 -264 q 679 -204 679 -231 q 697 -161 679 -178 q 739 -144 714 -144 q 781 -161 764 -144 q 799 -204 799 -178 q 781 -247 799 -231 q 739 -264 764 -264 z "},"n":{"ha":940,"x_min":138,"x_max":810,"o":"m 510 736 q 728 656 647 736 q 810 424 810 576 l 810 0 l 711 0 l 711 414 q 654 588 711 528 q 492 647 597 647 q 305 577 374 647 q 236 383 236 507 l 236 0 l 138 0 l 138 731 l 232 731 l 232 596 q 344 699 272 663 q 510 736 415 736 z "},"ń":{"ha":940,"x_min":138,"x_max":810,"o":"m 510 736 q 728 656 647 736 q 810 424 810 576 l 810 0 l 711 0 l 711 414 q 654 588 711 528 q 492 647 597 647 q 305 577 374 647 q 236 383 236 507 l 236 0 l 138 0 l 138 731 l 232 731 l 232 596 q 344 699 272 663 q 510 736 415 736 m 572 1015 l 704 1015 l 479 843 l 382 843 l 572 1015 z "},"ŉ":{"ha":1001,"x_min":32,"x_max":872,"o":"m 572 736 q 791 656 710 736 q 872 424 872 576 l 872 0 l 774 0 l 774 414 q 717 588 774 528 q 554 647 660 647 q 367 577 436 647 q 299 383 299 507 l 299 0 l 200 0 l 200 731 l 294 731 l 294 596 q 406 699 335 663 q 572 736 478 736 z "},"ň":{"ha":940,"x_min":138,"x_max":810,"o":"m 510 736 q 728 656 647 736 q 810 424 810 576 l 810 0 l 711 0 l 711 414 q 654 588 711 528 q 492 647 597 647 q 305 577 374 647 q 236 383 236 507 l 236 0 l 138 0 l 138 731 l 232 731 l 232 596 q 344 699 272 663 q 510 736 415 736 m 701 1015 l 522 843 l 422 843 l 243 1015 l 335 1015 l 472 901 l 610 1015 l 701 1015 z "},"ņ":{"ha":940,"x_min":138,"x_max":810,"o":"m 510 736 q 728 656 647 736 q 810 424 810 576 l 810 0 l 711 0 l 711 414 q 654 588 711 528 q 492 647 597 647 q 305 577 374 647 q 236 383 236 507 l 236 0 l 138 0 l 138 731 l 232 731 l 232 596 q 344 699 272 663 q 510 736 415 736 m 472 -144 q 515 -160 499 -144 q 532 -199 532 -176 q 517 -261 532 -226 l 478 -364 l 424 -364 l 453 -250 q 423 -232 433 -246 q 413 -199 413 -218 q 429 -160 413 -175 q 472 -144 446 -144 z "},"ṅ":{"ha":940,"x_min":138,"x_max":810,"o":"m 510 736 q 728 656 647 736 q 810 424 810 576 l 810 0 l 711 0 l 711 414 q 654 588 711 528 q 492 647 597 647 q 305 577 374 647 q 236 383 236 507 l 236 0 l 138 0 l 138 731 l 232 731 l 232 596 q 344 699 272 663 q 510 736 415 736 m 472 875 q 425 894 444 875 q 406 942 406 914 q 425 989 406 969 q 472 1008 444 1008 q 519 989 500 1008 q 539 942 539 969 q 519 894 539 914 q 472 875 500 875 z "},"ṇ":{"ha":940,"x_min":138,"x_max":810,"o":"m 510 736 q 728 656 647 736 q 810 424 810 576 l 810 0 l 711 0 l 711 414 q 654 588 711 528 q 492 647 597 647 q 305 577 374 647 q 236 383 236 507 l 236 0 l 138 0 l 138 731 l 232 731 l 232 596 q 344 699 272 663 q 510 736 415 736 m 472 -264 q 430 -247 447 -264 q 413 -204 413 -231 q 430 -161 413 -178 q 472 -144 447 -144 q 515 -161 497 -144 q 532 -204 532 -178 q 515 -247 532 -231 q 472 -264 497 -264 z "},"ŋ":{"ha":940,"x_min":138,"x_max":810,"o":"m 510 736 q 728 656 647 736 q 810 424 810 576 l 810 -54 q 753 -217 810 -157 q 596 -276 697 -276 q 509 -265 550 -276 q 442 -229 468 -253 l 476 -154 q 590 -192 518 -192 q 680 -157 649 -192 q 711 -54 711 -122 l 711 414 q 654 588 711 528 q 492 647 597 647 q 305 577 374 647 q 236 383 236 507 l 236 0 l 138 0 l 138 731 l 232 731 l 232 596 q 344 699 272 663 q 510 736 415 736 z "},"ǌ":{"ha":1321,"x_min":138,"x_max":1207,"o":"m 510 736 q 728 656 647 736 q 810 424 810 576 l 810 0 l 711 0 l 711 414 q 654 588 711 528 q 492 647 597 647 q 305 577 374 647 q 236 383 236 507 l 236 0 l 138 0 l 138 731 l 232 731 l 232 596 q 344 699 272 663 q 510 736 415 736 m 969 -276 q 883 -265 924 -276 q 815 -229 842 -253 l 850 -154 q 964 -192 893 -192 q 1053 -157 1022 -192 q 1085 -54 1085 -122 l 1085 731 l 1183 731 l 1183 -54 q 1128 -217 1183 -157 q 969 -276 1072 -276 m 1135 890 q 1083 911 1104 890 q 1063 961 1063 932 q 1083 1010 1063 989 q 1135 1031 1104 1031 q 1186 1010 1165 1031 q 1207 963 1207 990 q 1186 911 1207 932 q 1135 890 1165 890 z "},"ṉ":{"ha":940,"x_min":138,"x_max":810,"o":"m 510 736 q 728 656 647 736 q 810 424 810 576 l 810 0 l 711 0 l 711 414 q 654 588 711 528 q 492 647 597 647 q 305 577 374 647 q 236 383 236 507 l 236 0 l 138 0 l 138 731 l 232 731 l 232 596 q 344 699 272 663 q 510 736 415 736 m 258 -169 l 686 -169 l 686 -235 l 258 -235 l 258 -169 z "},"ñ":{"ha":940,"x_min":138,"x_max":810,"o":"m 510 736 q 728 656 647 736 q 810 424 810 576 l 810 0 l 711 0 l 711 414 q 654 588 711 528 q 492 647 597 647 q 305 577 374 647 q 236 383 236 507 l 236 0 l 138 0 l 138 731 l 232 731 l 232 596 q 344 699 272 663 q 510 736 415 736 m 567 851 q 510 866 535 851 q 456 907 485 881 q 416 937 431 928 q 385 946 401 946 q 333 922 353 946 q 313 857 314 899 l 253 857 q 289 968 256 926 q 378 1010 322 1010 q 434 996 410 1010 q 490 954 458 982 q 528 925 513 935 q 560 915 543 915 q 610 938 590 915 q 632 1001 629 961 l 692 1001 q 656 892 689 933 q 567 851 622 851 z "},"o":{"ha":871,"x_min":64,"x_max":807,"o":"m 436 -7 q 246 41 331 -7 q 113 174 161 89 q 64 365 64 258 q 113 557 64 472 q 246 689 161 642 q 436 736 331 736 q 626 689 542 736 q 759 557 711 642 q 807 365 807 472 q 759 174 807 258 q 626 41 711 89 q 436 -7 542 -7 m 436 81 q 576 116 514 81 q 672 217 638 151 q 707 365 707 282 q 672 514 707 449 q 576 615 638 579 q 436 650 514 650 q 297 615 358 650 q 199 514 235 579 q 164 365 164 449 q 199 217 164 282 q 297 116 235 151 q 436 81 358 81 z "},"ó":{"ha":871,"x_min":64,"x_max":807,"o":"m 436 -7 q 246 41 331 -7 q 113 174 161 89 q 64 365 64 258 q 113 557 64 472 q 246 689 161 642 q 436 736 331 736 q 626 689 542 736 q 759 557 711 642 q 807 365 807 472 q 759 174 807 258 q 626 41 711 89 q 436 -7 542 -7 m 436 81 q 576 116 514 81 q 672 217 638 151 q 707 365 707 282 q 672 514 707 449 q 576 615 638 579 q 436 650 514 650 q 297 615 358 650 q 199 514 235 579 q 164 365 164 449 q 199 217 164 282 q 297 116 235 151 q 436 81 358 81 m 535 1015 l 667 1015 l 442 843 l 344 843 l 535 1015 z "},"ŏ":{"ha":871,"x_min":64,"x_max":807,"o":"m 436 -7 q 246 41 331 -7 q 113 174 161 89 q 64 365 64 258 q 113 557 64 472 q 246 689 161 642 q 436 736 331 736 q 626 689 542 736 q 759 557 711 642 q 807 365 807 472 q 759 174 807 258 q 626 41 711 89 q 436 -7 542 -7 m 436 81 q 576 116 514 81 q 672 217 638 151 q 707 365 707 282 q 672 514 707 449 q 576 615 638 579 q 436 650 514 650 q 297 615 358 650 q 199 514 235 579 q 164 365 164 449 q 199 217 164 282 q 297 116 235 151 q 436 81 358 81 m 435 836 q 286 885 346 836 q 224 1015 226 933 l 293 1015 q 335 929 294 961 q 435 897 375 897 q 535 929 494 897 q 576 1015 575 961 l 646 1015 q 583 885 643 933 q 435 836 524 836 z "},"ô":{"ha":871,"x_min":64,"x_max":807,"o":"m 436 -7 q 246 41 331 -7 q 113 174 161 89 q 64 365 64 258 q 113 557 64 472 q 246 689 161 642 q 436 736 331 736 q 626 689 542 736 q 759 557 711 642 q 807 365 807 472 q 759 174 807 258 q 626 41 711 89 q 436 -7 542 -7 m 436 81 q 576 116 514 81 q 672 217 638 151 q 707 365 707 282 q 672 514 707 449 q 576 615 638 579 q 436 650 514 650 q 297 615 358 650 q 199 514 235 579 q 164 365 164 449 q 199 217 164 282 q 297 116 235 151 q 436 81 358 81 m 572 843 l 435 958 l 297 843 l 206 843 l 385 1015 l 485 1015 l 664 843 l 572 843 z "},"ố":{"ha":871,"x_min":64,"x_max":849,"o":"m 436 -7 q 246 41 331 -7 q 113 174 161 89 q 64 365 64 258 q 113 557 64 472 q 246 689 161 642 q 436 736 331 736 q 626 689 542 736 q 759 557 711 642 q 807 365 807 472 q 759 174 807 258 q 626 41 711 89 q 436 -7 542 -7 m 436 81 q 576 116 514 81 q 672 217 638 151 q 707 365 707 282 q 672 514 707 449 q 576 615 638 579 q 436 650 514 650 q 297 615 358 650 q 199 514 235 579 q 164 365 164 449 q 199 217 164 282 q 297 116 235 151 q 436 81 358 81 z "},"ộ":{"ha":871,"x_min":64,"x_max":807,"o":"m 436 -7 q 246 41 331 -7 q 113 174 161 89 q 64 365 64 258 q 113 557 64 472 q 246 689 161 642 q 436 736 331 736 q 626 689 542 736 q 759 557 711 642 q 807 365 807 472 q 759 174 807 258 q 626 41 711 89 q 436 -7 542 -7 m 436 81 q 576 116 514 81 q 672 217 638 151 q 707 365 707 282 q 672 514 707 449 q 576 615 638 579 q 436 650 514 650 q 297 615 358 650 q 199 514 235 579 q 164 365 164 449 q 199 217 164 282 q 297 116 235 151 q 436 81 358 81 m 435 -264 q 392 -247 410 -264 q 375 -204 375 -231 q 392 -161 375 -178 q 435 -144 410 -144 q 477 -161 460 -144 q 494 -204 494 -178 q 477 -247 494 -231 q 435 -264 460 -264 m 572 843 l 435 958 l 297 843 l 206 843 l 385 1015 l 485 1015 l 664 843 l 572 843 z "},"ồ":{"ha":871,"x_min":64,"x_max":807,"o":"m 436 -7 q 246 41 331 -7 q 113 174 161 89 q 64 365 64 258 q 113 557 64 472 q 246 689 161 642 q 436 736 331 736 q 626 689 542 736 q 759 557 711 642 q 807 365 807 472 q 759 174 807 258 q 626 41 711 89 q 436 -7 542 -7 m 436 81 q 576 116 514 81 q 672 217 638 151 q 707 365 707 282 q 672 514 707 449 q 576 615 638 579 q 436 650 514 650 q 297 615 358 650 q 199 514 235 579 q 164 365 164 449 q 199 217 164 282 q 297 116 235 151 q 436 81 358 81 z "},"ổ":{"ha":871,"x_min":64,"x_max":807,"o":"m 436 -7 q 246 41 331 -7 q 113 174 161 89 q 64 365 64 258 q 113 557 64 472 q 246 689 161 642 q 436 736 331 736 q 626 689 542 736 q 759 557 711 642 q 807 365 807 472 q 759 174 807 258 q 626 41 711 89 q 436 -7 542 -7 m 436 81 q 576 116 514 81 q 672 217 638 151 q 707 365 707 282 q 672 514 707 449 q 576 615 638 579 q 436 650 514 650 q 297 615 358 650 q 199 514 235 579 q 164 365 164 449 q 199 217 164 282 q 297 116 235 151 q 436 81 358 81 z "},"ỗ":{"ha":871,"x_min":64,"x_max":807,"o":"m 436 -7 q 246 41 331 -7 q 113 174 161 89 q 64 365 64 258 q 113 557 64 472 q 246 689 161 642 q 436 736 331 736 q 626 689 542 736 q 759 557 711 642 q 807 365 807 472 q 759 174 807 258 q 626 41 711 89 q 436 -7 542 -7 m 436 81 q 576 116 514 81 q 672 217 638 151 q 707 365 707 282 q 672 514 707 449 q 576 615 638 579 q 436 650 514 650 q 297 615 358 650 q 199 514 235 579 q 164 365 164 449 q 199 217 164 282 q 297 116 235 151 q 436 81 358 81 z "},"ȍ":{"ha":871,"x_min":64,"x_max":807,"o":"m 436 -7 q 246 41 331 -7 q 113 174 161 89 q 64 365 64 258 q 113 557 64 472 q 246 689 161 642 q 436 736 331 736 q 626 689 542 736 q 759 557 711 642 q 807 365 807 472 q 759 174 807 258 q 626 41 711 89 q 436 -7 542 -7 m 436 81 q 576 116 514 81 q 672 217 638 151 q 707 365 707 282 q 672 514 707 449 q 576 615 638 579 q 436 650 514 650 q 297 615 358 650 q 199 514 235 579 q 164 365 164 449 q 199 217 164 282 q 297 116 235 151 q 436 81 358 81 m 122 1015 l 232 1015 l 365 843 l 278 843 l 122 1015 m 347 1015 l 457 1015 l 592 843 l 504 843 l 347 1015 z "},"ö":{"ha":871,"x_min":64,"x_max":807,"o":"m 436 -7 q 246 41 331 -7 q 113 174 161 89 q 64 365 64 258 q 113 557 64 472 q 246 689 161 642 q 436 736 331 736 q 626 689 542 736 q 759 557 711 642 q 807 365 807 472 q 759 174 807 258 q 626 41 711 89 q 436 -7 542 -7 m 436 81 q 576 116 514 81 q 672 217 638 151 q 707 365 707 282 q 672 514 707 449 q 576 615 638 579 q 436 650 514 650 q 297 615 358 650 q 199 514 235 579 q 164 365 164 449 q 199 217 164 282 q 297 116 235 151 q 436 81 358 81 m 311 875 q 269 892 286 875 q 251 935 251 908 q 269 977 251 960 q 311 994 286 994 q 353 977 335 994 q 371 935 371 960 q 353 892 371 910 q 311 875 336 875 m 558 875 q 516 892 533 875 q 499 935 499 910 q 517 977 499 960 q 558 994 535 994 q 601 977 583 994 q 618 935 618 960 q 601 892 618 908 q 558 875 583 875 z "},"ȫ":{"ha":871,"x_min":64,"x_max":807,"o":"m 436 -7 q 246 41 331 -7 q 113 174 161 89 q 64 365 64 258 q 113 557 64 472 q 246 689 161 642 q 436 736 331 736 q 626 689 542 736 q 759 557 711 642 q 807 365 807 472 q 759 174 807 258 q 626 41 711 89 q 436 -7 542 -7 m 436 81 q 576 116 514 81 q 672 217 638 151 q 707 365 707 282 q 672 514 707 449 q 576 615 638 579 q 436 650 514 650 q 297 615 358 650 q 199 514 235 579 q 164 365 164 449 q 199 217 164 282 q 297 116 235 151 q 436 81 358 81 z "},"ȱ":{"ha":871,"x_min":64,"x_max":807,"o":"m 436 -7 q 246 41 331 -7 q 113 174 161 89 q 64 365 64 258 q 113 557 64 472 q 246 689 161 642 q 436 736 331 736 q 626 689 542 736 q 759 557 711 642 q 807 365 807 472 q 759 174 807 258 q 626 41 711 89 q 436 -7 542 -7 m 436 81 q 576 116 514 81 q 672 217 638 151 q 707 365 707 282 q 672 514 707 449 q 576 615 638 579 q 436 650 514 650 q 297 615 358 650 q 199 514 235 579 q 164 365 164 449 q 199 217 164 282 q 297 116 235 151 q 436 81 358 81 z "},"ọ":{"ha":871,"x_min":64,"x_max":807,"o":"m 436 -7 q 246 41 331 -7 q 113 174 161 89 q 64 365 64 258 q 113 557 64 472 q 246 689 161 642 q 436 736 331 736 q 626 689 542 736 q 759 557 711 642 q 807 365 807 472 q 759 174 807 258 q 626 41 711 89 q 436 -7 542 -7 m 436 81 q 576 116 514 81 q 672 217 638 151 q 707 365 707 282 q 672 514 707 449 q 576 615 638 579 q 436 650 514 650 q 297 615 358 650 q 199 514 235 579 q 164 365 164 449 q 199 217 164 282 q 297 116 235 151 q 436 81 358 81 m 435 -264 q 392 -247 410 -264 q 375 -204 375 -231 q 392 -161 375 -178 q 435 -144 410 -144 q 477 -161 460 -144 q 494 -204 494 -178 q 477 -247 494 -231 q 435 -264 460 -264 z "},"ò":{"ha":871,"x_min":64,"x_max":807,"o":"m 436 -7 q 246 41 331 -7 q 113 174 161 89 q 64 365 64 258 q 113 557 64 472 q 246 689 161 642 q 436 736 331 736 q 626 689 542 736 q 759 557 711 642 q 807 365 807 472 q 759 174 807 258 q 626 41 711 89 q 436 -7 542 -7 m 436 81 q 576 116 514 81 q 672 217 638 151 q 707 365 707 282 q 672 514 707 449 q 576 615 638 579 q 436 650 514 650 q 297 615 358 650 q 199 514 235 579 q 164 365 164 449 q 199 217 164 282 q 297 116 235 151 q 436 81 358 81 m 203 1015 l 335 1015 l 525 843 l 428 843 l 203 1015 z "},"ỏ":{"ha":871,"x_min":64,"x_max":807,"o":"m 436 -7 q 246 41 331 -7 q 113 174 161 89 q 64 365 64 258 q 113 557 64 472 q 246 689 161 642 q 436 736 331 736 q 626 689 542 736 q 759 557 711 642 q 807 365 807 472 q 759 174 807 258 q 626 41 711 89 q 436 -7 542 -7 m 436 81 q 576 116 514 81 q 672 217 638 151 q 707 365 707 282 q 672 514 707 449 q 576 615 638 579 q 436 650 514 650 q 297 615 358 650 q 199 514 235 579 q 164 365 164 449 q 199 217 164 282 q 297 116 235 151 q 436 81 358 81 m 418 876 q 500 975 500 914 q 478 1024 500 1004 q 424 1043 457 1043 q 340 1017 381 1043 l 317 1065 q 370 1092 339 1082 q 432 1101 401 1101 q 527 1069 490 1101 q 564 982 564 1036 q 453 833 564 885 l 418 876 z "},"ơ":{"ha":871,"x_min":64,"x_max":807,"o":"m 661 665 q 769 538 731 615 q 807 365 807 461 q 759 174 807 258 q 626 41 711 89 q 436 -7 542 -7 q 246 41 331 -7 q 113 174 161 89 q 64 365 64 258 q 113 557 64 472 q 246 689 161 642 q 436 736 331 736 q 490 734 464 736 q 528 732 517 732 q 608 728 565 728 q 692 756 664 728 q 721 825 721 783 q 693 914 721 868 l 757 939 q 794 822 794 882 q 760 721 794 763 q 661 665 725 679 m 436 81 q 574 116 513 81 q 672 217 636 151 q 707 365 707 282 q 672 514 707 449 q 576 615 638 579 q 436 650 514 650 q 297 615 358 650 q 199 514 235 579 q 164 365 164 449 q 199 217 164 282 q 297 116 235 151 q 436 81 358 81 z "},"ớ":{"ha":871,"x_min":64,"x_max":807,"o":"m 661 665 q 769 538 731 615 q 807 365 807 461 q 759 174 807 258 q 626 41 711 89 q 436 -7 542 -7 q 246 41 331 -7 q 113 174 161 89 q 64 365 64 258 q 113 557 64 472 q 246 689 161 642 q 436 736 331 736 q 490 734 464 736 q 528 732 517 732 q 608 728 565 728 q 692 756 664 728 q 721 825 721 783 q 693 914 721 868 l 757 939 q 794 822 794 882 q 760 721 794 763 q 661 665 725 679 m 436 81 q 574 116 513 81 q 672 217 636 151 q 707 365 707 282 q 672 514 707 449 q 576 615 638 579 q 436 650 514 650 q 297 615 358 650 q 199 514 235 579 q 164 365 164 449 q 199 217 164 282 q 297 116 235 151 q 436 81 358 81 m 536 1015 l 668 1015 l 443 843 l 346 843 l 536 1015 z "},"ợ":{"ha":871,"x_min":64,"x_max":807,"o":"m 661 665 q 769 538 731 615 q 807 365 807 461 q 759 174 807 258 q 626 41 711 89 q 436 -7 542 -7 q 246 41 331 -7 q 113 174 161 89 q 64 365 64 258 q 113 557 64 472 q 246 689 161 642 q 436 736 331 736 q 490 734 464 736 q 528 732 517 732 q 608 728 565 728 q 692 756 664 728 q 721 825 721 783 q 693 914 721 868 l 757 939 q 794 822 794 882 q 760 721 794 763 q 661 665 725 679 m 436 81 q 574 116 513 81 q 672 217 636 151 q 707 365 707 282 q 672 514 707 449 q 576 615 638 579 q 436 650 514 650 q 297 615 358 650 q 199 514 235 579 q 164 365 164 449 q 199 217 164 282 q 297 116 235 151 q 436 81 358 81 m 436 -264 q 394 -247 411 -264 q 376 -204 376 -231 q 394 -161 376 -178 q 436 -144 411 -144 q 478 -161 461 -144 q 496 -204 496 -178 q 478 -247 496 -231 q 436 -264 461 -264 z "},"ờ":{"ha":871,"x_min":64,"x_max":807,"o":"m 661 665 q 769 538 731 615 q 807 365 807 461 q 759 174 807 258 q 626 41 711 89 q 436 -7 542 -7 q 246 41 331 -7 q 113 174 161 89 q 64 365 64 258 q 113 557 64 472 q 246 689 161 642 q 436 736 331 736 q 490 734 464 736 q 528 732 517 732 q 608 728 565 728 q 692 756 664 728 q 721 825 721 783 q 693 914 721 868 l 757 939 q 794 822 794 882 q 760 721 794 763 q 661 665 725 679 m 436 81 q 574 116 513 81 q 672 217 636 151 q 707 365 707 282 q 672 514 707 449 q 576 615 638 579 q 436 650 514 650 q 297 615 358 650 q 199 514 235 579 q 164 365 164 449 q 199 217 164 282 q 297 116 235 151 q 436 81 358 81 m 204 1015 l 336 1015 l 526 843 l 429 843 l 204 1015 z "},"ở":{"ha":871,"x_min":64,"x_max":807,"o":"m 661 665 q 769 538 731 615 q 807 365 807 461 q 759 174 807 258 q 626 41 711 89 q 436 -7 542 -7 q 246 41 331 -7 q 113 174 161 89 q 64 365 64 258 q 113 557 64 472 q 246 689 161 642 q 436 736 331 736 q 490 734 464 736 q 528 732 517 732 q 608 728 565 728 q 692 756 664 728 q 721 825 721 783 q 693 914 721 868 l 757 939 q 794 822 794 882 q 760 721 794 763 q 661 665 725 679 m 436 81 q 574 116 513 81 q 672 217 636 151 q 707 365 707 282 q 672 514 707 449 q 576 615 638 579 q 436 650 514 650 q 297 615 358 650 q 199 514 235 579 q 164 365 164 449 q 199 217 164 282 q 297 116 235 151 q 436 81 358 81 m 419 876 q 501 975 501 914 q 480 1024 501 1004 q 425 1043 458 1043 q 342 1017 382 1043 l 318 1065 q 372 1092 340 1082 q 433 1101 403 1101 q 528 1069 492 1101 q 565 982 565 1036 q 454 833 565 885 l 419 876 z "},"ỡ":{"ha":876,"x_min":64,"x_max":807,"o":"m 354 946 q 305 922 324 946 q 285 857 286 899 l 229 857 q 264 968 232 926 q 347 1010 296 1010 q 401 996 378 1010 q 454 954 424 982 q 490 925 475 935 q 519 915 504 915 q 568 938 550 915 q 589 1001 586 961 l 644 1001 q 610 892 642 933 q 526 851 578 851 q 472 866 496 851 q 421 907 449 881 q 385 936 400 926 q 354 946 371 946 m 661 665 q 769 538 731 615 q 807 365 807 461 q 759 174 807 258 q 626 41 711 89 q 436 -7 542 -7 q 246 41 331 -7 q 113 174 161 89 q 64 365 64 258 q 113 557 64 472 q 246 689 161 642 q 436 736 331 736 q 490 734 464 736 q 528 732 517 732 q 608 728 565 728 q 692 756 664 728 q 721 825 721 783 q 693 914 721 868 l 757 939 q 794 822 794 882 q 760 721 794 763 q 661 665 725 679 m 436 81 q 574 116 513 81 q 672 217 636 151 q 707 365 707 282 q 672 514 707 449 q 576 615 638 579 q 436 650 514 650 q 297 615 358 650 q 199 514 235 579 q 164 365 164 449 q 199 217 164 282 q 297 116 235 151 q 436 81 358 81 z "},"ő":{"ha":871,"x_min":64,"x_max":807,"o":"m 436 -7 q 246 41 331 -7 q 113 174 161 89 q 64 365 64 258 q 113 557 64 472 q 246 689 161 642 q 436 736 331 736 q 626 689 542 736 q 759 557 711 642 q 807 365 807 472 q 759 174 807 258 q 626 41 711 89 q 436 -7 542 -7 m 436 81 q 576 116 514 81 q 672 217 638 151 q 707 365 707 282 q 672 514 707 449 q 576 615 638 579 q 436 650 514 650 q 297 615 358 650 q 199 514 235 579 q 164 365 164 449 q 199 217 164 282 q 297 116 235 151 q 436 81 358 81 m 413 1015 l 522 1015 l 365 843 l 278 843 l 413 1015 m 638 1015 l 747 1015 l 592 843 l 504 843 l 638 1015 z "},"ȏ":{"ha":871,"x_min":64,"x_max":807,"o":"m 436 -7 q 246 41 331 -7 q 113 174 161 89 q 64 365 64 258 q 113 557 64 472 q 246 689 161 642 q 436 736 331 736 q 626 689 542 736 q 759 557 711 642 q 807 365 807 472 q 759 174 807 258 q 626 41 711 89 q 436 -7 542 -7 m 436 81 q 576 116 514 81 q 672 217 638 151 q 707 365 707 282 q 672 514 707 449 q 576 615 638 579 q 436 650 514 650 q 297 615 358 650 q 199 514 235 579 q 164 365 164 449 q 199 217 164 282 q 297 116 235 151 q 436 81 358 81 m 224 843 q 286 973 226 925 q 435 1021 346 1021 q 583 973 524 1021 q 646 843 643 925 l 576 843 q 535 928 575 896 q 435 961 494 961 q 335 928 375 961 q 293 843 294 896 l 224 843 z "},"ō":{"ha":871,"x_min":64,"x_max":807,"o":"m 436 -7 q 246 41 331 -7 q 113 174 161 89 q 64 365 64 258 q 113 557 64 472 q 246 689 161 642 q 436 736 331 736 q 626 689 542 736 q 759 557 711 642 q 807 365 807 472 q 759 174 807 258 q 626 41 711 89 q 436 -7 542 -7 m 436 81 q 576 116 514 81 q 672 217 638 151 q 707 365 707 282 q 672 514 707 449 q 576 615 638 579 q 436 650 514 650 q 297 615 358 650 q 199 514 235 579 q 164 365 164 449 q 199 217 164 282 q 297 116 235 151 q 436 81 358 81 m 221 961 l 649 961 l 649 896 l 221 896 l 221 961 z "},"ṓ":{"ha":871,"x_min":64,"x_max":807,"o":"m 436 -7 q 246 41 331 -7 q 113 174 161 89 q 64 365 64 258 q 113 557 64 472 q 246 689 161 642 q 436 736 331 736 q 626 689 542 736 q 759 557 711 642 q 807 365 807 472 q 759 174 807 258 q 626 41 711 89 q 436 -7 542 -7 m 436 81 q 576 116 514 81 q 672 217 638 151 q 707 365 707 282 q 672 514 707 449 q 576 615 638 579 q 436 650 514 650 q 297 615 358 650 q 199 514 235 579 q 164 365 164 449 q 199 217 164 282 q 297 116 235 151 q 436 81 358 81 z "},"ṑ":{"ha":871,"x_min":64,"x_max":807,"o":"m 436 -7 q 246 41 331 -7 q 113 174 161 89 q 64 365 64 258 q 113 557 64 472 q 246 689 161 642 q 436 736 331 736 q 626 689 542 736 q 759 557 711 642 q 807 365 807 472 q 759 174 807 258 q 626 41 711 89 q 436 -7 542 -7 m 436 81 q 576 116 514 81 q 672 217 638 151 q 707 365 707 282 q 672 514 707 449 q 576 615 638 579 q 436 650 514 650 q 297 615 358 650 q 199 514 235 579 q 164 365 164 449 q 199 217 164 282 q 297 116 235 151 q 436 81 358 81 z "},"ǫ":{"ha":871,"x_min":64,"x_max":807,"o":"m 592 24 q 437 -74 478 -28 q 396 -167 396 -119 q 421 -224 396 -204 q 486 -244 446 -244 q 571 -218 539 -244 l 593 -272 q 476 -306 546 -306 q 364 -270 406 -306 q 322 -176 322 -235 q 428 -7 322 -78 q 241 43 324 -6 q 111 176 158 92 q 64 365 64 260 q 113 557 64 472 q 246 689 161 642 q 436 736 331 736 q 626 689 542 736 q 759 557 711 642 q 807 365 807 472 q 749 158 807 247 q 592 24 692 68 m 164 365 q 199 217 164 282 q 297 116 235 151 q 436 81 358 81 q 576 116 514 81 q 672 217 638 151 q 707 365 707 282 q 672 514 707 449 q 576 615 638 579 q 436 650 514 650 q 297 615 358 650 q 199 514 235 579 q 164 365 164 449 z "},"ø":{"ha":871,"x_min":64,"x_max":807,"o":"m 665 663 q 769 535 732 613 q 807 365 807 458 q 759 174 807 258 q 626 41 711 89 q 436 -7 542 -7 q 250 38 336 -7 l 160 -99 l 93 -99 l 204 68 q 101 196 138 119 q 64 365 64 272 q 113 557 64 472 q 246 689 161 642 q 436 736 331 736 q 619 692 539 736 l 708 825 l 774 825 l 665 663 m 164 365 q 188 241 164 297 q 256 146 213 185 l 569 617 q 436 650 511 650 q 297 615 358 650 q 199 514 235 579 q 164 365 164 449 m 436 81 q 576 116 514 81 q 672 217 638 151 q 707 365 707 282 q 683 491 707 435 q 615 586 658 547 l 301 114 q 436 81 360 81 z "},"ǿ":{"ha":871,"x_min":64,"x_max":807,"o":"m 665 663 q 769 535 732 613 q 807 365 807 458 q 759 174 807 258 q 626 41 711 89 q 436 -7 542 -7 q 250 38 336 -7 l 160 -99 l 93 -99 l 204 68 q 101 196 138 119 q 64 365 64 272 q 113 557 64 472 q 246 689 161 642 q 436 736 331 736 q 619 692 539 736 l 708 825 l 774 825 l 665 663 m 164 365 q 188 241 164 297 q 256 146 213 185 l 569 617 q 436 650 511 650 q 297 615 358 650 q 199 514 235 579 q 164 365 164 449 m 436 81 q 576 116 514 81 q 672 217 638 151 q 707 365 707 282 q 683 491 707 435 q 615 586 658 547 l 301 114 q 436 81 360 81 m 533 1015 l 665 1015 l 440 843 l 343 843 l 533 1015 z "},"õ":{"ha":871,"x_min":64,"x_max":807,"o":"m 436 -7 q 246 41 331 -7 q 113 174 161 89 q 64 365 64 258 q 113 557 64 472 q 246 689 161 642 q 436 736 331 736 q 626 689 542 736 q 759 557 711 642 q 807 365 807 472 q 759 174 807 258 q 626 41 711 89 q 436 -7 542 -7 m 436 81 q 576 116 514 81 q 672 217 638 151 q 707 365 707 282 q 672 514 707 449 q 576 615 638 579 q 436 650 514 650 q 297 615 358 650 q 199 514 235 579 q 164 365 164 449 q 199 217 164 282 q 297 116 235 151 q 436 81 358 81 m 529 851 q 472 866 497 851 q 418 907 447 881 q 378 937 393 928 q 347 946 364 946 q 296 922 315 946 q 275 857 276 899 l 215 857 q 251 968 218 926 q 340 1010 285 1010 q 397 996 372 1010 q 453 954 421 982 q 490 925 475 935 q 522 915 506 915 q 572 938 553 915 q 594 1001 592 961 l 654 1001 q 618 892 651 933 q 529 851 585 851 z "},"ṍ":{"ha":871,"x_min":64,"x_max":807,"o":"m 436 -7 q 246 41 331 -7 q 113 174 161 89 q 64 365 64 258 q 113 557 64 472 q 246 689 161 642 q 436 736 331 736 q 626 689 542 736 q 759 557 711 642 q 807 365 807 472 q 759 174 807 258 q 626 41 711 89 q 436 -7 542 -7 m 436 81 q 576 116 514 81 q 672 217 638 151 q 707 365 707 282 q 672 514 707 449 q 576 615 638 579 q 436 650 514 650 q 297 615 358 650 q 199 514 235 579 q 164 365 164 449 q 199 217 164 282 q 297 116 235 151 q 436 81 358 81 z "},"ṏ":{"ha":871,"x_min":64,"x_max":807,"o":"m 436 -7 q 246 41 331 -7 q 113 174 161 89 q 64 365 64 258 q 113 557 64 472 q 246 689 161 642 q 436 736 331 736 q 626 689 542 736 q 759 557 711 642 q 807 365 807 472 q 759 174 807 258 q 626 41 711 89 q 436 -7 542 -7 m 436 81 q 576 116 514 81 q 672 217 638 151 q 707 365 707 282 q 672 514 707 449 q 576 615 638 579 q 436 650 514 650 q 297 615 358 650 q 199 514 235 579 q 164 365 164 449 q 199 217 164 282 q 297 116 235 151 q 436 81 358 81 z "},"ȭ":{"ha":871,"x_min":64,"x_max":807,"o":"m 436 -7 q 246 41 331 -7 q 113 174 161 89 q 64 365 64 258 q 113 557 64 472 q 246 689 161 642 q 436 736 331 736 q 626 689 542 736 q 759 557 711 642 q 807 365 807 472 q 759 174 807 258 q 626 41 711 89 q 436 -7 542 -7 m 436 81 q 576 116 514 81 q 672 217 638 151 q 707 365 707 282 q 672 514 707 449 q 576 615 638 579 q 436 650 514 650 q 297 615 358 650 q 199 514 235 579 q 164 365 164 449 q 199 217 164 282 q 297 116 235 151 q 436 81 358 81 z "},"œ":{"ha":1483,"x_min":64,"x_max":1419,"o":"m 1418 335 l 806 335 q 894 151 814 221 q 1094 81 974 81 q 1219 105 1163 81 q 1317 176 1276 129 l 1372 113 q 1251 24 1324 54 q 1092 -7 1179 -7 q 889 44 976 -7 q 756 182 801 94 q 628 44 711 94 q 436 -7 544 -7 q 246 41 331 -7 q 113 174 161 89 q 64 365 64 258 q 113 557 64 472 q 246 689 161 642 q 436 736 331 736 q 627 686 543 736 q 756 550 711 636 q 880 686 799 636 q 1065 736 961 736 q 1247 689 1167 736 q 1374 558 1328 642 q 1419 365 1419 474 l 1418 335 m 1065 651 q 888 583 960 651 q 806 408 815 515 l 1325 408 q 1243 583 1315 515 q 1065 651 1171 651 m 436 81 q 576 116 514 81 q 672 217 638 151 q 707 365 707 282 q 672 514 707 449 q 576 615 638 579 q 436 650 514 650 q 297 615 358 650 q 199 514 235 579 q 164 365 164 449 q 199 217 164 282 q 297 116 235 151 q 436 81 358 81 z "},"p":{"ha":942,"x_min":138,"x_max":878,"o":"m 514 736 q 700 690 617 736 q 831 558 783 643 q 878 365 878 474 q 831 171 878 256 q 701 40 783 86 q 514 -7 618 -7 q 353 30 425 -7 q 236 138 282 67 l 236 -269 l 138 -269 l 138 731 l 232 731 l 232 586 q 349 697 276 658 q 514 736 422 736 m 507 81 q 646 116 583 81 q 744 217 708 151 q 779 365 779 282 q 744 513 779 449 q 646 614 708 578 q 507 650 583 650 q 367 614 429 650 q 270 513 306 578 q 235 365 235 449 q 270 217 235 282 q 367 116 306 151 q 507 81 429 81 z "},"þ":{"ha":942,"x_min":138,"x_max":878,"o":"m 514 736 q 700 690 617 736 q 831 558 783 643 q 878 365 878 474 q 831 171 878 256 q 701 40 783 86 q 514 -7 618 -7 q 353 30 425 -7 q 236 138 282 67 l 236 -269 l 138 -269 l 138 1031 l 236 1031 l 236 593 q 353 699 281 663 q 514 736 425 736 m 507 81 q 646 116 583 81 q 744 217 708 151 q 779 365 779 282 q 744 513 779 449 q 646 614 708 578 q 507 650 583 650 q 367 614 429 650 q 270 513 306 578 q 235 365 235 449 q 270 217 235 282 q 367 116 306 151 q 507 81 429 81 z "},"q":{"ha":942,"x_min":64,"x_max":804,"o":"m 804 731 l 804 -269 l 706 -269 l 706 138 q 588 30 660 67 q 428 -7 517 -7 q 241 40 324 -7 q 111 171 158 86 q 64 365 64 256 q 111 558 64 474 q 242 690 158 643 q 428 736 325 736 q 592 697 519 736 q 710 586 665 658 l 710 731 l 804 731 m 436 81 q 574 116 513 81 q 672 217 636 151 q 707 365 707 282 q 672 513 707 449 q 574 614 636 578 q 436 650 513 650 q 297 614 358 650 q 199 513 235 578 q 164 365 164 449 q 199 217 164 282 q 297 116 235 151 q 436 81 358 81 z "},"r":{"ha":557,"x_min":138,"x_max":506,"o":"m 232 588 q 335 699 267 661 q 506 736 404 736 l 506 640 l 482 642 q 301 571 367 642 q 236 372 236 500 l 236 0 l 138 0 l 138 731 l 232 731 l 232 588 z "},"ŕ":{"ha":557,"x_min":138,"x_max":554,"o":"m 232 588 q 335 699 267 661 q 506 736 404 736 l 506 640 l 482 642 q 301 571 367 642 q 236 372 236 500 l 236 0 l 138 0 l 138 731 l 232 731 l 232 588 m 422 1015 l 554 1015 l 329 843 l 232 843 l 422 1015 z "},"ř":{"ha":557,"x_min":93,"x_max":551,"o":"m 232 588 q 335 699 267 661 q 506 736 404 736 l 506 640 l 482 642 q 301 571 367 642 q 236 372 236 500 l 236 0 l 138 0 l 138 731 l 232 731 l 232 588 m 551 1015 l 372 843 l 272 843 l 93 1015 l 185 1015 l 322 901 l 460 1015 l 551 1015 z "},"ŗ":{"ha":557,"x_min":128,"x_max":506,"o":"m 232 588 q 335 699 267 661 q 506 736 404 736 l 506 640 l 482 642 q 301 571 367 642 q 236 372 236 500 l 236 0 l 138 0 l 138 731 l 232 731 l 232 588 m 188 -144 q 231 -160 214 -144 q 247 -199 247 -176 q 232 -261 247 -226 l 193 -364 l 139 -364 l 168 -250 q 138 -232 149 -246 q 128 -199 128 -218 q 144 -160 128 -175 q 188 -144 161 -144 z "},"ȑ":{"ha":557,"x_min":10,"x_max":506,"o":"m 232 588 q 335 699 267 661 q 506 736 404 736 l 506 640 l 482 642 q 301 571 367 642 q 236 372 236 500 l 236 0 l 138 0 l 138 731 l 232 731 l 232 588 m 10 1015 l 119 1015 l 253 843 l 165 843 l 10 1015 m 235 1015 l 344 1015 l 479 843 l 392 843 l 235 1015 z "},"ṛ":{"ha":557,"x_min":128,"x_max":506,"o":"m 232 588 q 335 699 267 661 q 506 736 404 736 l 506 640 l 482 642 q 301 571 367 642 q 236 372 236 500 l 236 0 l 138 0 l 138 731 l 232 731 l 232 588 m 188 -264 q 145 -247 163 -264 q 128 -204 128 -231 q 145 -161 128 -178 q 188 -144 163 -144 q 230 -161 213 -144 q 247 -204 247 -178 q 230 -247 247 -231 q 188 -264 213 -264 z "},"ȓ":{"ha":557,"x_min":111,"x_max":533,"o":"m 232 588 q 335 699 267 661 q 506 736 404 736 l 506 640 l 482 642 q 301 571 367 642 q 236 372 236 500 l 236 0 l 138 0 l 138 731 l 232 731 l 232 588 m 111 843 q 174 973 114 925 q 322 1021 233 1021 q 471 973 411 1021 q 533 843 531 925 l 464 843 q 422 928 463 896 q 322 961 382 961 q 222 928 263 961 q 181 843 182 896 l 111 843 z "},"ṟ":{"ha":557,"x_min":-26,"x_max":506,"o":"m 232 588 q 335 699 267 661 q 506 736 404 736 l 506 640 l 482 642 q 301 571 367 642 q 236 372 236 500 l 236 0 l 138 0 l 138 731 l 232 731 l 232 588 m -26 -169 l 401 -169 l 401 -235 l -26 -235 l -26 -169 z "},"s":{"ha":679,"x_min":36,"x_max":635,"o":"m 333 -7 q 163 19 244 -7 q 36 83 82 44 l 81 161 q 196 102 126 125 q 340 79 265 79 q 488 110 440 79 q 536 199 536 142 q 510 262 536 239 q 443 297 483 285 q 336 319 403 308 q 193 353 247 336 q 101 413 139 371 q 63 528 63 454 q 139 678 63 619 q 351 736 215 736 q 493 717 422 736 q 610 668 564 699 l 567 589 q 351 651 476 651 q 209 618 257 651 q 161 531 161 585 q 188 464 161 489 q 256 427 215 439 q 367 403 296 415 q 507 369 454 386 q 597 313 560 353 q 635 201 635 272 q 555 49 635 106 q 333 -7 475 -7 z "},"ś":{"ha":679,"x_min":36,"x_max":635,"o":"m 333 -7 q 163 19 244 -7 q 36 83 82 44 l 81 161 q 196 102 126 125 q 340 79 265 79 q 488 110 440 79 q 536 199 536 142 q 510 262 536 239 q 443 297 483 285 q 336 319 403 308 q 193 353 247 336 q 101 413 139 371 q 63 528 63 454 q 139 678 63 619 q 351 736 215 736 q 493 717 422 736 q 610 668 564 699 l 567 589 q 351 651 476 651 q 209 618 257 651 q 161 531 161 585 q 188 464 161 489 q 256 427 215 439 q 367 403 296 415 q 507 369 454 386 q 597 313 560 353 q 635 201 635 272 q 555 49 635 106 q 333 -7 475 -7 m 438 1015 l 569 1015 l 344 843 l 247 843 l 438 1015 z "},"ṥ":{"ha":679,"x_min":36,"x_max":635,"o":"m 333 -7 q 163 19 244 -7 q 36 83 82 44 l 81 161 q 196 102 126 125 q 340 79 265 79 q 488 110 440 79 q 536 199 536 142 q 510 262 536 239 q 443 297 483 285 q 336 319 403 308 q 193 353 247 336 q 101 413 139 371 q 63 528 63 454 q 139 678 63 619 q 351 736 215 736 q 493 717 422 736 q 610 668 564 699 l 567 589 q 351 651 476 651 q 209 618 257 651 q 161 531 161 585 q 188 464 161 489 q 256 427 215 439 q 367 403 296 415 q 507 369 454 386 q 597 313 560 353 q 635 201 635 272 q 555 49 635 106 q 333 -7 475 -7 z "},"ꞌ":{"ha":333,"x_min":117,"x_max":217,"o":"m 118 906 l 217 906 l 204 413 l 117 413 l 118 906 z "},"š":{"ha":679,"x_min":36,"x_max":635,"o":"m 333 -7 q 163 19 244 -7 q 36 83 82 44 l 81 161 q 196 102 126 125 q 340 79 265 79 q 488 110 440 79 q 536 199 536 142 q 510 262 536 239 q 443 297 483 285 q 336 319 403 308 q 193 353 247 336 q 101 413 139 371 q 63 528 63 454 q 139 678 63 619 q 351 736 215 736 q 493 717 422 736 q 610 668 564 699 l 567 589 q 351 651 476 651 q 209 618 257 651 q 161 531 161 585 q 188 464 161 489 q 256 427 215 439 q 367 403 296 415 q 507 369 454 386 q 597 313 560 353 q 635 201 635 272 q 555 49 635 106 q 333 -7 475 -7 m 567 1015 l 388 843 l 288 843 l 108 1015 l 200 1015 l 338 901 l 475 1015 l 567 1015 z "},"ṧ":{"ha":679,"x_min":36,"x_max":635,"o":"m 333 -7 q 163 19 244 -7 q 36 83 82 44 l 81 161 q 196 102 126 125 q 340 79 265 79 q 488 110 440 79 q 536 199 536 142 q 510 262 536 239 q 443 297 483 285 q 336 319 403 308 q 193 353 247 336 q 101 413 139 371 q 63 528 63 454 q 139 678 63 619 q 351 736 215 736 q 493 717 422 736 q 610 668 564 699 l 567 589 q 351 651 476 651 q 209 618 257 651 q 161 531 161 585 q 188 464 161 489 q 256 427 215 439 q 367 403 296 415 q 507 369 454 386 q 597 313 560 353 q 635 201 635 272 q 555 49 635 106 q 333 -7 475 -7 z "},"ş":{"ha":679,"x_min":36,"x_max":635,"o":"m 635 201 q 563 55 635 111 q 363 -7 490 -1 l 346 -72 q 433 -108 403 -78 q 464 -185 464 -137 q 421 -273 464 -240 q 307 -306 378 -306 q 190 -274 239 -306 l 214 -221 q 306 -247 254 -247 q 369 -231 347 -247 q 392 -182 392 -214 q 370 -135 392 -153 q 306 -118 349 -118 l 274 -118 l 303 -6 q 150 23 222 -1 q 36 83 78 47 l 81 161 q 196 102 126 125 q 340 79 265 79 q 488 110 440 79 q 536 199 536 142 q 510 262 536 239 q 443 297 483 285 q 336 319 403 308 q 193 353 247 336 q 101 413 139 371 q 63 528 63 454 q 139 678 63 619 q 351 736 215 736 q 493 717 422 736 q 610 668 564 699 l 567 589 q 351 651 476 651 q 209 618 257 651 q 161 531 161 585 q 188 464 161 489 q 256 427 215 439 q 367 403 296 415 q 507 369 454 386 q 597 313 560 353 q 635 201 635 272 z "},"ŝ":{"ha":679,"x_min":36,"x_max":635,"o":"m 333 -7 q 163 19 244 -7 q 36 83 82 44 l 81 161 q 196 102 126 125 q 340 79 265 79 q 488 110 440 79 q 536 199 536 142 q 510 262 536 239 q 443 297 483 285 q 336 319 403 308 q 193 353 247 336 q 101 413 139 371 q 63 528 63 454 q 139 678 63 619 q 351 736 215 736 q 493 717 422 736 q 610 668 564 699 l 567 589 q 351 651 476 651 q 209 618 257 651 q 161 531 161 585 q 188 464 161 489 q 256 427 215 439 q 367 403 296 415 q 507 369 454 386 q 597 313 560 353 q 635 201 635 272 q 555 49 635 106 q 333 -7 475 -7 m 475 843 l 338 958 l 200 843 l 108 843 l 288 1015 l 388 1015 l 567 843 l 475 843 z "},"ș":{"ha":679,"x_min":36,"x_max":635,"o":"m 333 -7 q 163 19 244 -7 q 36 83 82 44 l 81 161 q 196 102 126 125 q 340 79 265 79 q 488 110 440 79 q 536 199 536 142 q 510 262 536 239 q 443 297 483 285 q 336 319 403 308 q 193 353 247 336 q 101 413 139 371 q 63 528 63 454 q 139 678 63 619 q 351 736 215 736 q 493 717 422 736 q 610 668 564 699 l 567 589 q 351 651 476 651 q 209 618 257 651 q 161 531 161 585 q 188 464 161 489 q 256 427 215 439 q 367 403 296 415 q 507 369 454 386 q 597 313 560 353 q 635 201 635 272 q 555 49 635 106 q 333 -7 475 -7 m 338 -144 q 381 -160 364 -144 q 397 -199 397 -176 q 382 -261 397 -226 l 343 -364 l 289 -364 l 318 -250 q 288 -232 299 -246 q 278 -199 278 -218 q 294 -160 278 -175 q 338 -144 311 -144 z "},"ṡ":{"ha":679,"x_min":36,"x_max":635,"o":"m 333 -7 q 163 19 244 -7 q 36 83 82 44 l 81 161 q 196 102 126 125 q 340 79 265 79 q 488 110 440 79 q 536 199 536 142 q 510 262 536 239 q 443 297 483 285 q 336 319 403 308 q 193 353 247 336 q 101 413 139 371 q 63 528 63 454 q 139 678 63 619 q 351 736 215 736 q 493 717 422 736 q 610 668 564 699 l 567 589 q 351 651 476 651 q 209 618 257 651 q 161 531 161 585 q 188 464 161 489 q 256 427 215 439 q 367 403 296 415 q 507 369 454 386 q 597 313 560 353 q 635 201 635 272 q 555 49 635 106 q 333 -7 475 -7 m 338 875 q 290 894 310 875 q 271 942 271 914 q 290 989 271 969 q 338 1008 310 1008 q 385 989 365 1008 q 404 942 404 969 q 385 894 404 914 q 338 875 365 875 z "},"ṣ":{"ha":679,"x_min":36,"x_max":635,"o":"m 333 -7 q 163 19 244 -7 q 36 83 82 44 l 81 161 q 196 102 126 125 q 340 79 265 79 q 488 110 440 79 q 536 199 536 142 q 510 262 536 239 q 443 297 483 285 q 336 319 403 308 q 193 353 247 336 q 101 413 139 371 q 63 528 63 454 q 139 678 63 619 q 351 736 215 736 q 493 717 422 736 q 610 668 564 699 l 567 589 q 351 651 476 651 q 209 618 257 651 q 161 531 161 585 q 188 464 161 489 q 256 427 215 439 q 367 403 296 415 q 507 369 454 386 q 597 313 560 353 q 635 201 635 272 q 555 49 635 106 q 333 -7 475 -7 m 338 -264 q 295 -247 313 -264 q 278 -204 278 -231 q 295 -161 278 -178 q 338 -144 313 -144 q 380 -161 363 -144 q 397 -204 397 -178 q 380 -247 397 -231 q 338 -264 363 -264 z "},"ṩ":{"ha":679,"x_min":36,"x_max":635,"o":"m 333 -7 q 163 19 244 -7 q 36 83 82 44 l 81 161 q 196 102 126 125 q 340 79 265 79 q 488 110 440 79 q 536 199 536 142 q 510 262 536 239 q 443 297 483 285 q 336 319 403 308 q 193 353 247 336 q 101 413 139 371 q 63 528 63 454 q 139 678 63 619 q 351 736 215 736 q 493 717 422 736 q 610 668 564 699 l 567 589 q 351 651 476 651 q 209 618 257 651 q 161 531 161 585 q 188 464 161 489 q 256 427 215 439 q 367 403 296 415 q 507 369 454 386 q 597 313 560 353 q 635 201 635 272 q 555 49 635 106 q 333 -7 475 -7 m 338 -264 q 295 -247 313 -264 q 278 -204 278 -231 q 295 -161 278 -178 q 338 -144 313 -144 q 380 -161 363 -144 q 397 -204 397 -178 q 380 -247 397 -231 q 338 -264 363 -264 m 338 875 q 290 894 310 875 q 271 942 271 914 q 290 989 271 969 q 338 1008 310 1008 q 385 989 365 1008 q 404 942 404 969 q 385 894 404 914 q 338 875 365 875 z "},"ß":{"ha":928,"x_min":138,"x_max":864,"o":"m 642 540 q 803 449 743 518 q 864 276 864 381 q 822 125 864 189 q 704 27 779 61 q 535 -7 629 -7 q 379 15 442 -7 l 396 99 q 531 79 454 79 q 700 132 636 79 q 764 279 764 185 q 697 424 764 372 q 521 476 631 476 l 440 476 l 440 561 q 621 618 556 563 q 686 768 686 674 q 629 901 686 851 q 472 951 572 951 q 299 887 361 951 q 236 700 236 822 l 236 0 l 138 0 l 138 692 q 230 948 138 858 q 472 1038 322 1038 q 637 1003 567 1038 q 744 908 707 968 q 782 772 782 849 q 743 633 782 693 q 642 540 704 572 z "},"ſ":{"ha":410,"x_min":39,"x_max":536,"o":"m 389 1038 q 471 1026 432 1038 q 536 992 510 1014 l 501 918 q 394 954 458 954 q 300 919 332 954 q 268 817 268 885 l 268 0 l 169 0 l 169 647 l 39 647 l 39 731 l 169 731 l 169 821 q 227 979 169 921 q 389 1038 285 1038 z "},"t":{"ha":564,"x_min":24,"x_max":522,"o":"m 522 44 q 453 6 494 19 q 368 -7 413 -7 q 210 49 265 -7 q 154 206 154 104 l 154 647 l 24 647 l 24 731 l 154 731 l 154 890 l 253 890 l 253 731 l 475 731 l 475 647 l 253 647 l 253 211 q 285 112 253 146 q 379 78 318 78 q 438 88 410 78 q 488 115 467 97 l 522 44 z "},"ŧ":{"ha":578,"x_min":31,"x_max":529,"o":"m 529 44 q 460 6 501 19 q 375 -7 419 -7 q 217 49 272 -7 q 161 206 161 104 l 161 374 l 47 374 l 47 444 l 161 444 l 161 647 l 31 647 l 31 731 l 161 731 l 161 890 l 260 890 l 260 731 l 482 731 l 482 647 l 260 647 l 260 444 l 467 444 l 467 374 l 260 374 l 260 211 q 292 112 260 146 q 386 78 325 78 q 445 88 417 78 q 494 115 474 97 l 529 44 z "},"ť":{"ha":564,"x_min":24,"x_max":522,"o":"m 522 44 q 453 6 494 19 q 368 -7 413 -7 q 210 49 265 -7 q 154 206 154 104 l 154 647 l 24 647 l 24 731 l 154 731 l 154 890 l 253 890 l 253 731 l 475 731 l 475 647 l 253 647 l 253 211 q 285 112 253 146 q 379 78 318 78 q 438 88 410 78 q 488 115 467 97 l 522 44 m 379 1061 l 458 1061 l 446 831 l 379 831 l 379 1061 z "},"ţ":{"ha":564,"x_min":24,"x_max":522,"o":"m 354 -72 q 442 -108 411 -78 q 472 -185 472 -137 q 429 -273 472 -240 q 315 -306 386 -306 q 199 -274 247 -306 l 222 -221 q 314 -247 263 -247 q 378 -231 356 -247 q 400 -182 400 -214 q 378 -135 400 -153 q 314 -118 357 -118 l 282 -118 l 313 -3 q 195 65 236 11 q 154 206 154 119 l 154 647 l 24 647 l 24 731 l 154 731 l 154 890 l 253 890 l 253 731 l 475 731 l 475 647 l 253 647 l 253 211 q 285 112 253 146 q 379 78 318 78 q 438 88 410 78 q 488 115 467 97 l 522 44 q 454 6 494 19 q 371 -7 414 -7 l 354 -72 z "},"ț":{"ha":564,"x_min":24,"x_max":522,"o":"m 522 44 q 453 6 494 19 q 368 -7 413 -7 q 210 49 265 -7 q 154 206 154 104 l 154 647 l 24 647 l 24 731 l 154 731 l 154 890 l 253 890 l 253 731 l 475 731 l 475 647 l 253 647 l 253 211 q 285 112 253 146 q 379 78 318 78 q 438 88 410 78 q 488 115 467 97 l 522 44 m 346 -144 q 389 -160 372 -144 q 406 -199 406 -176 q 390 -261 406 -226 l 351 -364 l 297 -364 l 326 -250 q 297 -232 307 -246 q 286 -199 286 -218 q 303 -160 286 -175 q 346 -144 319 -144 z "},"ẗ":{"ha":564,"x_min":21,"x_max":522,"o":"m 522 44 q 453 6 494 19 q 368 -7 413 -7 q 210 49 265 -7 q 154 206 154 104 l 154 647 l 24 647 l 24 731 l 154 731 l 154 890 l 253 890 l 253 731 l 475 731 l 475 647 l 253 647 l 253 211 q 285 112 253 146 q 379 78 318 78 q 438 88 410 78 q 488 115 467 97 l 522 44 m 81 1035 q 38 1051 56 1035 q 21 1094 21 1068 q 38 1137 21 1119 q 81 1154 56 1154 q 122 1137 104 1154 q 140 1094 140 1119 q 123 1052 140 1069 q 81 1035 106 1035 m 328 1035 q 285 1052 303 1035 q 268 1094 268 1069 q 286 1137 268 1119 q 328 1154 304 1154 q 370 1137 353 1154 q 388 1094 388 1119 q 370 1051 388 1068 q 328 1035 353 1035 z "},"ṭ":{"ha":564,"x_min":24,"x_max":522,"o":"m 522 44 q 453 6 494 19 q 368 -7 413 -7 q 210 49 265 -7 q 154 206 154 104 l 154 647 l 24 647 l 24 731 l 154 731 l 154 890 l 253 890 l 253 731 l 475 731 l 475 647 l 253 647 l 253 211 q 285 112 253 146 q 379 78 318 78 q 438 88 410 78 q 488 115 467 97 l 522 44 m 346 -264 q 303 -247 321 -264 q 286 -204 286 -231 q 303 -161 286 -178 q 346 -144 321 -144 q 388 -161 371 -144 q 406 -204 406 -178 q 388 -247 406 -231 q 346 -264 371 -264 z "},"ṯ":{"ha":564,"x_min":24,"x_max":560,"o":"m 522 44 q 453 6 494 19 q 368 -7 413 -7 q 210 49 265 -7 q 154 206 154 104 l 154 647 l 24 647 l 24 731 l 154 731 l 154 890 l 253 890 l 253 731 l 475 731 l 475 647 l 253 647 l 253 211 q 285 112 253 146 q 379 78 318 78 q 438 88 410 78 q 488 115 467 97 l 522 44 m 132 -169 l 560 -169 l 560 -235 l 132 -235 l 132 -169 z "},"u":{"ha":935,"x_min":131,"x_max":796,"o":"m 796 731 l 796 0 l 701 0 l 701 133 q 594 30 663 67 q 439 -7 526 -7 q 213 73 296 -7 q 131 307 131 153 l 131 731 l 229 731 l 229 317 q 286 142 229 201 q 449 82 343 82 q 631 152 564 82 q 697 347 697 222 l 697 731 l 796 731 z "},"ú":{"ha":935,"x_min":131,"x_max":796,"o":"m 796 731 l 796 0 l 701 0 l 701 133 q 594 30 663 67 q 439 -7 526 -7 q 213 73 296 -7 q 131 307 131 153 l 131 731 l 229 731 l 229 317 q 286 142 229 201 q 449 82 343 82 q 631 152 564 82 q 697 347 697 222 l 697 731 l 796 731 m 564 1015 l 696 1015 l 471 843 l 374 843 l 564 1015 z "},"ŭ":{"ha":935,"x_min":131,"x_max":796,"o":"m 796 731 l 796 0 l 701 0 l 701 133 q 594 30 663 67 q 439 -7 526 -7 q 213 73 296 -7 q 131 307 131 153 l 131 731 l 229 731 l 229 317 q 286 142 229 201 q 449 82 343 82 q 631 152 564 82 q 697 347 697 222 l 697 731 l 796 731 m 464 836 q 315 885 375 836 q 253 1015 256 933 l 322 1015 q 364 929 324 961 q 464 897 404 897 q 564 929 524 897 q 606 1015 604 961 l 675 1015 q 613 885 672 933 q 464 836 553 836 z "},"ǔ":{"ha":935,"x_min":131,"x_max":796,"o":"m 796 731 l 796 0 l 701 0 l 701 133 q 594 30 663 67 q 439 -7 526 -7 q 213 73 296 -7 q 131 307 131 153 l 131 731 l 229 731 l 229 317 q 286 142 229 201 q 449 82 343 82 q 631 152 564 82 q 697 347 697 222 l 697 731 l 796 731 m 693 1015 l 514 843 l 414 843 l 235 1015 l 326 1015 l 464 901 l 601 1015 l 693 1015 z "},"û":{"ha":935,"x_min":131,"x_max":796,"o":"m 796 731 l 796 0 l 701 0 l 701 133 q 594 30 663 67 q 439 -7 526 -7 q 213 73 296 -7 q 131 307 131 153 l 131 731 l 229 731 l 229 317 q 286 142 229 201 q 449 82 343 82 q 631 152 564 82 q 697 347 697 222 l 697 731 l 796 731 m 601 843 l 464 958 l 326 843 l 235 843 l 414 1015 l 514 1015 l 693 843 l 601 843 z "},"ȕ":{"ha":935,"x_min":131,"x_max":796,"o":"m 796 731 l 796 0 l 701 0 l 701 133 q 594 30 663 67 q 439 -7 526 -7 q 213 73 296 -7 q 131 307 131 153 l 131 731 l 229 731 l 229 317 q 286 142 229 201 q 449 82 343 82 q 631 152 564 82 q 697 347 697 222 l 697 731 l 796 731 m 151 1015 l 261 1015 l 394 843 l 307 843 l 151 1015 m 376 1015 l 486 1015 l 621 843 l 533 843 l 376 1015 z "},"ü":{"ha":935,"x_min":131,"x_max":796,"o":"m 796 731 l 796 0 l 701 0 l 701 133 q 594 30 663 67 q 439 -7 526 -7 q 213 73 296 -7 q 131 307 131 153 l 131 731 l 229 731 l 229 317 q 286 142 229 201 q 449 82 343 82 q 631 152 564 82 q 697 347 697 222 l 697 731 l 796 731 m 340 875 q 298 892 315 875 q 281 935 281 908 q 298 977 281 960 q 340 994 315 994 q 382 977 364 994 q 400 935 400 960 q 383 892 400 910 q 340 875 365 875 m 588 875 q 545 892 563 875 q 528 935 528 910 q 546 977 528 960 q 588 994 564 994 q 630 977 613 994 q 647 935 647 960 q 630 892 647 908 q 588 875 613 875 z "},"ụ":{"ha":935,"x_min":131,"x_max":796,"o":"m 796 731 l 796 0 l 701 0 l 701 133 q 594 30 663 67 q 439 -7 526 -7 q 213 73 296 -7 q 131 307 131 153 l 131 731 l 229 731 l 229 317 q 286 142 229 201 q 449 82 343 82 q 631 152 564 82 q 697 347 697 222 l 697 731 l 796 731 m 464 -264 q 422 -247 439 -264 q 404 -204 404 -231 q 422 -161 404 -178 q 464 -144 439 -144 q 506 -161 489 -144 q 524 -204 524 -178 q 506 -247 524 -231 q 464 -264 489 -264 z "},"ù":{"ha":935,"x_min":131,"x_max":796,"o":"m 796 731 l 796 0 l 701 0 l 701 133 q 594 30 663 67 q 439 -7 526 -7 q 213 73 296 -7 q 131 307 131 153 l 131 731 l 229 731 l 229 317 q 286 142 229 201 q 449 82 343 82 q 631 152 564 82 q 697 347 697 222 l 697 731 l 796 731 m 232 1015 l 364 1015 l 554 843 l 457 843 l 232 1015 z "},"ủ":{"ha":935,"x_min":131,"x_max":796,"o":"m 796 731 l 796 0 l 701 0 l 701 133 q 594 30 663 67 q 439 -7 526 -7 q 213 73 296 -7 q 131 307 131 153 l 131 731 l 229 731 l 229 317 q 286 142 229 201 q 449 82 343 82 q 631 152 564 82 q 697 347 697 222 l 697 731 l 796 731 m 447 876 q 529 975 529 914 q 508 1024 529 1004 q 453 1043 486 1043 q 369 1017 410 1043 l 346 1065 q 399 1092 368 1082 q 461 1101 431 1101 q 556 1069 519 1101 q 593 982 593 1036 q 482 833 593 885 l 447 876 z "},"ư":{"ha":943,"x_min":131,"x_max":914,"o":"m 914 821 q 883 715 914 757 q 796 660 853 672 l 796 0 l 701 0 l 701 133 q 594 30 663 67 q 439 -7 526 -7 q 213 73 296 -7 q 131 307 131 153 l 131 731 l 229 731 l 229 317 q 286 142 229 201 q 449 82 343 82 q 631 152 564 82 q 697 347 697 222 l 697 731 l 749 731 q 817 756 794 731 q 840 824 840 782 q 813 913 840 874 l 878 938 q 914 821 914 888 z "},"ứ":{"ha":943,"x_min":131,"x_max":914,"o":"m 914 821 q 883 715 914 757 q 796 660 853 672 l 796 0 l 701 0 l 701 133 q 594 30 663 67 q 439 -7 526 -7 q 213 73 296 -7 q 131 307 131 153 l 131 731 l 229 731 l 229 317 q 286 142 229 201 q 449 82 343 82 q 631 152 564 82 q 697 347 697 222 l 697 731 l 749 731 q 817 756 794 731 q 840 824 840 782 q 813 913 840 874 l 878 938 q 914 821 914 888 m 564 1015 l 696 1015 l 471 843 l 374 843 l 564 1015 z "},"ự":{"ha":943,"x_min":131,"x_max":914,"o":"m 914 821 q 883 715 914 757 q 796 660 853 672 l 796 0 l 701 0 l 701 133 q 594 30 663 67 q 439 -7 526 -7 q 213 73 296 -7 q 131 307 131 153 l 131 731 l 229 731 l 229 317 q 286 142 229 201 q 449 82 343 82 q 631 152 564 82 q 697 347 697 222 l 697 731 l 749 731 q 817 756 794 731 q 840 824 840 782 q 813 913 840 874 l 878 938 q 914 821 914 888 m 464 -264 q 422 -247 439 -264 q 404 -204 404 -231 q 422 -161 404 -178 q 464 -144 439 -144 q 506 -161 489 -144 q 524 -204 524 -178 q 506 -247 524 -231 q 464 -264 489 -264 z "},"ừ":{"ha":943,"x_min":131,"x_max":914,"o":"m 914 821 q 883 715 914 757 q 796 660 853 672 l 796 0 l 701 0 l 701 133 q 594 30 663 67 q 439 -7 526 -7 q 213 73 296 -7 q 131 307 131 153 l 131 731 l 229 731 l 229 317 q 286 142 229 201 q 449 82 343 82 q 631 152 564 82 q 697 347 697 222 l 697 731 l 749 731 q 817 756 794 731 q 840 824 840 782 q 813 913 840 874 l 878 938 q 914 821 914 888 m 232 1015 l 364 1015 l 554 843 l 457 843 l 232 1015 z "},"ử":{"ha":943,"x_min":131,"x_max":914,"o":"m 914 821 q 883 715 914 757 q 796 660 853 672 l 796 0 l 701 0 l 701 133 q 594 30 663 67 q 439 -7 526 -7 q 213 73 296 -7 q 131 307 131 153 l 131 731 l 229 731 l 229 317 q 286 142 229 201 q 449 82 343 82 q 631 152 564 82 q 697 347 697 222 l 697 731 l 749 731 q 817 756 794 731 q 840 824 840 782 q 813 913 840 874 l 878 938 q 914 821 914 888 m 447 876 q 529 975 529 914 q 508 1024 529 1004 q 453 1043 486 1043 q 369 1017 410 1043 l 346 1065 q 399 1092 368 1082 q 461 1101 431 1101 q 556 1069 519 1101 q 593 982 593 1036 q 482 833 593 885 l 447 876 z "},"ữ":{"ha":943,"x_min":131,"x_max":914,"o":"m 914 821 q 883 715 914 757 q 796 660 853 672 l 796 0 l 701 0 l 701 133 q 594 30 663 67 q 439 -7 526 -7 q 213 73 296 -7 q 131 307 131 153 l 131 731 l 229 731 l 229 317 q 286 142 229 201 q 449 82 343 82 q 631 152 564 82 q 697 347 697 222 l 697 731 l 749 731 q 817 756 794 731 q 840 824 840 782 q 813 913 840 874 l 878 938 q 914 821 914 888 m 558 851 q 501 866 526 851 q 447 907 476 881 q 408 937 422 928 q 376 946 393 946 q 325 922 344 946 q 304 857 306 899 l 244 857 q 281 968 247 926 q 369 1010 314 1010 q 426 996 401 1010 q 482 954 450 982 q 519 925 504 935 q 551 915 535 915 q 601 938 582 915 q 624 1001 621 961 l 683 1001 q 647 892 681 933 q 558 851 614 851 z "},"ű":{"ha":935,"x_min":131,"x_max":796,"o":"m 796 731 l 796 0 l 701 0 l 701 133 q 594 30 663 67 q 439 -7 526 -7 q 213 73 296 -7 q 131 307 131 153 l 131 731 l 229 731 l 229 317 q 286 142 229 201 q 449 82 343 82 q 631 152 564 82 q 697 347 697 222 l 697 731 l 796 731 m 442 1015 l 551 1015 l 394 843 l 307 843 l 442 1015 m 667 1015 l 776 1015 l 621 843 l 533 843 l 667 1015 z "},"ȗ":{"ha":935,"x_min":131,"x_max":796,"o":"m 796 731 l 796 0 l 701 0 l 701 133 q 594 30 663 67 q 439 -7 526 -7 q 213 73 296 -7 q 131 307 131 153 l 131 731 l 229 731 l 229 317 q 286 142 229 201 q 449 82 343 82 q 631 152 564 82 q 697 347 697 222 l 697 731 l 796 731 m 253 843 q 315 973 256 925 q 464 1021 375 1021 q 613 973 553 1021 q 675 843 672 925 l 606 843 q 564 928 604 896 q 464 961 524 961 q 364 928 404 961 q 322 843 324 896 l 253 843 z "},"ū":{"ha":935,"x_min":131,"x_max":796,"o":"m 796 731 l 796 0 l 701 0 l 701 133 q 594 30 663 67 q 439 -7 526 -7 q 213 73 296 -7 q 131 307 131 153 l 131 731 l 229 731 l 229 317 q 286 142 229 201 q 449 82 343 82 q 631 152 564 82 q 697 347 697 222 l 697 731 l 796 731 m 250 961 l 678 961 l 678 896 l 250 896 l 250 961 z "},"ṻ":{"ha":935,"x_min":131,"x_max":796,"o":"m 796 731 l 796 0 l 701 0 l 701 133 q 594 30 663 67 q 439 -7 526 -7 q 213 73 296 -7 q 131 307 131 153 l 131 731 l 229 731 l 229 317 q 286 142 229 201 q 449 82 343 82 q 631 152 564 82 q 697 347 697 222 l 697 731 l 796 731 z "},"ų":{"ha":935,"x_min":131,"x_max":825,"o":"m 825 -272 q 707 -306 775 -306 q 596 -269 638 -306 q 554 -174 554 -233 q 701 15 554 -62 l 701 133 q 594 30 663 67 q 439 -7 526 -7 q 213 73 296 -7 q 131 307 131 153 l 131 731 l 229 731 l 229 317 q 286 142 229 201 q 449 82 343 82 q 631 152 564 82 q 697 347 697 222 l 697 731 l 796 731 l 796 0 q 626 -167 626 -75 q 651 -224 626 -204 q 717 -244 676 -244 q 803 -218 771 -244 l 825 -272 z "},"ů":{"ha":935,"x_min":131,"x_max":796,"o":"m 796 731 l 796 0 l 701 0 l 701 133 q 594 30 663 67 q 439 -7 526 -7 q 213 73 296 -7 q 131 307 131 153 l 131 731 l 229 731 l 229 317 q 286 142 229 201 q 449 82 343 82 q 631 152 564 82 q 697 347 697 222 l 697 731 l 796 731 m 463 826 q 359 868 400 826 q 318 968 318 910 q 360 1071 318 1028 q 463 1114 401 1114 q 566 1071 524 1114 q 608 968 608 1028 q 567 868 608 910 q 463 826 525 826 m 463 875 q 531 901 504 875 q 557 968 557 928 q 530 1037 557 1008 q 463 1065 503 1065 q 396 1038 422 1065 q 369 968 369 1010 q 395 901 369 928 q 463 875 421 875 z "},"ũ":{"ha":935,"x_min":131,"x_max":796,"o":"m 796 731 l 796 0 l 701 0 l 701 133 q 594 30 663 67 q 439 -7 526 -7 q 213 73 296 -7 q 131 307 131 153 l 131 731 l 229 731 l 229 317 q 286 142 229 201 q 449 82 343 82 q 631 152 564 82 q 697 347 697 222 l 697 731 l 796 731 m 558 851 q 501 866 526 851 q 447 907 476 881 q 408 937 422 928 q 376 946 393 946 q 325 922 344 946 q 304 857 306 899 l 244 857 q 281 968 247 926 q 369 1010 314 1010 q 426 996 401 1010 q 482 954 450 982 q 519 925 504 935 q 551 915 535 915 q 601 938 582 915 q 624 1001 621 961 l 683 1001 q 647 892 681 933 q 558 851 614 851 z "},"ṹ":{"ha":935,"x_min":131,"x_max":796,"o":"m 796 731 l 796 0 l 701 0 l 701 133 q 594 30 663 67 q 439 -7 526 -7 q 213 73 296 -7 q 131 307 131 153 l 131 731 l 229 731 l 229 317 q 286 142 229 201 q 449 82 343 82 q 631 152 564 82 q 697 347 697 222 l 697 731 l 796 731 z "},"v":{"ha":753,"x_min":1,"x_max":751,"o":"m 751 731 l 426 0 l 325 0 l 1 731 l 104 731 l 378 108 l 654 731 l 751 731 z "},"w":{"ha":1221,"x_min":11,"x_max":1210,"o":"m 1210 731 l 933 0 l 840 0 l 610 599 l 379 0 l 286 0 l 11 731 l 106 731 l 335 110 l 569 731 l 654 731 l 888 110 l 1119 731 l 1210 731 z "},"ẃ":{"ha":1221,"x_min":11,"x_max":1210,"o":"m 1210 731 l 933 0 l 840 0 l 610 599 l 379 0 l 286 0 l 11 731 l 106 731 l 335 110 l 569 731 l 654 731 l 888 110 l 1119 731 l 1210 731 m 708 1014 l 840 1014 l 615 842 l 518 842 l 708 1014 z "},"ŵ":{"ha":1221,"x_min":11,"x_max":1210,"o":"m 1210 731 l 933 0 l 840 0 l 610 599 l 379 0 l 286 0 l 11 731 l 106 731 l 335 110 l 569 731 l 654 731 l 888 110 l 1119 731 l 1210 731 m 746 842 l 608 957 l 471 842 l 379 842 l 558 1014 l 658 1014 l 838 842 l 746 842 z "},"ẅ":{"ha":1221,"x_min":11,"x_max":1210,"o":"m 1210 731 l 933 0 l 840 0 l 610 599 l 379 0 l 286 0 l 11 731 l 106 731 l 335 110 l 569 731 l 654 731 l 888 110 l 1119 731 l 1210 731 m 485 874 q 442 890 460 874 q 425 933 425 907 q 442 976 425 958 q 485 993 460 993 q 526 976 508 993 q 544 933 544 958 q 527 891 544 908 q 485 874 510 874 m 732 874 q 690 891 707 874 q 672 933 672 908 q 690 976 672 958 q 732 993 708 993 q 774 976 757 993 q 792 933 792 958 q 774 890 792 907 q 732 874 757 874 z "},"ẁ":{"ha":1221,"x_min":11,"x_max":1210,"o":"m 1210 731 l 933 0 l 840 0 l 610 599 l 379 0 l 286 0 l 11 731 l 106 731 l 335 110 l 569 731 l 654 731 l 888 110 l 1119 731 l 1210 731 m 376 1014 l 508 1014 l 699 842 l 601 842 l 376 1014 z "},"x":{"ha":742,"x_min":26,"x_max":715,"o":"m 603 0 l 371 306 l 138 0 l 26 0 l 315 375 l 40 731 l 151 731 l 371 444 l 590 731 l 699 731 l 424 375 l 715 0 l 603 0 z "},"y":{"ha":753,"x_min":-35,"x_max":751,"o":"m 751 731 l 386 -87 q 283 -233 342 -190 q 143 -276 225 -276 q 44 -260 90 -276 q -35 -210 -1 -243 l 11 -136 q 144 -192 67 -192 q 230 -164 194 -192 q 296 -69 265 -136 l 328 1 l 1 731 l 104 731 l 379 110 l 654 731 l 751 731 z "},"ý":{"ha":753,"x_min":-35,"x_max":751,"o":"m 751 731 l 386 -87 q 283 -233 342 -190 q 143 -276 225 -276 q 44 -260 90 -276 q -35 -210 -1 -243 l 11 -136 q 144 -192 67 -192 q 230 -164 194 -192 q 296 -69 265 -136 l 328 1 l 1 731 l 104 731 l 379 110 l 654 731 l 751 731 m 457 1015 l 589 1015 l 364 843 l 267 843 l 457 1015 z "},"ŷ":{"ha":753,"x_min":-35,"x_max":751,"o":"m 751 731 l 386 -87 q 283 -233 342 -190 q 143 -276 225 -276 q 44 -260 90 -276 q -35 -210 -1 -243 l 11 -136 q 144 -192 67 -192 q 230 -164 194 -192 q 296 -69 265 -136 l 328 1 l 1 731 l 104 731 l 379 110 l 654 731 l 751 731 m 494 843 l 357 958 l 219 843 l 128 843 l 307 1015 l 407 1015 l 586 843 l 494 843 z "},"ÿ":{"ha":753,"x_min":-35,"x_max":751,"o":"m 751 731 l 386 -87 q 283 -233 342 -190 q 143 -276 225 -276 q 44 -260 90 -276 q -35 -210 -1 -243 l 11 -136 q 144 -192 67 -192 q 230 -164 194 -192 q 296 -69 265 -136 l 328 1 l 1 731 l 104 731 l 379 110 l 654 731 l 751 731 m 233 875 q 191 892 208 875 q 174 935 174 908 q 191 977 174 960 q 233 994 208 994 q 275 977 257 994 q 293 935 293 960 q 276 892 293 910 q 233 875 258 875 m 481 875 q 438 892 456 875 q 421 935 421 910 q 439 977 421 960 q 481 994 457 994 q 523 977 506 994 q 540 935 540 960 q 523 892 540 908 q 481 875 506 875 z "},"ẏ":{"ha":753,"x_min":-35,"x_max":751,"o":"m 751 731 l 386 -87 q 283 -233 342 -190 q 143 -276 225 -276 q 44 -260 90 -276 q -35 -210 -1 -243 l 11 -136 q 144 -192 67 -192 q 230 -164 194 -192 q 296 -69 265 -136 l 328 1 l 1 731 l 104 731 l 379 110 l 654 731 l 751 731 m 357 875 q 310 894 329 875 q 290 942 290 914 q 310 989 290 969 q 357 1008 329 1008 q 404 989 385 1008 q 424 942 424 969 q 404 894 424 914 q 357 875 385 875 z "},"ỵ":{"ha":753,"x_min":-35,"x_max":751,"o":"m 751 731 l 386 -87 q 283 -233 342 -190 q 143 -276 225 -276 q 44 -260 90 -276 q -35 -210 -1 -243 l 11 -136 q 144 -192 67 -192 q 230 -164 194 -192 q 296 -69 265 -136 l 328 1 l 1 731 l 104 731 l 379 110 l 654 731 l 751 731 m 539 -264 q 497 -247 514 -264 q 479 -204 479 -231 q 497 -161 479 -178 q 539 -144 514 -144 q 581 -161 564 -144 q 599 -204 599 -178 q 581 -247 599 -231 q 539 -264 564 -264 z "},"ỳ":{"ha":753,"x_min":-35,"x_max":751,"o":"m 751 731 l 386 -87 q 283 -233 342 -190 q 143 -276 225 -276 q 44 -260 90 -276 q -35 -210 -1 -243 l 11 -136 q 144 -192 67 -192 q 230 -164 194 -192 q 296 -69 265 -136 l 328 1 l 1 731 l 104 731 l 379 110 l 654 731 l 751 731 m 125 1015 l 257 1015 l 447 843 l 350 843 l 125 1015 z "},"ỷ":{"ha":753,"x_min":-35,"x_max":751,"o":"m 751 731 l 386 -87 q 283 -233 342 -190 q 143 -276 225 -276 q 44 -260 90 -276 q -35 -210 -1 -243 l 11 -136 q 144 -192 67 -192 q 230 -164 194 -192 q 296 -69 265 -136 l 328 1 l 1 731 l 104 731 l 379 110 l 654 731 l 751 731 m 340 876 q 422 975 422 914 q 401 1024 422 1004 q 346 1043 379 1043 q 263 1017 303 1043 l 239 1065 q 292 1092 261 1082 q 354 1101 324 1101 q 449 1069 413 1101 q 486 982 486 1036 q 375 833 486 885 l 340 876 z "},"ȳ":{"ha":753,"x_min":-35,"x_max":751,"o":"m 751 731 l 386 -87 q 283 -233 342 -190 q 143 -276 225 -276 q 44 -260 90 -276 q -35 -210 -1 -243 l 11 -136 q 144 -192 67 -192 q 230 -164 194 -192 q 296 -69 265 -136 l 328 1 l 1 731 l 104 731 l 379 110 l 654 731 l 751 731 m 143 961 l 571 961 l 571 896 l 143 896 l 143 961 z "},"ỹ":{"ha":753,"x_min":-35,"x_max":751,"o":"m 751 731 l 386 -87 q 283 -233 342 -190 q 143 -276 225 -276 q 44 -260 90 -276 q -35 -210 -1 -243 l 11 -136 q 144 -192 67 -192 q 230 -164 194 -192 q 296 -69 265 -136 l 328 1 l 1 731 l 104 731 l 379 110 l 654 731 l 751 731 m 451 851 q 394 866 419 851 q 340 907 369 881 q 301 937 315 928 q 269 946 286 946 q 218 922 238 946 q 197 857 199 899 l 138 857 q 174 968 140 926 q 263 1010 207 1010 q 319 996 294 1010 q 375 954 343 982 q 413 925 397 935 q 444 915 428 915 q 494 938 475 915 q 517 1001 514 961 l 576 1001 q 540 892 574 933 q 451 851 507 851 z "},"z":{"ha":710,"x_min":58,"x_max":653,"o":"m 653 82 l 653 0 l 58 0 l 58 65 l 518 647 l 67 647 l 67 731 l 644 731 l 644 665 l 185 82 l 653 82 z "},"ź":{"ha":710,"x_min":58,"x_max":653,"o":"m 653 82 l 653 0 l 58 0 l 58 65 l 518 647 l 67 647 l 67 731 l 644 731 l 644 665 l 185 82 l 653 82 m 456 1015 l 588 1015 l 363 843 l 265 843 l 456 1015 z "},"ž":{"ha":710,"x_min":58,"x_max":653,"o":"m 653 82 l 653 0 l 58 0 l 58 65 l 518 647 l 67 647 l 67 731 l 644 731 l 644 665 l 185 82 l 653 82 m 585 1015 l 406 843 l 306 843 l 126 1015 l 218 1015 l 356 901 l 493 1015 l 585 1015 z "},"ż":{"ha":710,"x_min":58,"x_max":653,"o":"m 653 82 l 653 0 l 58 0 l 58 65 l 518 647 l 67 647 l 67 731 l 644 731 l 644 665 l 185 82 l 653 82 m 356 875 q 308 894 328 875 q 289 942 289 914 q 308 989 289 969 q 356 1008 328 1008 q 403 989 383 1008 q 422 942 422 969 q 403 894 422 914 q 356 875 383 875 z "},"ẓ":{"ha":710,"x_min":58,"x_max":653,"o":"m 653 82 l 653 0 l 58 0 l 58 65 l 518 647 l 67 647 l 67 731 l 644 731 l 644 665 l 185 82 l 653 82 m 365 -264 q 323 -247 340 -264 q 306 -204 306 -231 q 323 -161 306 -178 q 365 -144 340 -144 q 408 -161 390 -144 q 425 -204 425 -178 q 408 -247 425 -231 q 365 -264 390 -264 z "},"ﬁ":{"ha":844,"x_min":24,"x_max":731,"o":"m 379 954 q 283 919 315 954 q 250 817 250 885 l 250 731 l 475 731 l 475 647 l 253 647 l 253 0 l 154 0 l 154 647 l 24 647 l 24 731 l 154 731 l 154 821 q 212 979 154 921 q 375 1038 269 1038 q 456 1026 417 1038 q 521 992 494 1014 l 488 918 q 379 954 444 954 m 608 731 l 707 731 l 707 0 l 608 0 l 608 731 m 658 890 q 607 911 628 890 q 586 961 586 932 q 607 1010 586 989 q 658 1031 628 1031 q 710 1010 689 1031 q 731 963 731 990 q 710 911 731 932 q 658 890 689 890 z "},"ﬂ":{"ha":846,"x_min":24,"x_max":707,"o":"m 379 954 q 283 919 315 954 q 250 817 250 885 l 250 731 l 475 731 l 475 647 l 253 647 l 253 0 l 154 0 l 154 647 l 24 647 l 24 731 l 154 731 l 154 821 q 212 979 154 921 q 375 1038 269 1038 q 456 1026 417 1038 q 521 992 494 1014 l 488 918 q 379 954 444 954 m 608 1031 l 707 1031 l 707 0 l 608 0 l 608 1031 z "},"ª":{"ha":557,"x_min":57,"x_max":458,"o":"m 264 1036 q 408 993 358 1036 q 458 864 458 950 l 458 597 l 390 597 l 390 664 q 328 613 369 632 q 228 593 286 593 q 101 628 146 593 q 57 719 57 663 q 101 810 57 776 q 239 844 144 844 l 385 844 l 385 867 q 353 951 385 924 q 257 978 321 978 q 170 964 211 978 q 100 926 129 950 l 71 975 q 158 1019 107 1003 q 264 1036 210 1036 m 243 644 q 385 725 347 644 l 385 796 l 247 796 q 156 776 185 796 q 126 724 126 757 q 157 665 126 686 q 243 644 188 644 z "},"º":{"ha":575,"x_min":47,"x_max":528,"o":"m 288 593 q 165 622 219 593 q 78 701 110 650 q 47 815 47 751 q 78 929 47 879 q 165 1008 110 979 q 288 1036 219 1036 q 410 1008 356 1036 q 497 929 465 979 q 528 815 528 879 q 497 701 528 751 q 410 622 465 650 q 288 593 356 593 m 288 656 q 409 700 363 656 q 456 815 456 744 q 408 931 456 886 q 288 975 361 975 q 167 931 214 975 q 119 815 119 886 q 166 700 119 744 q 288 656 213 656 z "},"А":{"ha":1033,"x_min":21,"x_max":1011,"o":"m 786 260 l 244 260 l 128 0 l 21 0 l 465 972 l 567 972 l 1011 0 l 903 0 l 786 260 m 749 343 l 515 865 l 282 343 l 749 343 z "},"Б":{"ha":1010,"x_min":164,"x_max":935,"o":"m 164 972 l 875 972 l 875 885 l 265 885 l 265 567 l 583 567 q 845 496 756 567 q 935 290 935 425 q 838 75 935 150 q 561 0 742 0 l 164 0 l 164 972 m 560 82 q 763 133 694 82 q 832 286 832 185 q 765 435 832 386 q 560 485 697 485 l 265 485 l 265 82 l 560 82 z "},"В":{"ha":1040,"x_min":164,"x_max":947,"o":"m 740 501 q 894 420 842 481 q 947 263 947 360 q 858 68 947 136 q 594 0 768 0 l 164 0 l 164 972 l 568 972 q 811 908 724 972 q 899 724 899 844 q 857 585 899 642 q 740 501 815 529 m 265 532 l 563 532 q 735 578 675 532 q 796 711 796 624 q 735 844 796 799 q 563 890 675 890 l 265 890 l 265 532 m 594 82 q 846 269 846 82 q 594 453 846 453 l 265 453 l 265 82 l 594 82 z "},"Г":{"ha":794,"x_min":164,"x_max":782,"o":"m 782 883 l 264 883 l 265 0 l 164 0 l 164 972 l 782 972 l 782 883 z "},"Ѓ":{"ha":794,"x_min":164,"x_max":782,"o":"m 782 883 l 264 883 l 265 0 l 164 0 l 164 972 l 782 972 l 782 883 z "},"Ґ":{"ha":799,"x_min":164,"x_max":782,"o":"m 164 972 l 686 972 l 686 1172 l 782 1172 l 782 883 l 265 883 l 265 0 l 164 0 l 164 972 z "}}}
